roboto-mono_italic.sfdir
StartChar: exclam
Encoding: 33 33 1040
Width: 1202
Flags: W
LayerCount: 2
Back
Fore
SplineSet
648 471 m 1,0,-1
 466 471 l 1,1,-1
 637 1456 l 1,2,-1
 819 1456 l 1,3,-1
 648 471 l 1,0,-1
384 94 m 0,4,5
 385 143 385 143 415.5 175.5 c 128,-1,6
 446 208 446 208 496 210 c 0,7,8
 520 211 520 211 541 203 c 128,-1,9
 562 195 562 195 577 180 c 128,-1,10
 592 165 592 165 600 144.5 c 128,-1,11
 608 124 608 124 608 100 c 0,12,13
 607 51 607 51 575 20.5 c 128,-1,14
 543 -10 543 -10 495 -12 c 0,15,16
 471 -13 471 -13 450.5 -5.5 c 128,-1,17
 430 2 430 2 415.5 16 c 128,-1,18
 401 30 401 30 392.5 50 c 128,-1,19
 384 70 384 70 384 94 c 0,4,5
EndSplineSet
EndChar
StartChar: quotedbl
Encoding: 34 34 4
Width: 1202
Flags: W
LayerCount: 2
Back
Fore
SplineSet
619 1419 m 1,0,-1
 542 1057 l 1,1,-1
 414 1056 l 1,2,-1
 475 1441 l 1,3,-1
 492 1545 l 1,4,-1
 637 1535 l 1,5,-1
 619 1419 l 1,0,-1
965 1419 m 1,6,-1
 888 1057 l 1,7,-1
 761 1057 l 1,8,-1
 821 1434 l 1,9,-1
 838 1536 l 1,10,-1
 985 1536 l 1,11,-1
 965 1419 l 1,6,-1
EndSplineSet
EndChar
StartChar: numbersign
Encoding: 35 35 5
Width: 1202
Flags: W
LayerCount: 2
Back
Fore
SplineSet
651 410 m 1,0,-1
 400 410 l 1,1,-1
 251 0 l 1,2,-1
 106 0 l 1,3,-1
 256 410 l 1,4,-1
 26 410 l 1,5,-1
 50 547 l 1,6,-1
 304 547 l 1,7,-1
 433 901 l 1,8,-1
 184 901 l 1,9,-1
 209 1040 l 1,10,-1
 483 1040 l 1,11,-1
 635 1456 l 1,12,-1
 780 1456 l 1,13,-1
 627 1040 l 1,14,-1
 877 1040 l 1,15,-1
 1030 1456 l 1,16,-1
 1174 1456 l 1,17,-1
 1022 1040 l 1,18,-1
 1219 1040 l 1,19,-1
 1195 901 l 1,20,-1
 972 901 l 1,21,-1
 844 547 l 1,22,-1
 1061 547 l 1,23,-1
 1037 410 l 1,24,-1
 795 410 l 1,25,-1
 646 0 l 1,26,-1
 501 0 l 1,27,-1
 651 410 l 1,0,-1
449 547 m 1,28,-1
 699 547 l 1,29,-1
 828 901 l 1,30,-1
 577 901 l 1,31,-1
 449 547 l 1,28,-1
EndSplineSet
EndChar
StartChar: dollar
Encoding: 36 36 6
Width: 1202
Flags: W
LayerCount: 2
Back
Fore
SplineSet
844 382 m 0,0,1
 850 436 850 436 833.5 477 c 128,-1,2
 817 518 817 518 785 549.5 c 128,-1,3
 753 581 753 581 711 604 c 128,-1,4
 669 627 669 627 624 644 c 0,5,6
 550 673 550 673 486 711 c 128,-1,7
 422 749 422 749 375.5 800.5 c 128,-1,8
 329 852 329 852 305 918.5 c 128,-1,9
 281 985 281 985 287 1072 c 256,10,11
 293 1159 293 1159 325.5 1228.5 c 128,-1,12
 358 1298 358 1298 411 1348.5 c 128,-1,13
 464 1399 464 1399 535 1430.5 c 128,-1,14
 606 1462 606 1462 690 1472 c 1,15,-1
 729 1692 l 1,16,-1
 875 1692 l 1,17,-1
 835 1470 l 1,18,19
 921 1453 921 1453 977 1408.5 c 128,-1,20
 1033 1364 1033 1364 1065 1301 c 128,-1,21
 1097 1238 1097 1238 1108 1162.5 c 128,-1,22
 1119 1087 1119 1087 1114 1008 c 1,23,-1
 934 1008 l 1,24,25
 937 1059 937 1059 931 1113 c 128,-1,26
 925 1167 925 1167 903.5 1211 c 128,-1,27
 882 1255 882 1255 843 1284 c 128,-1,28
 804 1313 804 1313 741 1315 c 0,29,30
 685 1316 685 1316 637.5 1299.5 c 128,-1,31
 590 1283 590 1283 554.5 1251.5 c 128,-1,32
 519 1220 519 1220 496 1175 c 128,-1,33
 473 1130 473 1130 467 1075 c 0,34,35
 461 1018 461 1018 478 976.5 c 128,-1,36
 495 935 495 935 527.5 904 c 128,-1,37
 560 873 560 873 603 850 c 128,-1,38
 646 827 646 827 693 809 c 0,39,40
 766 779 766 779 829.5 741.5 c 128,-1,41
 893 704 893 704 938.5 653.5 c 128,-1,42
 984 603 984 603 1007.5 537 c 128,-1,43
 1031 471 1031 471 1025 384 c 0,44,45
 1019 292 1019 292 983.5 221.5 c 128,-1,46
 948 151 948 151 890.5 101.5 c 128,-1,47
 833 52 833 52 757.5 22.5 c 128,-1,48
 682 -7 682 -7 596 -16 c 1,49,-1
 561 -208 l 1,50,-1
 415 -208 l 1,51,-1
 450 -15 l 1,52,53
 362 -2 362 -2 299 37.5 c 128,-1,54
 236 77 236 77 197 135.5 c 128,-1,55
 158 194 158 194 141 269 c 128,-1,56
 124 344 124 344 129 429 c 1,57,-1
 310 429 l 1,58,59
 306 370 306 370 316 318 c 128,-1,60
 326 266 326 266 353 227 c 128,-1,61
 380 188 380 188 424.5 164.5 c 128,-1,62
 469 141 469 141 534 140 c 0,63,64
 592 138 592 138 645 153.5 c 128,-1,65
 698 169 698 169 740 199.5 c 128,-1,66
 782 230 782 230 809.5 276 c 128,-1,67
 837 322 837 322 844 382 c 0,0,1
EndSplineSet
EndChar
StartChar: percent
Encoding: 37 37 7
Width: 1202
Flags: W
LayerCount: 2
Back
Fore
SplineSet
141 1193 m 2,0,1
 148 1252 148 1252 171.5 1304.5 c 128,-1,2
 195 1357 195 1357 233 1396 c 128,-1,3
 271 1435 271 1435 322 1457 c 128,-1,4
 373 1479 373 1479 436 1478 c 0,5,6
 496 1476 496 1476 540.5 1453 c 128,-1,7
 585 1430 585 1430 614 1391 c 128,-1,8
 643 1352 643 1352 655.5 1301 c 128,-1,9
 668 1250 668 1250 664 1194 c 2,10,-1
 657 1117 l 2,11,12
 650 1058 650 1058 626.5 1006.5 c 128,-1,13
 603 955 603 955 565.5 916 c 128,-1,14
 528 877 528 877 476.5 855 c 128,-1,15
 425 833 425 833 363 835 c 0,16,17
 303 836 303 836 258.5 859.5 c 128,-1,18
 214 883 214 883 185 922 c 128,-1,19
 156 961 156 961 143 1011 c 128,-1,20
 130 1061 130 1061 134 1117 c 2,21,-1
 141 1193 l 2,0,1
272 1115 m 2,22,23
 270 1087 270 1087 273.5 1059 c 128,-1,24
 277 1031 277 1031 289 1008 c 128,-1,25
 301 985 301 985 322 970 c 128,-1,26
 343 955 343 955 377 955 c 256,27,28
 411 955 411 955 436.5 969 c 128,-1,29
 462 983 462 983 479 1005.5 c 128,-1,30
 496 1028 496 1028 506 1057 c 128,-1,31
 516 1086 516 1086 520 1116 c 2,32,-1
 527 1195 l 2,33,34
 529 1223 529 1223 525.5 1251.5 c 128,-1,35
 522 1280 522 1280 510 1303.5 c 128,-1,36
 498 1327 498 1327 477 1342 c 128,-1,37
 456 1357 456 1357 422 1358 c 0,38,39
 387 1358 387 1358 362 1344 c 128,-1,40
 337 1330 337 1330 319.5 1306.5 c 128,-1,41
 302 1283 302 1283 292 1254 c 128,-1,42
 282 1225 282 1225 279 1195 c 2,43,-1
 272 1115 l 2,22,23
575 337 m 2,44,45
 582 396 582 396 605.5 448.5 c 128,-1,46
 629 501 629 501 667 540 c 128,-1,47
 705 579 705 579 756.5 600.5 c 128,-1,48
 808 622 808 622 871 621 c 0,49,50
 931 619 931 619 975.5 596 c 128,-1,51
 1020 573 1020 573 1049 534 c 128,-1,52
 1078 495 1078 495 1091 444.5 c 128,-1,53
 1104 394 1104 394 1100 338 c 2,54,-1
 1092 260 l 2,55,56
 1085 201 1085 201 1061.5 149 c 128,-1,57
 1038 97 1038 97 1000.5 59 c 128,-1,58
 963 21 963 21 911.5 -1 c 128,-1,59
 860 -23 860 -23 798 -22 c 0,60,61
 738 -21 738 -21 693 2.5 c 128,-1,62
 648 26 648 26 619 64.5 c 128,-1,63
 590 103 590 103 577 153.5 c 128,-1,64
 564 204 564 204 568 260 c 2,65,-1
 575 337 l 2,44,45
706 258 m 2,66,67
 704 230 704 230 708 202 c 128,-1,68
 712 174 712 174 724 150.5 c 128,-1,69
 736 127 736 127 757 112.5 c 128,-1,70
 778 98 778 98 812 97 c 0,71,72
 846 97 846 97 871.5 111 c 128,-1,73
 897 125 897 125 914 148 c 128,-1,74
 931 171 931 171 941 200 c 128,-1,75
 951 229 951 229 955 259 c 2,76,-1
 962 339 l 2,77,78
 964 367 964 367 960.5 395.5 c 128,-1,79
 957 424 957 424 945.5 447 c 128,-1,80
 934 470 934 470 913 485 c 128,-1,81
 892 500 892 500 858 501 c 0,82,83
 823 501 823 501 797.5 487 c 128,-1,84
 772 473 772 473 754.5 450 c 128,-1,85
 737 427 737 427 727 398 c 128,-1,86
 717 369 717 369 713 339 c 2,87,-1
 706 258 l 2,66,67
319 189 m 1,88,-1
 216 254 l 1,89,-1
 943 1286 l 1,90,-1
 1047 1221 l 1,91,-1
 319 189 l 1,88,-1
EndSplineSet
EndChar
StartChar: ampersand
Encoding: 38 38 8
Width: 1202
Flags: W
LayerCount: 2
Back
Fore
SplineSet
69 366 m 0,0,1
 75 441 75 441 104.5 502 c 128,-1,2
 134 563 134 563 179.5 614.5 c 128,-1,3
 225 666 225 666 282 708.5 c 128,-1,4
 339 751 339 751 398 788 c 1,5,6
 379 827 379 827 361 867 c 128,-1,7
 343 907 343 907 330.5 948 c 128,-1,8
 318 989 318 989 311.5 1031.5 c 128,-1,9
 305 1074 305 1074 308 1119 c 0,10,11
 314 1199 314 1199 344.5 1266 c 128,-1,12
 375 1333 375 1333 425.5 1380.5 c 128,-1,13
 476 1428 476 1428 544.5 1453.5 c 128,-1,14
 613 1479 613 1479 695 1477 c 0,15,16
 757 1475 757 1475 808.5 1451 c 128,-1,17
 860 1427 860 1427 896.5 1386.5 c 128,-1,18
 933 1346 933 1346 951.5 1292 c 128,-1,19
 970 1238 970 1238 966 1176 c 0,20,21
 963 1119 963 1119 941 1072.5 c 128,-1,22
 919 1026 919 1026 885.5 987 c 128,-1,23
 852 948 852 948 810.5 914.5 c 128,-1,24
 769 881 769 881 726 850 c 2,25,-1
 612 763 l 1,26,-1
 842 367 l 1,27,28
 892 437 892 437 922 512 c 128,-1,29
 952 587 952 587 966 672 c 1,30,-1
 1126 672 l 1,31,32
 1113 545 1113 545 1063.5 435.5 c 128,-1,33
 1014 326 1014 326 925 235 c 1,34,-1
 1058 0 l 1,35,-1
 856 0 l 1,36,-1
 795 108 l 1,37,38
 717 49 717 49 628.5 14 c 128,-1,39
 540 -21 540 -21 440 -19 c 0,40,41
 356 -18 356 -18 285 10 c 128,-1,42
 214 38 214 38 164 88.5 c 128,-1,43
 114 139 114 139 88.5 209.5 c 128,-1,44
 63 280 63 280 69 366 c 0,0,1
446 131 m 0,45,46
 522 129 522 129 589.5 159 c 128,-1,47
 657 189 657 189 718 231 c 1,48,-1
 478 661 l 1,49,-1
 447 636 l 2,50,51
 415 611 415 611 382.5 581.5 c 128,-1,52
 350 552 350 552 322.5 518 c 128,-1,53
 295 484 295 484 276 445.5 c 128,-1,54
 257 407 257 407 251 365 c 0,55,56
 245 315 245 315 255.5 272.5 c 128,-1,57
 266 230 266 230 291.5 199 c 128,-1,58
 317 168 317 168 356 150 c 128,-1,59
 395 132 395 132 446 131 c 0,45,46
485 1121 m 0,60,61
 481 1091 481 1091 484 1061 c 128,-1,62
 487 1031 487 1031 494.5 1002.5 c 128,-1,63
 502 974 502 974 513.5 946 c 128,-1,64
 525 918 525 918 537 891 c 1,65,-1
 665 983 l 2,66,67
 715 1020 715 1020 751 1066 c 128,-1,68
 787 1112 787 1112 793 1177 c 0,69,70
 796 1204 796 1204 790.5 1230.5 c 128,-1,71
 785 1257 785 1257 771.5 1278 c 128,-1,72
 758 1299 758 1299 736 1312.5 c 128,-1,73
 714 1326 714 1326 683 1326 c 0,74,75
 640 1327 640 1327 605.5 1310 c 128,-1,76
 571 1293 571 1293 545.5 1264 c 128,-1,77
 520 1235 520 1235 504.5 1197.5 c 128,-1,78
 489 1160 489 1160 485 1121 c 0,60,61
EndSplineSet
EndChar
StartChar: quotesingle
Encoding: 39 39 9
Width: 1202
Flags: W
LayerCount: 2
Back
Fore
SplineSet
762 1416 m 1,0,-1
 686 1057 l 1,1,-1
 550 1056 l 1,2,-1
 611 1439 l 1,3,-1
 627 1544 l 1,4,-1
 781 1535 l 1,5,-1
 762 1416 l 1,0,-1
EndSplineSet
EndChar
StartChar: parenleft
Encoding: 40 40 10
Width: 1202
Flags: W
LayerCount: 2
Back
Fore
SplineSet
345 587 m 2,0,1
 359 685 359 685 385.5 788.5 c 128,-1,2
 412 892 412 892 450.5 994 c 128,-1,3
 489 1096 489 1096 541 1192 c 128,-1,4
 593 1288 593 1288 658 1373 c 128,-1,5
 723 1458 723 1458 802.5 1527 c 128,-1,6
 882 1596 882 1596 977 1644 c 1,7,-1
 1004 1520 l 1,8,9
 894 1439 894 1439 813.5 1332.5 c 128,-1,10
 733 1226 733 1226 676 1105.5 c 128,-1,11
 619 985 619 985 583 854 c 128,-1,12
 547 723 547 723 527 592 c 2,13,-1
 525 577 l 2,14,15
 514 505 514 505 507 423 c 128,-1,16
 500 341 500 341 501 255 c 128,-1,17
 502 169 502 169 512 83 c 128,-1,18
 522 -3 522 -3 546 -83 c 128,-1,19
 570 -163 570 -163 610 -233.5 c 128,-1,20
 650 -304 650 -304 710 -358 c 1,21,-1
 663 -470 l 1,22,23
 585 -415 585 -415 527.5 -340 c 128,-1,24
 470 -265 470 -265 430.5 -177.5 c 128,-1,25
 391 -90 391 -90 368 6 c 128,-1,26
 345 102 345 102 335.5 199.5 c 128,-1,27
 326 297 326 297 328.5 393 c 128,-1,28
 331 489 331 489 343 576 c 2,29,-1
 345 587 l 2,0,1
EndSplineSet
EndChar
StartChar: parenright
Encoding: 41 41 11
Width: 1202
Flags: W
LayerCount: 2
Back
Fore
SplineSet
821 585 m 2,0,1
 807 487 807 487 780.5 383.5 c 128,-1,2
 754 280 754 280 715.5 178.5 c 128,-1,3
 677 77 677 77 625 -19.5 c 128,-1,4
 573 -116 573 -116 507.5 -200.5 c 128,-1,5
 442 -285 442 -285 362.5 -354.5 c 128,-1,6
 283 -424 283 -424 188 -471 c 1,7,-1
 160 -356 l 1,8,9
 271 -275 271 -275 351.5 -167.5 c 128,-1,10
 432 -60 432 -60 489 62.5 c 128,-1,11
 546 185 546 185 582 317 c 128,-1,12
 618 449 618 449 638 580 c 2,13,-1
 640 595 l 2,14,15
 650 666 650 666 657 748 c 128,-1,16
 664 830 664 830 663 916 c 128,-1,17
 662 1002 662 1002 651.5 1089 c 128,-1,18
 641 1176 641 1176 617 1256.5 c 128,-1,19
 593 1337 593 1337 553.5 1407 c 128,-1,20
 514 1477 514 1477 455 1531 c 1,21,-1
 501 1643 l 1,22,23
 580 1588 580 1588 638 1513 c 128,-1,24
 696 1438 696 1438 735.5 1350.5 c 128,-1,25
 775 1263 775 1263 798 1167 c 128,-1,26
 821 1071 821 1071 830.5 973 c 128,-1,27
 840 875 840 875 837.5 779 c 128,-1,28
 835 683 835 683 823 596 c 2,29,-1
 821 585 l 2,0,1
EndSplineSet
EndChar
StartChar: asterisk
Encoding: 42 42 12
Width: 1202
Flags: W
LayerCount: 2
Back
Fore
SplineSet
531 686 m 1,0,-1
 181 782 l 1,1,-1
 258 952 l 1,2,-1
 593 799 l 1,3,-1
 635 1224 l 1,4,-1
 809 1224 l 1,5,-1
 715 802 l 1,6,-1
 1086 950 l 1,7,-1
 1111 766 l 1,8,-1
 724 672 l 1,9,-1
 924 344 l 1,10,-1
 772 239 l 1,11,-1
 621 603 l 1,12,-1
 362 252 l 1,13,-1
 229 363 l 1,14,-1
 531 686 l 1,0,-1
EndSplineSet
EndChar
StartChar: plus
Encoding: 43 43 13
Width: 1202
Flags: W
LayerCount: 2
Back
Fore
SplineSet
721 781 m 1,0,-1
 1116 781 l 1,1,-1
 1084 597 l 1,2,-1
 689 597 l 1,3,-1
 611 146 l 1,4,-1
 430 146 l 1,5,-1
 509 597 l 1,6,-1
 114 597 l 1,7,-1
 147 781 l 1,8,-1
 540 781 l 1,9,-1
 614 1206 l 1,10,-1
 795 1206 l 1,11,-1
 721 781 l 1,0,-1
EndSplineSet
EndChar
StartChar: comma
Encoding: 44 44 14
Width: 1202
Flags: W
LayerCount: 2
Back
Fore
SplineSet
530 44 m 2,0,1
 511 -69 511 -69 452 -166.5 c 128,-1,2
 393 -264 393 -264 304 -336 c 1,3,-1
 194 -271 l 1,4,5
 247 -201 247 -201 281.5 -124 c 128,-1,6
 316 -47 316 -47 331 40 c 2,7,-1
 363 219 l 1,8,-1
 559 219 l 1,9,-1
 530 44 l 2,0,1
EndSplineSet
EndChar
StartChar: hyphen
Encoding: 45 45 15
Width: 1203
Flags: W
LayerCount: 2
Back
Fore
SplineSet
947 561 m 1,0,-1
 204 561 l 1,1,-1
 231 713 l 1,2,-1
 974 713 l 1,3,-1
 947 561 l 1,0,-1
EndSplineSet
EndChar
StartChar: period
Encoding: 46 46 16
Width: 1202
Flags: W
LayerCount: 2
Back
Fore
SplineSet
398 115 m 0,0,1
 398 146 398 146 408.5 173.5 c 128,-1,2
 419 201 419 201 437.5 221 c 128,-1,3
 456 241 456 241 482.5 252.5 c 128,-1,4
 509 264 509 264 541 264 c 0,5,6
 572 265 572 265 598 255 c 128,-1,7
 624 245 624 245 642.5 226 c 128,-1,8
 661 207 661 207 671.5 181.5 c 128,-1,9
 682 156 682 156 682 125 c 0,10,11
 682 93 682 93 671 67 c 128,-1,12
 660 41 660 41 641 21.5 c 128,-1,13
 622 2 622 2 595 -9 c 128,-1,14
 568 -20 568 -20 537 -20 c 0,15,16
 507 -20 507 -20 481.5 -10.5 c 128,-1,17
 456 -1 456 -1 437.5 17 c 128,-1,18
 419 35 419 35 408.5 60 c 128,-1,19
 398 85 398 85 398 115 c 0,0,1
EndSplineSet
EndChar
StartChar: zero
Encoding: 48 48 18
Width: 1202
Flags: W
LayerCount: 2
Back
Fore
SplineSet
1051 559 m 2,0,1
 1034 447 1034 447 994.5 341.5 c 128,-1,2
 955 236 955 236 889.5 154.5 c 128,-1,3
 824 73 824 73 729.5 25 c 128,-1,4
 635 -23 635 -23 508 -20 c 0,5,6
 428 -18 428 -18 366.5 6.5 c 128,-1,7
 305 31 305 31 260.5 72 c 128,-1,8
 216 113 216 113 188 168 c 128,-1,9
 160 223 160 223 145.5 286.5 c 128,-1,10
 131 350 131 350 129 419 c 128,-1,11
 127 488 127 488 136 557 c 2,12,-1
 190 898 l 2,13,14
 201 972 201 972 222 1044.5 c 128,-1,15
 243 1117 243 1117 275.5 1182 c 128,-1,16
 308 1247 308 1247 352 1302 c 128,-1,17
 396 1357 396 1357 452.5 1396.5 c 128,-1,18
 509 1436 509 1436 579 1457.5 c 128,-1,19
 649 1479 649 1479 734 1477 c 0,20,21
 815 1475 815 1475 876 1450.5 c 128,-1,22
 937 1426 937 1426 981.5 1384.5 c 128,-1,23
 1026 1343 1026 1343 1054 1288 c 128,-1,24
 1082 1233 1082 1233 1096 1169 c 128,-1,25
 1110 1105 1110 1105 1112 1036 c 128,-1,26
 1114 967 1114 967 1105 898 c 2,27,-1
 1051 559 l 2,0,1
322 602 m 1,28,-1
 944 1034 l 1,29,30
 945 1091 945 1091 935 1143 c 128,-1,31
 925 1195 925 1195 899.5 1235 c 128,-1,32
 874 1275 874 1275 831.5 1299 c 128,-1,33
 789 1323 789 1323 725 1325 c 0,34,35
 640 1328 640 1328 579.5 1295.5 c 128,-1,36
 519 1263 519 1263 477.5 1208 c 128,-1,37
 436 1153 436 1153 412.5 1082.5 c 128,-1,38
 389 1012 389 1012 378 939 c 2,39,-1
 322 602 l 1,28,-1
917 844 m 1,40,-1
 298 416 l 1,41,42
 297 360 297 360 307.5 309 c 128,-1,43
 318 258 318 258 343.5 219 c 128,-1,44
 369 180 369 180 411.5 156 c 128,-1,45
 454 132 454 132 517 130 c 0,46,47
 602 127 602 127 662.5 160 c 128,-1,48
 723 193 723 193 764 248.5 c 128,-1,49
 805 304 805 304 828.5 374.5 c 128,-1,50
 852 445 852 445 863 518 c 2,51,-1
 917 844 l 1,40,-1
EndSplineSet
EndChar
StartChar: one
Encoding: 49 49 19
Width: 1202
Flags: W
LayerCount: 2
Back
Fore
SplineSet
648 0 m 1,0,-1
 467 0 l 1,1,-1
 678 1215 l 1,2,-1
 282 1071 l 1,3,-1
 314 1248 l 1,4,-1
 876 1456 l 1,5,-1
 895 1456 l 1,6,-1
 648 0 l 1,0,-1
EndSplineSet
EndChar
StartChar: two
Encoding: 50 50 20
Width: 1202
Flags: W
LayerCount: 2
Back
Fore
SplineSet
942 0 m 1,0,-1
 15 0 l 1,1,-1
 37 141 l 1,2,-1
 575 664 l 2,3,4
 616 705 616 705 663 750.5 c 128,-1,5
 710 796 710 796 751 847 c 128,-1,6
 792 898 792 898 821.5 954 c 128,-1,7
 851 1010 851 1010 859 1072 c 0,8,9
 865 1123 865 1123 854 1168.5 c 128,-1,10
 843 1214 843 1214 816 1248 c 128,-1,11
 789 1282 789 1282 748 1302.5 c 128,-1,12
 707 1323 707 1323 654 1325 c 0,13,14
 583 1327 583 1327 528 1305.5 c 128,-1,15
 473 1284 473 1284 432.5 1244.5 c 128,-1,16
 392 1205 392 1205 367 1149.5 c 128,-1,17
 342 1094 342 1094 333 1028 c 1,18,-1
 153 1027 l 1,19,20
 163 1127 163 1127 206 1210.5 c 128,-1,21
 249 1294 249 1294 317 1353.5 c 128,-1,22
 385 1413 385 1413 473.5 1445.5 c 128,-1,23
 562 1478 562 1478 663 1476 c 0,24,25
 749 1474 749 1474 822 1445.5 c 128,-1,26
 895 1417 895 1417 946.5 1365 c 128,-1,27
 998 1313 998 1313 1024 1240.5 c 128,-1,28
 1050 1168 1050 1168 1043 1080 c 0,29,30
 1037 1003 1037 1003 1003.5 933 c 128,-1,31
 970 863 970 863 922.5 800 c 128,-1,32
 875 737 875 737 818.5 681 c 128,-1,33
 762 625 762 625 709 575 c 2,34,-1
 263 151 l 1,35,-1
 966 151 l 1,36,-1
 942 0 l 1,0,-1
EndSplineSet
EndChar
StartChar: three
Encoding: 51 51 21
Width: 1202
Flags: W
LayerCount: 2
Back
Fore
SplineSet
416 817 m 1,0,-1
 535 815 l 2,1,2
 596 815 596 815 652.5 832 c 128,-1,3
 709 849 709 849 754 881.5 c 128,-1,4
 799 914 799 914 828.5 962.5 c 128,-1,5
 858 1011 858 1011 866 1076 c 0,6,7
 872 1130 872 1130 863 1175.5 c 128,-1,8
 854 1221 854 1221 828.5 1254 c 128,-1,9
 803 1287 803 1287 762.5 1305.5 c 128,-1,10
 722 1324 722 1324 665 1326 c 0,11,12
 606 1327 606 1327 556 1309 c 128,-1,13
 506 1291 506 1291 467.5 1258 c 128,-1,14
 429 1225 429 1225 404 1178.5 c 128,-1,15
 379 1132 379 1132 369 1075 c 1,16,-1
 190 1074 l 1,17,18
 200 1167 200 1167 242.5 1242 c 128,-1,19
 285 1317 285 1317 350.5 1369.5 c 128,-1,20
 416 1422 416 1422 499.5 1450 c 128,-1,21
 583 1478 583 1478 674 1477 c 0,22,23
 764 1475 764 1475 836.5 1445.5 c 128,-1,24
 909 1416 909 1416 958.5 1363.5 c 128,-1,25
 1008 1311 1008 1311 1031.5 1237 c 128,-1,26
 1055 1163 1055 1163 1047 1072 c 0,27,28
 1042 1012 1042 1012 1018 961.5 c 128,-1,29
 994 911 994 911 956.5 870 c 128,-1,30
 919 829 919 829 872 797 c 128,-1,31
 825 765 825 765 773 742 c 1,32,33
 824 720 824 720 860.5 686.5 c 128,-1,34
 897 653 897 653 918.5 610 c 128,-1,35
 940 567 940 567 948 517.5 c 128,-1,36
 956 468 956 468 952 414 c 0,37,38
 943 313 943 313 900.5 232 c 128,-1,39
 858 151 858 151 790.5 94 c 128,-1,40
 723 37 723 37 635 7.5 c 128,-1,41
 547 -22 547 -22 448 -20 c 0,42,43
 358 -18 358 -18 283 11 c 128,-1,44
 208 40 208 40 155.5 92.5 c 128,-1,45
 103 145 103 145 75 219 c 128,-1,46
 47 293 47 293 52 385 c 1,47,-1
 232 384 l 1,48,49
 228 328 228 328 241.5 282 c 128,-1,50
 255 236 255 236 283.5 203 c 128,-1,51
 312 170 312 170 356 151 c 128,-1,52
 400 132 400 132 457 131 c 0,53,54
 522 129 522 129 576.5 148.5 c 128,-1,55
 631 168 631 168 672 204.5 c 128,-1,56
 713 241 713 241 739 293.5 c 128,-1,57
 765 346 765 346 772 410 c 0,58,59
 779 472 779 472 764 519 c 128,-1,60
 749 566 749 566 717 598 c 128,-1,61
 685 630 685 630 637 647 c 128,-1,62
 589 664 589 664 529 666 c 2,63,-1
 389 667 l 1,64,-1
 416 817 l 1,0,-1
EndSplineSet
EndChar
StartChar: four
Encoding: 52 52 22
Width: 1202
Flags: W
LayerCount: 2
Back
Fore
SplineSet
878 489 m 1,0,-1
 1075 489 l 1,1,-1
 1049 338 l 1,2,-1
 852 338 l 1,3,-1
 793 0 l 1,4,-1
 612 0 l 1,5,-1
 671 338 l 1,6,-1
 27 338 l 1,7,-1
 48 457 l 1,8,-1
 847 1456 l 1,9,-1
 1046 1456 l 1,10,-1
 878 489 l 1,0,-1
259 489 m 1,11,-1
 697 489 l 1,12,-1
 829 1212 l 1,13,-1
 790 1154 l 1,14,-1
 259 489 l 1,11,-1
EndSplineSet
EndChar
StartChar: five
Encoding: 53 53 23
Width: 1202
Flags: W
LayerCount: 2
Back
Fore
SplineSet
254 733 m 1,0,-1
 451 1456 l 1,1,-1
 1178 1456 l 1,2,-1
 1146 1276 l 1,3,-1
 575 1276 l 1,4,-1
 459 887 l 1,5,6
 569 952 569 952 697 950 c 0,7,8
 798 948 798 948 868.5 907 c 128,-1,9
 939 866 939 866 981.5 798.5 c 128,-1,10
 1024 731 1024 731 1040 645.5 c 128,-1,11
 1056 560 1056 560 1047 470 c 0,12,13
 1037 365 1037 365 997 274 c 128,-1,14
 957 183 957 183 891 117 c 128,-1,15
 825 51 825 51 735 14 c 128,-1,16
 645 -23 645 -23 535 -20 c 0,17,18
 445 -18 445 -18 373.5 12 c 128,-1,19
 302 42 302 42 251.5 95.5 c 128,-1,20
 201 149 201 149 173.5 222.5 c 128,-1,21
 146 296 146 296 143 384 c 1,22,-1
 312 384 l 1,23,24
 315 330 315 330 330 284.5 c 128,-1,25
 345 239 345 239 373.5 205 c 128,-1,26
 402 171 402 171 444.5 151.5 c 128,-1,27
 487 132 487 132 544 130 c 0,28,29
 617 128 617 128 674 156 c 128,-1,30
 731 184 731 184 770.5 232 c 128,-1,31
 810 280 810 280 833.5 342 c 128,-1,32
 857 404 857 404 865 470 c 0,33,34
 871 528 871 528 862 583.5 c 128,-1,35
 853 639 853 639 827 682.5 c 128,-1,36
 801 726 801 726 756 754 c 128,-1,37
 711 782 711 782 646 784 c 0,38,39
 573 786 573 786 516 761.5 c 128,-1,40
 459 737 459 737 403 694 c 1,41,-1
 254 733 l 1,0,-1
EndSplineSet
EndChar
StartChar: six
Encoding: 54 54 24
Width: 1202
Flags: W
LayerCount: 2
Back
Fore
SplineSet
960 1458 m 1,0,-1
 943 1292 l 1,1,-1
 931 1292 l 2,2,3
 811 1293 811 1293 717 1257.5 c 128,-1,4
 623 1222 623 1222 552 1158 c 128,-1,5
 481 1094 481 1094 430.5 1005 c 128,-1,6
 380 916 380 916 346 809 c 1,7,8
 410 875 410 875 490.5 915.5 c 128,-1,9
 571 956 571 956 665 955 c 0,10,11
 763 953 763 953 832 911.5 c 128,-1,12
 901 870 901 870 943 803.5 c 128,-1,13
 985 737 985 737 1001 653 c 128,-1,14
 1017 569 1017 569 1009 482 c 0,15,16
 1000 380 1000 380 961.5 288 c 128,-1,17
 923 196 923 196 859 126.5 c 128,-1,18
 795 57 795 57 707 17 c 128,-1,19
 619 -23 619 -23 510 -20 c 0,20,21
 399 -17 399 -17 321.5 34 c 128,-1,22
 244 85 244 85 197 165 c 128,-1,23
 150 245 150 245 133.5 343 c 128,-1,24
 117 441 117 441 128 538 c 2,25,-1
 140 625 l 2,26,27
 156 738 156 738 187 844 c 128,-1,28
 218 950 218 950 265 1042.5 c 128,-1,29
 312 1135 312 1135 376.5 1211 c 128,-1,30
 441 1287 441 1287 524.5 1342 c 128,-1,31
 608 1397 608 1397 711.5 1427.5 c 128,-1,32
 815 1458 815 1458 940 1458 c 2,33,-1
 960 1458 l 1,0,-1
629 801 m 0,34,35
 578 803 578 803 531.5 787 c 128,-1,36
 485 771 485 771 445.5 743 c 128,-1,37
 406 715 406 715 374 677 c 128,-1,38
 342 639 342 639 319 596 c 1,39,-1
 311 532 l 2,40,41
 307 495 307 495 307 451 c 128,-1,42
 307 407 307 407 314 363.5 c 128,-1,43
 321 320 321 320 335.5 279 c 128,-1,44
 350 238 350 238 374 206 c 128,-1,45
 398 174 398 174 434 154 c 128,-1,46
 470 134 470 134 519 132 c 0,47,48
 590 130 590 130 645 159 c 128,-1,49
 700 188 700 188 739 237 c 128,-1,50
 778 286 778 286 801 348 c 128,-1,51
 824 410 824 410 831 473 c 0,52,53
 837 527 837 527 830.5 584.5 c 128,-1,54
 824 642 824 642 800.5 689.5 c 128,-1,55
 777 737 777 737 735.5 768 c 128,-1,56
 694 799 694 799 629 801 c 0,34,35
EndSplineSet
EndChar
StartChar: seven
Encoding: 55 55 25
Width: 1202
Flags: W
LayerCount: 2
Back
Fore
SplineSet
1180 1342 m 1,0,-1
 389 0 l 1,1,-1
 191 0 l 1,2,-1
 977 1294 l 1,3,-1
 216 1294 l 1,4,-1
 242 1456 l 1,5,-1
 1198 1456 l 1,6,-1
 1180 1342 l 1,0,-1
EndSplineSet
EndChar
StartChar: eight
Encoding: 56 56 26
Width: 1202
Flags: W
LayerCount: 2
Back
Fore
SplineSet
1121 1085 m 0,0,1
 1116 1024 1116 1024 1093.5 972.5 c 128,-1,2
 1071 921 1071 921 1035.5 879 c 128,-1,3
 1000 837 1000 837 954 803 c 128,-1,4
 908 769 908 769 856 744 c 1,5,6
 902 717 902 717 937.5 680 c 128,-1,7
 973 643 973 643 995.5 599 c 128,-1,8
 1018 555 1018 555 1027.5 505 c 128,-1,9
 1037 455 1037 455 1033 402 c 0,10,11
 1025 303 1025 303 981.5 223.5 c 128,-1,12
 938 144 938 144 870 89.5 c 128,-1,13
 802 35 802 35 714.5 6.5 c 128,-1,14
 627 -22 627 -22 531 -20 c 0,15,16
 442 -18 442 -18 366.5 10.5 c 128,-1,17
 291 39 291 39 237 91.5 c 128,-1,18
 183 144 183 144 155.5 218 c 128,-1,19
 128 292 128 292 136 385 c 0,20,21
 142 453 142 453 166.5 509.5 c 128,-1,22
 191 566 191 566 231 612 c 128,-1,23
 271 658 271 658 323 693.5 c 128,-1,24
 375 729 375 729 435 755 c 1,25,26
 357 809 357 809 319.5 891 c 128,-1,27
 282 973 282 973 289 1067 c 256,28,29
 296 1161 296 1161 334.5 1237.5 c 128,-1,30
 373 1314 373 1314 435.5 1368 c 128,-1,31
 498 1422 498 1422 579.5 1450 c 128,-1,32
 661 1478 661 1478 754 1476 c 0,33,34
 839 1474 839 1474 909.5 1445 c 128,-1,35
 980 1416 980 1416 1029.5 1365 c 128,-1,36
 1079 1314 1079 1314 1103.5 1243 c 128,-1,37
 1128 1172 1128 1172 1121 1085 c 0,0,1
854 406 m 0,38,39
 860 460 860 460 847.5 508.5 c 128,-1,40
 835 557 835 557 806.5 593 c 128,-1,41
 778 629 778 629 734.5 650.5 c 128,-1,42
 691 672 691 672 634 674 c 0,43,44
 571 675 571 675 516 654 c 128,-1,45
 461 633 461 633 419.5 594 c 128,-1,46
 378 555 378 555 352 502 c 128,-1,47
 326 449 326 449 319 388 c 0,48,49
 313 332 313 332 325 285 c 128,-1,50
 337 238 337 238 365.5 204 c 128,-1,51
 394 170 394 170 438 150.5 c 128,-1,52
 482 131 482 131 539 130 c 0,53,54
 601 128 601 128 655.5 148 c 128,-1,55
 710 168 710 168 752 204.5 c 128,-1,56
 794 241 794 241 821 292.5 c 128,-1,57
 848 344 848 344 854 406 c 0,38,39
938 1082 m 0,58,59
 943 1130 943 1130 932.5 1173.5 c 128,-1,60
 922 1217 922 1217 897 1250.5 c 128,-1,61
 872 1284 872 1284 833.5 1304 c 128,-1,62
 795 1324 795 1324 744 1325 c 0,63,64
 687 1326 687 1326 639 1306 c 128,-1,65
 591 1286 591 1286 555 1250.5 c 128,-1,66
 519 1215 519 1215 497 1166.5 c 128,-1,67
 475 1118 475 1118 469 1064 c 0,68,69
 464 1016 464 1016 474 972.5 c 128,-1,70
 484 929 484 929 508.5 896.5 c 128,-1,71
 533 864 533 864 571.5 844.5 c 128,-1,72
 610 825 610 825 661 824 c 0,73,74
 717 823 717 823 765.5 842.5 c 128,-1,75
 814 862 814 862 850.5 897.5 c 128,-1,76
 887 933 887 933 909.5 980.5 c 128,-1,77
 932 1028 932 1028 938 1082 c 0,58,59
EndSplineSet
EndChar
StartChar: nine
Encoding: 57 57 27
Width: 1202
Flags: W
LayerCount: 2
Back
Fore
SplineSet
286 163 m 2,0,1
 409 162 409 162 502.5 194 c 128,-1,2
 596 226 596 226 666 286.5 c 128,-1,3
 736 347 736 347 784.5 434.5 c 128,-1,4
 833 522 833 522 865 633 c 1,5,6
 802 563 802 563 721.5 524 c 128,-1,7
 641 485 641 485 545 487 c 0,8,9
 447 489 447 489 378.5 531.5 c 128,-1,10
 310 574 310 574 268 642 c 128,-1,11
 226 710 226 710 210.5 794.5 c 128,-1,12
 195 879 195 879 203 965 c 0,13,14
 213 1067 213 1067 251 1160.5 c 128,-1,15
 289 1254 289 1254 353 1325 c 128,-1,16
 417 1396 417 1396 505.5 1437 c 128,-1,17
 594 1478 594 1478 704 1476 c 0,18,19
 784 1475 784 1475 844.5 1449 c 128,-1,20
 905 1423 905 1423 949.5 1380 c 128,-1,21
 994 1337 994 1337 1022.5 1279.5 c 128,-1,22
 1051 1222 1051 1222 1066 1157.5 c 128,-1,23
 1081 1093 1081 1093 1083 1023.5 c 128,-1,24
 1085 954 1085 954 1077 887 c 2,25,-1
 1068 820 l 2,26,27
 1052 706 1052 706 1022.5 600.5 c 128,-1,28
 993 495 993 495 947.5 403.5 c 128,-1,29
 902 312 902 312 839 237.5 c 128,-1,30
 776 163 776 163 693 110 c 128,-1,31
 610 57 610 57 506.5 27.5 c 128,-1,32
 403 -2 403 -2 277 -2 c 2,33,-1
 254 -2 l 1,34,-1
 270 163 l 1,35,-1
 286 163 l 2,0,1
582 640 m 0,36,37
 634 638 634 638 681.5 655 c 128,-1,38
 729 672 729 672 769 702 c 128,-1,39
 809 732 809 732 841.5 771.5 c 128,-1,40
 874 811 874 811 897 855 c 1,41,-1
 904 914 l 2,42,43
 907 951 907 951 907 995 c 128,-1,44
 907 1039 907 1039 900.5 1084 c 128,-1,45
 894 1129 894 1129 879.5 1171.5 c 128,-1,46
 865 1214 865 1214 841 1247 c 128,-1,47
 817 1280 817 1280 781.5 1300.5 c 128,-1,48
 746 1321 746 1321 696 1323 c 0,49,50
 624 1325 624 1325 568.5 1294.5 c 128,-1,51
 513 1264 513 1264 474 1214 c 128,-1,52
 435 1164 435 1164 412 1101 c 128,-1,53
 389 1038 389 1038 382 975 c 0,54,55
 376 922 376 922 382.5 863.5 c 128,-1,56
 389 805 389 805 411.5 756 c 128,-1,57
 434 707 434 707 475.5 674.5 c 128,-1,58
 517 642 517 642 582 640 c 0,36,37
EndSplineSet
EndChar
StartChar: less
Encoding: 60 60 30
Width: 1202
Flags: W
LayerCount: 2
Back
Fore
SplineSet
416 663 m 1,0,-1
 351 643 l 1,1,-1
 389 628 l 1,2,-1
 952 388 l 1,3,-1
 919 201 l 1,4,-1
 161 580 l 1,5,-1
 187 726 l 1,6,-1
 1076 1104 l 1,7,-1
 1046 903 l 1,8,-1
 416 663 l 1,0,-1
EndSplineSet
EndChar
StartChar: equal
Encoding: 61 61 31
Width: 1202
Flags: W
LayerCount: 2
Back
Fore
SplineSet
1066 780 m 1,0,-1
 198 780 l 1,1,-1
 227 941 l 1,2,-1
 1094 941 l 1,3,-1
 1066 780 l 1,0,-1
994 365 m 1,4,-1
 126 365 l 1,5,-1
 155 525 l 1,6,-1
 1022 525 l 1,7,-1
 994 365 l 1,4,-1
EndSplineSet
EndChar
StartChar: greater
Encoding: 62 62 32
Width: 1202
Flags: W
LayerCount: 2
Back
Fore
SplineSet
226 913 m 1,0,-1
 258 1096 l 1,1,-1
 1051 717 l 1,2,-1
 1025 572 l 1,3,-1
 101 192 l 1,4,-1
 137 393 l 1,5,-1
 796 633 l 1,6,-1
 867 653 l 1,7,-1
 822 669 l 1,8,-1
 226 913 l 1,0,-1
EndSplineSet
EndChar
StartChar: question
Encoding: 63 63 33
Width: 1202
Flags: W
LayerCount: 2
Back
Fore
SplineSet
470 409 m 1,0,1
 476 472 476 472 489.5 519.5 c 128,-1,2
 503 567 503 567 525.5 607.5 c 128,-1,3
 548 648 548 648 582 684 c 128,-1,4
 616 720 616 720 664 761 c 0,5,6
 703 794 703 794 745 831 c 128,-1,7
 787 868 787 868 823.5 910 c 128,-1,8
 860 952 860 952 886 999.5 c 128,-1,9
 912 1047 912 1047 920 1101 c 0,10,11
 927 1151 927 1151 916.5 1190.5 c 128,-1,12
 906 1230 906 1230 881 1257.5 c 128,-1,13
 856 1285 856 1285 817.5 1300.5 c 128,-1,14
 779 1316 779 1316 730 1317 c 0,15,16
 680 1318 680 1318 635 1305.5 c 128,-1,17
 590 1293 590 1293 554 1268 c 128,-1,18
 518 1243 518 1243 493 1205 c 128,-1,19
 468 1167 468 1167 458 1117 c 1,20,-1
 279 1116 l 1,21,22
 289 1205 289 1205 330 1273 c 128,-1,23
 371 1341 371 1341 433.5 1386.5 c 128,-1,24
 496 1432 496 1432 575 1455 c 128,-1,25
 654 1478 654 1478 740 1476 c 0,26,27
 824 1474 824 1474 894.5 1449 c 128,-1,28
 965 1424 965 1424 1014 1377 c 128,-1,29
 1063 1330 1063 1330 1087.5 1262 c 128,-1,30
 1112 1194 1112 1194 1105 1106 c 0,31,32
 1098 1028 1098 1028 1066 963 c 128,-1,33
 1034 898 1034 898 986.5 842.5 c 128,-1,34
 939 787 939 787 882.5 738.5 c 128,-1,35
 826 690 826 690 770 645 c 0,36,37
 711 596 711 596 684.5 540 c 128,-1,38
 658 484 658 484 647 410 c 1,39,-1
 470 409 l 1,0,1
388 94 m 0,40,41
 389 143 389 143 419.5 175.5 c 128,-1,42
 450 208 450 208 500 210 c 0,43,44
 524 211 524 211 545 203 c 128,-1,45
 566 195 566 195 581 180 c 128,-1,46
 596 165 596 165 604 144.5 c 128,-1,47
 612 124 612 124 612 100 c 0,48,49
 611 51 611 51 579 20.5 c 128,-1,50
 547 -10 547 -10 499 -12 c 0,51,52
 475 -13 475 -13 454.5 -5.5 c 128,-1,53
 434 2 434 2 419 16 c 128,-1,54
 404 30 404 30 396 50 c 128,-1,55
 388 70 388 70 388 94 c 0,40,41
EndSplineSet
EndChar
StartChar: at
Encoding: 64 64 34
Width: 1202
Flags: W
LayerCount: 2
Back
Fore
SplineSet
1160 795 m 0,0,1
 1153 752 1153 752 1142 699.5 c 128,-1,2
 1131 647 1131 647 1113 593.5 c 128,-1,3
 1095 540 1095 540 1069.5 490 c 128,-1,4
 1044 440 1044 440 1009.5 401.5 c 128,-1,5
 975 363 975 363 930.5 340 c 128,-1,6
 886 317 886 317 830 318 c 0,7,8
 770 320 770 320 734.5 351.5 c 128,-1,9
 699 383 699 383 688 440 c 1,10,11
 668 416 668 416 646 394 c 128,-1,12
 624 372 624 372 599 355.5 c 128,-1,13
 574 339 574 339 545.5 329 c 128,-1,14
 517 319 517 319 484 319 c 0,15,16
 443 319 443 319 416 337.5 c 128,-1,17
 389 356 389 356 373 385.5 c 128,-1,18
 357 415 357 415 350 452.5 c 128,-1,19
 343 490 343 490 341.5 528.5 c 128,-1,20
 340 567 340 567 343.5 603 c 128,-1,21
 347 639 347 639 351 666 c 0,22,23
 359 717 359 717 374 774 c 128,-1,24
 389 831 389 831 412 886 c 128,-1,25
 435 941 435 941 467 991 c 128,-1,26
 499 1041 499 1041 540.5 1078.5 c 128,-1,27
 582 1116 582 1116 633.5 1137.5 c 128,-1,28
 685 1159 685 1159 748 1157 c 0,29,30
 857 1154 857 1154 922 1066 c 1,31,-1
 804 561 l 2,32,33
 801 543 801 543 798.5 521 c 128,-1,34
 796 499 796 499 799 479 c 128,-1,35
 802 459 802 459 813.5 445 c 128,-1,36
 825 431 825 431 851 430 c 0,37,38
 889 428 889 428 917.5 447.5 c 128,-1,39
 946 467 946 467 967.5 499 c 128,-1,40
 989 531 989 531 1004 572 c 128,-1,41
 1019 613 1019 613 1029 654 c 128,-1,42
 1039 695 1039 695 1044.5 732.5 c 128,-1,43
 1050 770 1050 770 1054 795 c 0,44,45
 1061 852 1061 852 1063 913 c 128,-1,46
 1065 974 1065 974 1057.5 1033 c 128,-1,47
 1050 1092 1050 1092 1031 1145.5 c 128,-1,48
 1012 1199 1012 1199 978 1239.5 c 128,-1,49
 944 1280 944 1280 892.5 1305 c 128,-1,50
 841 1330 841 1330 768 1332 c 0,51,52
 684 1334 684 1334 612.5 1307 c 128,-1,53
 541 1280 541 1280 482.5 1231.5 c 128,-1,54
 424 1183 424 1183 377.5 1117.5 c 128,-1,55
 331 1052 331 1052 296.5 979.5 c 128,-1,56
 262 907 262 907 239 830.5 c 128,-1,57
 216 754 216 754 204 684 c 0,58,59
 193 621 193 621 189 555 c 128,-1,60
 185 489 185 489 192 426.5 c 128,-1,61
 199 364 199 364 219 309 c 128,-1,62
 239 254 239 254 276.5 212 c 128,-1,63
 314 170 314 170 370.5 145.5 c 128,-1,64
 427 121 427 121 507 120 c 0,65,66
 570 120 570 120 629 137.5 c 128,-1,67
 688 155 688 155 742 184 c 1,68,-1
 764 65 l 1,69,70
 707 27 707 27 640 9.5 c 128,-1,71
 573 -8 573 -8 505 -7 c 0,72,73
 407 -6 407 -6 333.5 23 c 128,-1,74
 260 52 260 52 208.5 101.5 c 128,-1,75
 157 151 157 151 126 218 c 128,-1,76
 95 285 95 285 81 361.5 c 128,-1,77
 67 438 67 438 68 520.5 c 128,-1,78
 69 603 69 603 82 685 c 0,79,80
 96 770 96 770 124.5 861 c 128,-1,81
 153 952 153 952 196.5 1038.5 c 128,-1,82
 240 1125 240 1125 298 1202.5 c 128,-1,83
 356 1280 356 1280 428.5 1337.5 c 128,-1,84
 501 1395 501 1395 586.5 1427.5 c 128,-1,85
 672 1460 672 1460 772 1458 c 0,86,87
 861 1456 861 1456 928 1426.5 c 128,-1,88
 995 1397 995 1397 1041.5 1347.5 c 128,-1,89
 1088 1298 1088 1298 1116.5 1233 c 128,-1,90
 1145 1168 1145 1168 1158 1095 c 128,-1,91
 1171 1022 1171 1022 1171 945 c 128,-1,92
 1171 868 1171 868 1160 795 c 0,0,1
476 666 m 0,93,94
 474 654 474 654 471 634.5 c 128,-1,95
 468 615 468 615 466.5 591.5 c 128,-1,96
 465 568 465 568 466 544.5 c 128,-1,97
 467 521 467 521 473 501.5 c 128,-1,98
 479 482 479 482 491 469 c 128,-1,99
 503 456 503 456 523 455 c 0,100,101
 552 453 552 453 576.5 463 c 128,-1,102
 601 473 601 473 621.5 490.5 c 128,-1,103
 642 508 642 508 659.5 529.5 c 128,-1,104
 677 551 677 551 691 573 c 1,105,-1
 805 1023 l 1,106,107
 792 1028 792 1028 780 1031.5 c 128,-1,108
 768 1035 768 1035 754 1036 c 0,109,110
 707 1039 707 1039 670 1022 c 128,-1,111
 633 1005 633 1005 604 976 c 128,-1,112
 575 947 575 947 553.5 908.5 c 128,-1,113
 532 870 532 870 517 828 c 128,-1,114
 502 786 502 786 492 744 c 128,-1,115
 482 702 482 702 476 666 c 0,93,94
EndSplineSet
EndChar
StartChar: A
Encoding: 65 65 35
Width: 1202
Flags: W
LayerCount: 2
Back
Fore
SplineSet
807 377 m 1,0,-1
 338 377 l 1,1,-1
 158 0 l 1,2,-1
 -30 0 l 1,3,-1
 679 1456 l 1,4,-1
 831 1456 l 1,5,-1
 1026 0 l 1,6,-1
 853 0 l 1,7,-1
 807 377 l 1,0,-1
413 538 m 1,8,-1
 788 538 l 1,9,-1
 712 1168 l 1,10,-1
 413 538 l 1,8,-1
EndSplineSet
Substitution2: "'smcp' Lowercase to Small Capitals lookup 0 subtable" A.smcp
EndChar
StartChar: B
Encoding: 66 66 36
Width: 1202
Flags: W
LayerCount: 2
Back
Fore
SplineSet
62 0 m 1,0,-1
 315 1456 l 1,1,-1
 724 1455 l 2,2,3
 808 1452 808 1452 884.5 1427.5 c 128,-1,4
 961 1403 961 1403 1018.5 1355.5 c 128,-1,5
 1076 1308 1076 1308 1107 1238.5 c 128,-1,6
 1138 1169 1138 1169 1130 1076 c 0,7,8
 1125 1015 1125 1015 1101.5 966.5 c 128,-1,9
 1078 918 1078 918 1041.5 880 c 128,-1,10
 1005 842 1005 842 957.5 812.5 c 128,-1,11
 910 783 910 783 858 761 c 1,12,13
 910 741 910 741 948 706.5 c 128,-1,14
 986 672 986 672 1011 628.5 c 128,-1,15
 1036 585 1036 585 1046.5 534 c 128,-1,16
 1057 483 1057 483 1053 429 c 0,17,18
 1046 326 1046 326 999 246 c 128,-1,19
 952 166 952 166 879.5 111 c 128,-1,20
 807 56 807 56 715 28 c 128,-1,21
 623 0 623 0 527 0 c 2,22,-1
 62 0 l 1,0,-1
362 681 m 1,23,-1
 271 157 l 1,24,-1
 537 155 l 2,25,26
 598 156 598 156 654.5 175 c 128,-1,27
 711 194 711 194 757 228.5 c 128,-1,28
 803 263 803 263 833.5 313 c 128,-1,29
 864 363 864 363 872 426 c 0,30,31
 879 480 879 480 866.5 525.5 c 128,-1,32
 854 571 854 571 826 604.5 c 128,-1,33
 798 638 798 638 755.5 657.5 c 128,-1,34
 713 677 713 677 659 680 c 2,35,-1
 362 681 l 1,23,-1
389 835 m 1,36,-1
 629 833 l 2,37,38
 684 834 684 834 738 850 c 128,-1,39
 792 866 792 866 836 897 c 128,-1,40
 880 928 880 928 910 973 c 128,-1,41
 940 1018 940 1018 947 1077 c 0,42,43
 954 1131 954 1131 938.5 1171.5 c 128,-1,44
 923 1212 923 1212 892 1239 c 128,-1,45
 861 1266 861 1266 817.5 1280.5 c 128,-1,46
 774 1295 774 1295 725 1297 c 2,47,-1
 469 1298 l 1,48,-1
 389 835 l 1,36,-1
EndSplineSet
Substitution2: "'smcp' Lowercase to Small Capitals lookup 0 subtable" B.smcp
EndChar
StartChar: C
Encoding: 67 67 37
Width: 1202
Flags: W
LayerCount: 2
Back
Fore
SplineSet
1046 440 m 1,0,1
 1026 341 1026 341 980 255.5 c 128,-1,2
 934 170 934 170 865.5 108 c 128,-1,3
 797 46 797 46 708.5 11.5 c 128,-1,4
 620 -23 620 -23 515 -20 c 0,5,6
 429 -18 429 -18 362.5 10.5 c 128,-1,7
 296 39 296 39 247.5 86.5 c 128,-1,8
 199 134 199 134 168 197 c 128,-1,9
 137 260 137 260 120.5 331 c 128,-1,10
 104 402 104 402 102 477.5 c 128,-1,11
 100 553 100 553 110 626 c 2,12,-1
 142 829 l 2,13,14
 155 908 155 908 179.5 987 c 128,-1,15
 204 1066 204 1066 240.5 1138.5 c 128,-1,16
 277 1211 277 1211 326 1273.5 c 128,-1,17
 375 1336 375 1336 437.5 1381.5 c 128,-1,18
 500 1427 500 1427 576 1452.5 c 128,-1,19
 652 1478 652 1478 743 1476 c 0,20,21
 846 1474 846 1474 922 1436.5 c 128,-1,22
 998 1399 998 1399 1049 1336 c 128,-1,23
 1100 1273 1100 1273 1126.5 1189 c 128,-1,24
 1153 1105 1153 1105 1157 1009 c 1,25,-1
 978 1009 l 1,26,27
 975 1069 975 1069 962 1125 c 128,-1,28
 949 1181 949 1181 920.5 1225 c 128,-1,29
 892 1269 892 1269 846.5 1296.5 c 128,-1,30
 801 1324 801 1324 733 1326 c 0,31,32
 667 1328 667 1328 613.5 1307 c 128,-1,33
 560 1286 560 1286 517.5 1249.5 c 128,-1,34
 475 1213 475 1213 443.5 1163 c 128,-1,35
 412 1113 412 1113 388.5 1057.5 c 128,-1,36
 365 1002 365 1002 349.5 943.5 c 128,-1,37
 334 885 334 885 325 831 c 2,38,-1
 291 625 l 2,39,40
 284 578 284 578 281 523.5 c 128,-1,41
 278 469 278 469 283 415 c 128,-1,42
 288 361 288 361 302.5 310.5 c 128,-1,43
 317 260 317 260 345 220.5 c 128,-1,44
 373 181 373 181 417 156.5 c 128,-1,45
 461 132 461 132 524 130 c 0,46,47
 596 127 596 127 652.5 151 c 128,-1,48
 709 175 709 175 752 217 c 128,-1,49
 795 259 795 259 824.5 316 c 128,-1,50
 854 373 854 373 872 437 c 1,51,-1
 1046 440 l 1,0,1
EndSplineSet
Substitution2: "'smcp' Lowercase to Small Capitals lookup 0 subtable" C.smcp
EndChar
StartChar: D
Encoding: 68 68 38
Width: 1202
Flags: W
LayerCount: 2
Back
Fore
SplineSet
46 0 m 1,0,-1
 298 1456 l 1,1,-1
 614 1455 l 2,2,3
 758 1452 758 1452 863.5 1396.5 c 128,-1,4
 969 1341 969 1341 1034.5 1249.5 c 128,-1,5
 1100 1158 1100 1158 1124.5 1037 c 128,-1,6
 1149 916 1149 916 1132 781 c 2,7,-1
 1117 674 l 2,8,9
 1095 530 1095 530 1034.5 407 c 128,-1,10
 974 284 974 284 880 193.5 c 128,-1,11
 786 103 786 103 661 51.5 c 128,-1,12
 536 0 536 0 385 0 c 2,13,-1
 46 0 l 1,0,-1
456 1304 m 1,14,-1
 256 151 l 1,15,-1
 389 150 l 2,16,17
 506 151 506 151 599 192 c 128,-1,18
 692 233 692 233 761 303.5 c 128,-1,19
 830 374 830 374 874 469.5 c 128,-1,20
 918 565 918 565 936 674 c 2,21,-1
 952 784 l 2,22,23
 965 880 965 880 954.5 971.5 c 128,-1,24
 944 1063 944 1063 904 1135.5 c 128,-1,25
 864 1208 864 1208 792.5 1253.5 c 128,-1,26
 721 1299 721 1299 611 1303 c 2,27,-1
 456 1304 l 1,14,-1
EndSplineSet
Substitution2: "'smcp' Lowercase to Small Capitals lookup 0 subtable" D.smcp
EndChar
StartChar: E
Encoding: 69 69 39
Width: 1202
Flags: W
LayerCount: 2
Back
Fore
SplineSet
959 673 m 1,0,-1
 370 673 l 1,1,-1
 280 157 l 1,2,-1
 968 157 l 1,3,-1
 940 0 l 1,4,-1
 72 0 l 1,5,-1
 325 1456 l 1,6,-1
 1185 1456 l 1,7,-1
 1157 1298 l 1,8,-1
 478 1298 l 1,9,-1
 397 830 l 1,10,-1
 987 830 l 1,11,-1
 959 673 l 1,0,-1
EndSplineSet
Substitution2: "'smcp' Lowercase to Small Capitals lookup 0 subtable" E.smcp
EndChar
StartChar: F
Encoding: 70 70 40
Width: 1202
Flags: W
LayerCount: 2
Back
Fore
SplineSet
963 643 m 1,0,-1
 375 643 l 1,1,-1
 263 0 l 1,2,-1
 81 0 l 1,3,-1
 333 1456 l 1,4,-1
 1202 1456 l 1,5,-1
 1174 1298 l 1,6,-1
 489 1298 l 1,7,-1
 402 800 l 1,8,-1
 990 800 l 1,9,-1
 963 643 l 1,0,-1
EndSplineSet
Substitution2: "'smcp' Lowercase to Small Capitals lookup 0 subtable" F.smcp
EndChar
StartChar: G
Encoding: 71 71 41
Width: 1202
Flags: W
LayerCount: 2
Back
Fore
SplineSet
1020 191 m 1,0,1
 925 87 925 87 799.5 31.5 c 128,-1,2
 674 -24 674 -24 531 -19 c 0,3,4
 445 -16 445 -16 377 13.5 c 128,-1,5
 309 43 309 43 258.5 91.5 c 128,-1,6
 208 140 208 140 174 204.5 c 128,-1,7
 140 269 140 269 121.5 341.5 c 128,-1,8
 103 414 103 414 99.5 491.5 c 128,-1,9
 96 569 96 569 106 643 c 2,10,-1
 132 812 l 2,11,12
 145 891 145 891 170 971.5 c 128,-1,13
 195 1052 195 1052 232.5 1126.5 c 128,-1,14
 270 1201 270 1201 320 1265.5 c 128,-1,15
 370 1330 370 1330 433.5 1377.5 c 128,-1,16
 497 1425 497 1425 574 1451.5 c 128,-1,17
 651 1478 651 1478 743 1476 c 0,18,19
 841 1474 841 1474 917.5 1439 c 128,-1,20
 994 1404 994 1404 1046.5 1344 c 128,-1,21
 1099 1284 1099 1284 1127 1203 c 128,-1,22
 1155 1122 1155 1122 1157 1028 c 1,23,-1
 980 1028 l 1,24,25
 976 1085 976 1085 961 1137 c 128,-1,26
 946 1189 946 1189 917 1229 c 128,-1,27
 888 1269 888 1269 842.5 1292.5 c 128,-1,28
 797 1316 797 1316 733 1318 c 0,29,30
 666 1320 666 1320 612 1298.5 c 128,-1,31
 558 1277 558 1277 515 1239.5 c 128,-1,32
 472 1202 472 1202 438.5 1151 c 128,-1,33
 405 1100 405 1100 381 1043.5 c 128,-1,34
 357 987 357 987 340.5 928 c 128,-1,35
 324 869 324 869 315 814 c 2,36,-1
 287 642 l 2,37,38
 280 593 280 593 279 537.5 c 128,-1,39
 278 482 278 482 285.5 427.5 c 128,-1,40
 293 373 293 373 310.5 322.5 c 128,-1,41
 328 272 328 272 358.5 232.5 c 128,-1,42
 389 193 389 193 433.5 167.5 c 128,-1,43
 478 142 478 142 541 139 c 0,44,45
 626 134 626 134 705.5 156.5 c 128,-1,46
 785 179 785 179 846 242 c 1,47,-1
 903 569 l 1,48,-1
 616 569 l 1,49,-1
 643 725 l 1,50,-1
 1102 725 l 1,51,-1
 1020 191 l 1,0,1
EndSplineSet
Substitution2: "'smcp' Lowercase to Small Capitals lookup 0 subtable" G.smcp
EndChar
StartChar: H
Encoding: 72 72 42
Width: 1202
Flags: W
LayerCount: 2
Back
Fore
SplineSet
951 0 m 1,0,-1
 780 0 l 1,1,-1
 897 673 l 1,2,-1
 319 673 l 1,3,-1
 202 0 l 1,4,-1
 32 0 l 1,5,-1
 285 1456 l 1,6,-1
 455 1456 l 1,7,-1
 346 830 l 1,8,-1
 924 830 l 1,9,-1
 1033 1456 l 1,10,-1
 1204 1456 l 1,11,-1
 951 0 l 1,0,-1
EndSplineSet
Substitution2: "'smcp' Lowercase to Small Capitals lookup 0 subtable" H.smcp
EndChar
StartChar: I
Encoding: 73 73 43
Width: 1202
Flags: W
LayerCount: 2
Back
Fore
SplineSet
317 1456 m 1,0,-1
 1172 1456 l 1,1,-1
 1143 1295 l 1,2,-1
 805 1295 l 1,3,-1
 608 160 l 1,4,-1
 947 160 l 1,5,-1
 919 0 l 1,6,-1
 64 0 l 1,7,-1
 92 160 l 1,8,-1
 423 160 l 1,9,-1
 620 1295 l 1,10,-1
 288 1295 l 1,11,-1
 317 1456 l 1,0,-1
EndSplineSet
Substitution2: "'smcp' Lowercase to Small Capitals lookup 0 subtable" I.smcp
EndChar
StartChar: J
Encoding: 74 74 44
Width: 1202
Flags: W
LayerCount: 2
Back
Fore
SplineSet
979 1456 m 1,0,-1
 1164 1456 l 1,1,-1
 991 443 l 2,2,3
 976 344 976 344 930 259 c 128,-1,4
 884 174 884 174 814.5 111 c 128,-1,5
 745 48 745 48 655 13 c 128,-1,6
 565 -22 565 -22 463 -20 c 0,7,8
 366 -18 366 -18 292 16.5 c 128,-1,9
 218 51 218 51 167.5 110.5 c 128,-1,10
 117 170 117 170 90.5 250 c 128,-1,11
 64 330 64 330 63 422 c 1,12,-1
 245 421 l 1,13,14
 243 365 243 365 256 314.5 c 128,-1,15
 269 264 269 264 297 225 c 128,-1,16
 325 186 325 186 369 162 c 128,-1,17
 413 138 413 138 475 137 c 0,18,19
 541 135 541 135 596.5 159.5 c 128,-1,20
 652 184 652 184 695 226.5 c 128,-1,21
 738 269 738 269 766.5 325 c 128,-1,22
 795 381 795 381 806 443 c 2,23,-1
 979 1456 l 1,0,-1
EndSplineSet
Substitution2: "'smcp' Lowercase to Small Capitals lookup 0 subtable" J.smcp
EndChar
StartChar: K
Encoding: 75 75 45
Width: 1202
Flags: W
LayerCount: 2
Back
Fore
SplineSet
528 674 m 1,0,-1
 331 483 l 1,1,-1
 247 0 l 1,2,-1
 62 0 l 1,3,-1
 315 1456 l 1,4,-1
 500 1456 l 1,5,-1
 377 756 l 1,6,-1
 535 921 l 1,7,-1
 1042 1456 l 1,8,-1
 1276 1456 l 1,9,-1
 662 810 l 1,10,-1
 1043 0 l 1,11,-1
 836 0 l 1,12,-1
 528 674 l 1,0,-1
EndSplineSet
Substitution2: "'smcp' Lowercase to Small Capitals lookup 0 subtable" K.smcp
EndChar
StartChar: L
Encoding: 76 76 46
Width: 1202
Flags: W
LayerCount: 2
Back
Fore
SplineSet
296 157 m 1,0,-1
 987 157 l 1,1,-1
 959 0 l 1,2,-1
 88 0 l 1,3,-1
 340 1456 l 1,4,-1
 521 1456 l 1,5,-1
 296 157 l 1,0,-1
EndSplineSet
Substitution2: "'smcp' Lowercase to Small Capitals lookup 0 subtable" L.smcp
EndChar
StartChar: M
Encoding: 77 77 47
Width: 1202
Flags: W
LayerCount: 2
Back
Fore
SplineSet
511 1456 m 1,0,-1
 614 730 l 1,1,-1
 988 1456 l 1,2,-1
 1216 1456 l 1,3,-1
 964 0 l 1,4,-1
 788 0 l 1,5,-1
 890 590 l 1,6,-1
 1006 1172 l 1,7,-1
 617 405 l 1,8,-1
 512 405 l 1,9,-1
 405 1177 l 1,10,-1
 314 572 l 1,11,-1
 215 0 l 1,12,-1
 39 0 l 1,13,-1
 292 1456 l 1,14,-1
 511 1456 l 1,0,-1
EndSplineSet
Substitution2: "'smcp' Lowercase to Small Capitals lookup 0 subtable" M.smcp
EndChar
StartChar: N
Encoding: 78 78 48
Width: 1202
Flags: W
LayerCount: 2
Back
Fore
SplineSet
950 0 m 1,0,-1
 772 0 l 1,1,-1
 410 1096 l 1,2,-1
 217 0 l 1,3,-1
 34 0 l 1,4,-1
 287 1456 l 1,5,-1
 465 1456 l 1,6,-1
 827 362 l 1,7,-1
 1020 1456 l 1,8,-1
 1203 1456 l 1,9,-1
 950 0 l 1,0,-1
EndSplineSet
Substitution2: "'smcp' Lowercase to Small Capitals lookup 0 subtable" N.smcp
EndChar
StartChar: O
Encoding: 79 79 49
Width: 1202
Flags: W
LayerCount: 2
Back
Fore
SplineSet
1097 645 m 2,0,1
 1084 568 1084 568 1060.5 488.5 c 128,-1,2
 1037 409 1037 409 1001.5 334.5 c 128,-1,3
 966 260 966 260 918 194 c 128,-1,4
 870 128 870 128 808.5 80 c 128,-1,5
 747 32 747 32 671.5 5 c 128,-1,6
 596 -22 596 -22 506 -20 c 0,7,8
 420 -18 420 -18 354.5 12.5 c 128,-1,9
 289 43 289 43 242 93 c 128,-1,10
 195 143 195 143 165 209 c 128,-1,11
 135 275 135 275 120 348 c 128,-1,12
 105 421 105 421 103.5 497 c 128,-1,13
 102 573 102 573 112 644 c 2,14,-1
 138 810 l 2,15,16
 151 887 151 887 174.5 966.5 c 128,-1,17
 198 1046 198 1046 233.5 1120.5 c 128,-1,18
 269 1195 269 1195 317.5 1261 c 128,-1,19
 366 1327 366 1327 427.5 1375.5 c 128,-1,20
 489 1424 489 1424 564.5 1451 c 128,-1,21
 640 1478 640 1478 730 1476 c 0,22,23
 817 1474 817 1474 882.5 1443.5 c 128,-1,24
 948 1413 948 1413 995 1363 c 128,-1,25
 1042 1313 1042 1313 1071.5 1247 c 128,-1,26
 1101 1181 1101 1181 1115.5 1107.5 c 128,-1,27
 1130 1034 1130 1034 1131.5 957.5 c 128,-1,28
 1133 881 1133 881 1123 810 c 2,29,-1
 1097 645 l 2,0,1
944 814 m 2,30,31
 950 860 950 860 953.5 914 c 128,-1,32
 957 968 957 968 952.5 1022.5 c 128,-1,33
 948 1077 948 1077 934 1128.5 c 128,-1,34
 920 1180 920 1180 892.5 1220 c 128,-1,35
 865 1260 865 1260 822.5 1285 c 128,-1,36
 780 1310 780 1310 718 1312 c 0,37,38
 653 1314 653 1314 600.5 1292.5 c 128,-1,39
 548 1271 548 1271 506.5 1232.5 c 128,-1,40
 465 1194 465 1194 433.5 1143.5 c 128,-1,41
 402 1093 402 1093 379 1036.5 c 128,-1,42
 356 980 356 980 341 922 c 128,-1,43
 326 864 326 864 317 812 c 2,44,-1
 289 643 l 2,45,46
 283 598 283 598 280 544 c 128,-1,47
 277 490 277 490 282 435 c 128,-1,48
 287 380 287 380 301 328 c 128,-1,49
 315 276 315 276 343 235.5 c 128,-1,50
 371 195 371 195 413.5 169.5 c 128,-1,51
 456 144 456 144 518 142 c 0,52,53
 583 140 583 140 636 161.5 c 128,-1,54
 689 183 689 183 730 221.5 c 128,-1,55
 771 260 771 260 802 311 c 128,-1,56
 833 362 833 362 855.5 418.5 c 128,-1,57
 878 475 878 475 893 533 c 128,-1,58
 908 591 908 591 917 644 c 2,59,-1
 944 814 l 2,30,31
EndSplineSet
Substitution2: "'smcp' Lowercase to Small Capitals lookup 0 subtable" O.smcp
EndChar
StartChar: P
Encoding: 80 80 50
Width: 1202
Flags: W
LayerCount: 2
Back
Fore
SplineSet
363 584 m 1,0,-1
 261 0 l 1,1,-1
 81 0 l 1,2,-1
 333 1456 l 1,3,-1
 780 1455 l 2,4,5
 872 1452 872 1452 949.5 1420.5 c 128,-1,6
 1027 1389 1027 1389 1081.5 1333 c 128,-1,7
 1136 1277 1136 1277 1163.5 1199.5 c 128,-1,8
 1191 1122 1191 1122 1183 1027 c 0,9,10
 1174 922 1174 922 1128 839.5 c 128,-1,11
 1082 757 1082 757 1009.5 700 c 128,-1,12
 937 643 937 643 844.5 613 c 128,-1,13
 752 583 752 583 652 583 c 2,14,-1
 363 584 l 1,0,-1
389 736 m 1,15,-1
 657 734 l 2,16,17
 723 734 723 734 782 754.5 c 128,-1,18
 841 775 841 775 887.5 812.5 c 128,-1,19
 934 850 934 850 964.5 904 c 128,-1,20
 995 958 995 958 1003 1025 c 0,21,22
 1010 1082 1010 1082 997.5 1131.5 c 128,-1,23
 985 1181 985 1181 955.5 1218 c 128,-1,24
 926 1255 926 1255 880.5 1277.5 c 128,-1,25
 835 1300 835 1300 776 1303 c 2,26,-1
 488 1304 l 1,27,-1
 389 736 l 1,15,-1
EndSplineSet
Substitution2: "'smcp' Lowercase to Small Capitals lookup 0 subtable" P.smcp
EndChar
StartChar: Q
Encoding: 81 81 51
Width: 1202
Flags: W
LayerCount: 2
Back
Fore
SplineSet
1113 664 m 2,0,1
 1099 580 1099 580 1074 497.5 c 128,-1,2
 1049 415 1049 415 1010.5 340 c 128,-1,3
 972 265 972 265 919 199 c 128,-1,4
 866 133 866 133 796 81 c 1,5,-1
 1003 -133 l 1,6,-1
 868 -246 l 1,7,-1
 633 -3 l 1,8,9
 601 -11 601 -11 568.5 -15 c 128,-1,10
 536 -19 536 -19 503 -18 c 0,11,12
 414 -16 414 -16 347 15 c 128,-1,13
 280 46 280 46 232.5 97.5 c 128,-1,14
 185 149 185 149 155 217 c 128,-1,15
 125 285 125 285 110 360 c 128,-1,16
 95 435 95 435 94 513 c 128,-1,17
 93 591 93 591 103 663 c 2,18,-1
 123 791 l 2,19,20
 136 870 136 870 160.5 952 c 128,-1,21
 185 1034 185 1034 221.5 1110.5 c 128,-1,22
 258 1187 258 1187 307.5 1255 c 128,-1,23
 357 1323 357 1323 420.5 1372.5 c 128,-1,24
 484 1422 484 1422 561.5 1450 c 128,-1,25
 639 1478 639 1478 732 1476 c 0,26,27
 821 1474 821 1474 888.5 1442.5 c 128,-1,28
 956 1411 956 1411 1004 1359.5 c 128,-1,29
 1052 1308 1052 1308 1082 1240 c 128,-1,30
 1112 1172 1112 1172 1126.5 1096.5 c 128,-1,31
 1141 1021 1141 1021 1142 942.5 c 128,-1,32
 1143 864 1143 864 1133 791 c 2,33,-1
 1113 664 l 2,0,1
953 794 m 2,34,35
 960 842 960 842 963.5 898 c 128,-1,36
 967 954 967 954 963 1011 c 128,-1,37
 959 1068 959 1068 945 1121.5 c 128,-1,38
 931 1175 931 1175 903 1216.5 c 128,-1,39
 875 1258 875 1258 830 1284 c 128,-1,40
 785 1310 785 1310 720 1312 c 0,41,42
 652 1314 652 1314 597.5 1291.5 c 128,-1,43
 543 1269 543 1269 499.5 1229.5 c 128,-1,44
 456 1190 456 1190 423.5 1137.5 c 128,-1,45
 391 1085 391 1085 367.5 1026.5 c 128,-1,46
 344 968 344 968 328.5 908 c 128,-1,47
 313 848 313 848 304 793 c 2,48,-1
 283 662 l 2,49,50
 276 615 276 615 272.5 558.5 c 128,-1,51
 269 502 269 502 273.5 445 c 128,-1,52
 278 388 278 388 292 334.5 c 128,-1,53
 306 281 306 281 334.5 239 c 128,-1,54
 363 197 363 197 407.5 170.5 c 128,-1,55
 452 144 452 144 517 142 c 0,56,57
 586 140 586 140 641 162 c 128,-1,58
 696 184 696 184 739 223.5 c 128,-1,59
 782 263 782 263 814 316 c 128,-1,60
 846 369 846 369 869 427.5 c 128,-1,61
 892 486 892 486 907.5 546.5 c 128,-1,62
 923 607 923 607 932 663 c 2,63,-1
 953 794 l 2,34,35
EndSplineSet
Substitution2: "'smcp' Lowercase to Small Capitals lookup 0 subtable" Q.smcp
EndChar
StartChar: R
Encoding: 82 82 52
Width: 1202
Flags: W
LayerCount: 2
Back
Fore
SplineSet
640 594 m 1,0,-1
 354 594 l 1,1,-1
 251 0 l 1,2,-1
 71 0 l 1,3,-1
 324 1456 l 1,4,-1
 727 1455 l 2,5,6
 822 1452 822 1452 902 1422 c 128,-1,7
 982 1392 982 1392 1038 1337.5 c 128,-1,8
 1094 1283 1094 1283 1122.5 1204.5 c 128,-1,9
 1151 1126 1151 1126 1143 1027 c 0,10,11
 1137 952 1137 952 1109 891 c 128,-1,12
 1081 830 1081 830 1036.5 781 c 128,-1,13
 992 732 992 732 934.5 695 c 128,-1,14
 877 658 877 658 811 631 c 1,15,-1
 1006 13 l 1,16,-1
 1004 0 l 1,17,-1
 813 0 l 1,18,-1
 640 594 l 1,0,-1
380 746 m 1,19,-1
 610 744 l 2,20,21
 674 744 674 744 734 763.5 c 128,-1,22
 794 783 794 783 841.5 819.5 c 128,-1,23
 889 856 889 856 921 909 c 128,-1,24
 953 962 953 962 961 1029 c 0,25,26
 968 1090 968 1090 954.5 1139.5 c 128,-1,27
 941 1189 941 1189 909.5 1224.5 c 128,-1,28
 878 1260 878 1260 830.5 1280 c 128,-1,29
 783 1300 783 1300 723 1303 c 2,30,-1
 477 1304 l 1,31,-1
 380 746 l 1,19,-1
EndSplineSet
Substitution2: "'smcp' Lowercase to Small Capitals lookup 0 subtable" R.smcp
EndChar
StartChar: U
Encoding: 85 85 55
Width: 1202
Flags: W
LayerCount: 2
Back
Fore
SplineSet
1205 1456 m 1,0,-1
 1038 471 l 2,1,2
 1023 371 1023 371 977 281 c 128,-1,3
 931 191 931 191 861 123.5 c 128,-1,4
 791 56 791 56 700 17 c 128,-1,5
 609 -22 609 -22 503 -20 c 0,6,7
 403 -18 403 -18 326 23.5 c 128,-1,8
 249 65 249 65 198.5 132.5 c 128,-1,9
 148 200 148 200 126 287.5 c 128,-1,10
 104 375 104 375 115 469 c 1,11,-1
 285 1456 l 1,12,-1
 457 1456 l 1,13,-1
 292 469 l 2,14,15
 285 410 285 410 294 352 c 128,-1,16
 303 294 303 294 330 247 c 128,-1,17
 357 200 357 200 402.5 169.5 c 128,-1,18
 448 139 448 139 515 137 c 0,19,20
 586 135 586 135 644.5 162.5 c 128,-1,21
 703 190 703 190 746.5 237 c 128,-1,22
 790 284 790 284 818 345 c 128,-1,23
 846 406 846 406 858 470 c 2,24,-1
 1030 1456 l 1,25,-1
 1205 1456 l 1,0,-1
EndSplineSet
Substitution2: "'smcp' Lowercase to Small Capitals lookup 0 subtable" U.smcp
EndChar
StartChar: W
Encoding: 87 87 57
Width: 1202
Flags: W
LayerCount: 2
Back
Fore
SplineSet
835 396 m 1,0,-1
 1109 1456 l 1,1,-1
 1283 1456 l 1,2,-1
 883 0 l 1,3,-1
 699 0 l 1,4,-1
 690 1093 l 1,5,-1
 336 0 l 1,6,-1
 149 0 l 1,7,-1
 205 1456 l 1,8,-1
 375 1456 l 1,9,-1
 317 401 l 1,10,-1
 662 1456 l 1,11,-1
 820 1456 l 1,12,-1
 835 396 l 1,0,-1
EndSplineSet
Substitution2: "'smcp' Lowercase to Small Capitals lookup 0 subtable" W.smcp
EndChar
StartChar: X
Encoding: 88 88 58
Width: 1202
Flags: W
LayerCount: 2
Back
Fore
SplineSet
646 886 m 1,0,-1
 1039 1456 l 1,1,-1
 1262 1456 l 1,2,-1
 732 725 l 1,3,-1
 1034 0 l 1,4,-1
 833 0 l 1,5,-1
 613 581 l 1,6,-1
 209 0 l 1,7,-1
 -15 0 l 1,8,-1
 528 743 l 1,9,-1
 234 1456 l 1,10,-1
 435 1456 l 1,11,-1
 646 886 l 1,0,-1
EndSplineSet
Substitution2: "'smcp' Lowercase to Small Capitals lookup 0 subtable" X.smcp
EndChar
StartChar: Y
Encoding: 89 89 59
Width: 1202
Flags: W
LayerCount: 2
Back
Fore
SplineSet
602 726 m 1,0,-1
 1050 1456 l 1,1,-1
 1265 1456 l 1,2,-1
 660 532 l 1,3,-1
 565 0 l 1,4,-1
 397 0 l 1,5,-1
 491 554 l 1,6,-1
 212 1456 l 1,7,-1
 408 1456 l 1,8,-1
 602 726 l 1,0,-1
EndSplineSet
Substitution2: "'smcp' Lowercase to Small Capitals lookup 0 subtable" Y.smcp
EndChar
StartChar: Z
Encoding: 90 90 60
Width: 1202
Flags: W
LayerCount: 2
Back
Fore
SplineSet
252 157 m 1,0,-1
 979 157 l 1,1,-1
 954 0 l 1,2,-1
 19 0 l 1,3,-1
 40 153 l 1,4,-1
 917 1298 l 1,5,-1
 231 1298 l 1,6,-1
 257 1456 l 1,7,-1
 1153 1456 l 1,8,-1
 1132 1306 l 1,9,-1
 252 157 l 1,0,-1
EndSplineSet
Substitution2: "'smcp' Lowercase to Small Capitals lookup 0 subtable" Z.smcp
EndChar
StartChar: bracketleft
Encoding: 91 91 61
Width: 1202
Flags: W
LayerCount: 2
Back
Fore
SplineSet
940 1512 m 1,0,-1
 726 1512 l 1,1,-1
 465 -160 l 1,2,-1
 680 -160 l 1,3,-1
 656 -312 l 1,4,-1
 270 -312 l 1,5,-1
 579 1664 l 1,6,-1
 965 1664 l 1,7,-1
 940 1512 l 1,0,-1
EndSplineSet
EndChar
StartChar: backslash
Encoding: 92 92 62
Width: 1202
Flags: W
LayerCount: 2
Back
Fore
SplineSet
376 1456 m 1,0,-1
 531 1456 l 1,1,-1
 847 -125 l 1,2,-1
 692 -125 l 1,3,-1
 376 1456 l 1,0,-1
EndSplineSet
EndChar
StartChar: bracketright
Encoding: 93 93 63
Width: 1202
Flags: W
LayerCount: 2
Back
Fore
SplineSet
559 1664 m 1,0,-1
 945 1664 l 1,1,-1
 636 -312 l 1,2,-1
 250 -312 l 1,3,-1
 274 -160 l 1,4,-1
 489 -160 l 1,5,-1
 750 1512 l 1,6,-1
 535 1512 l 1,7,-1
 559 1664 l 1,0,-1
EndSplineSet
EndChar
StartChar: asciicircum
Encoding: 94 94 64
Width: 1202
Flags: W
LayerCount: 2
Back
Fore
SplineSet
409 677 m 1,0,-1
 232 677 l 1,1,-1
 678 1456 l 1,2,-1
 803 1456 l 1,3,-1
 977 677 l 1,4,-1
 819 677 l 1,5,-1
 711 1163 l 1,6,-1
 710 1232 l 1,7,-1
 682 1162 l 1,8,-1
 409 677 l 1,0,-1
EndSplineSet
EndChar
StartChar: underscore
Encoding: 95 95 65
Width: 1202
Flags: W
LayerCount: 2
Back
Fore
SplineSet
910 -151 m 1,0,-1
 20 -151 l 1,1,-1
 46 0 l 1,2,-1
 937 0 l 1,3,-1
 910 -151 l 1,0,-1
EndSplineSet
EndChar
StartChar: grave
Encoding: 96 96 66
Width: 1202
Flags: W
LayerCount: 2
Back
Fore
SplineSet
880 1215 m 1,0,-1
 746 1215 l 1,1,-1
 547 1481 l 1,2,-1
 751 1481 l 1,3,-1
 880 1215 l 1,0,-1
EndSplineSet
EndChar
StartChar: a
Encoding: 97 97 67
Width: 1202
Flags: W
LayerCount: 2
Back
Fore
SplineSet
764 0 m 1,0,1
 756 30 756 30 756 59 c 128,-1,2
 756 88 756 88 759 118 c 1,3,4
 688 55 688 55 604.5 17 c 128,-1,5
 521 -21 521 -21 424 -19 c 0,6,7
 356 -18 356 -18 295.5 4 c 128,-1,8
 235 26 235 26 190.5 66 c 128,-1,9
 146 106 146 106 121.5 163 c 128,-1,10
 97 220 97 220 101 292 c 0,11,12
 105 362 105 362 129.5 416 c 128,-1,13
 154 470 154 470 193 510.5 c 128,-1,14
 232 551 232 551 283 579 c 128,-1,15
 334 607 334 607 391.5 624.5 c 128,-1,16
 449 642 449 642 510.5 649.5 c 128,-1,17
 572 657 572 657 632 657 c 2,18,-1
 838 656 l 1,19,-1
 851 742 l 2,20,21
 857 793 857 793 843.5 832 c 128,-1,22
 830 871 830 871 802 898 c 128,-1,23
 774 925 774 925 733.5 939 c 128,-1,24
 693 953 693 953 644 954 c 0,25,26
 601 955 601 955 559.5 945 c 128,-1,27
 518 935 518 935 483.5 914 c 128,-1,28
 449 893 449 893 424 860.5 c 128,-1,29
 399 828 399 828 389 783 c 1,30,-1
 208 782 l 1,31,32
 217 864 217 864 261 924.5 c 128,-1,33
 305 985 305 985 369.5 1025 c 128,-1,34
 434 1065 434 1065 511 1084.5 c 128,-1,35
 588 1104 588 1104 662 1103 c 0,36,37
 744 1101 744 1101 815 1077 c 128,-1,38
 886 1053 886 1053 936.5 1006.5 c 128,-1,39
 987 960 987 960 1013 893 c 128,-1,40
 1039 826 1039 826 1030 739 c 1,41,-1
 946 236 l 2,42,43
 937 181 937 181 936.5 126 c 128,-1,44
 936 71 936 71 949 17 c 1,45,-1
 947 0 l 1,46,-1
 764 0 l 1,0,1
459 140 m 0,47,48
 555 138 555 138 638 183.5 c 128,-1,49
 721 229 721 229 777 305 c 1,50,-1
 816 525 l 1,51,-1
 661 526 l 2,52,53
 606 526 606 526 543.5 519 c 128,-1,54
 481 512 481 512 426 490 c 128,-1,55
 371 468 371 468 332 427 c 128,-1,56
 293 386 293 386 285 319 c 0,57,58
 280 276 280 276 291 243 c 128,-1,59
 302 210 302 210 326 187.5 c 128,-1,60
 350 165 350 165 384 153 c 128,-1,61
 418 141 418 141 459 140 c 0,47,48
EndSplineSet
Substitution2: "'smcp' Lowercase to Small Capitals lookup 0 subtable" A.smcp
EndChar
StartChar: b
Encoding: 98 98 68
Width: 1202
Flags: W
LayerCount: 2
Back
Fore
SplineSet
1047 535 m 2,0,1
 1038 468 1038 468 1019.5 400.5 c 128,-1,2
 1001 333 1001 333 972 271 c 128,-1,3
 943 209 943 209 903 155 c 128,-1,4
 863 101 863 101 811 61 c 128,-1,5
 759 21 759 21 695 -1 c 128,-1,6
 631 -23 631 -23 554 -21 c 0,7,8
 466 -19 466 -19 392 15.5 c 128,-1,9
 318 50 318 50 269 124 c 1,10,-1
 233 0 l 1,11,-1
 65 0 l 1,12,-1
 332 1536 l 1,13,-1
 513 1536 l 1,14,-1
 405 965 l 1,15,16
 467 1034 467 1034 544 1069 c 128,-1,17
 621 1104 621 1104 715 1102 c 0,18,19
 788 1100 788 1100 843.5 1076 c 128,-1,20
 899 1052 899 1052 938.5 1011.5 c 128,-1,21
 978 971 978 971 1002.5 918 c 128,-1,22
 1027 865 1027 865 1039.5 804.5 c 128,-1,23
 1052 744 1052 744 1054 680.5 c 128,-1,24
 1056 617 1056 617 1049 556 c 2,25,-1
 1047 535 l 2,0,1
869 557 m 2,26,27
 876 618 876 618 873.5 685.5 c 128,-1,28
 871 753 871 753 850 810 c 128,-1,29
 829 867 829 867 784 905 c 128,-1,30
 739 943 739 943 661 945 c 0,31,32
 614 946 614 946 574 934 c 128,-1,33
 534 922 534 922 499.5 899.5 c 128,-1,34
 465 877 465 877 435.5 846 c 128,-1,35
 406 815 406 815 381 779 c 1,36,-1
 299 303 l 1,37,38
 326 228 326 228 381 183 c 128,-1,39
 436 138 436 138 519 136 c 256,40,41
 602 134 602 134 663 169.5 c 128,-1,42
 724 205 724 205 766 263 c 128,-1,43
 808 321 808 321 832 393 c 128,-1,44
 856 465 856 465 866 536 c 2,45,-1
 869 557 l 2,26,27
EndSplineSet
Substitution2: "'smcp' Lowercase to Small Capitals lookup 0 subtable" B.smcp
EndChar
StartChar: c
Encoding: 99 99 69
Width: 1202
Flags: W
LayerCount: 2
Back
Fore
SplineSet
533 129 m 0,0,1
 582 128 582 128 630 142.5 c 128,-1,2
 678 157 678 157 717.5 184.5 c 128,-1,3
 757 212 757 212 785 251.5 c 128,-1,4
 813 291 813 291 824 340 c 1,5,-1
 995 341 l 1,6,7
 986 258 986 258 941 190.5 c 128,-1,8
 896 123 896 123 830 75.5 c 128,-1,9
 764 28 764 28 684 2.5 c 128,-1,10
 604 -23 604 -23 525 -21 c 0,11,12
 411 -18 411 -18 331 28 c 128,-1,13
 251 74 251 74 202 148.5 c 128,-1,14
 153 223 153 223 135 319 c 128,-1,15
 117 415 117 415 127 517 c 2,16,-1
 132 560 l 2,17,18
 141 633 141 633 164 702 c 128,-1,19
 187 771 187 771 222.5 832 c 128,-1,20
 258 893 258 893 305.5 943.5 c 128,-1,21
 353 994 353 994 412 1030 c 128,-1,22
 471 1066 471 1066 540 1085 c 128,-1,23
 609 1104 609 1104 687 1102 c 0,24,25
 771 1100 771 1100 842 1070 c 128,-1,26
 913 1040 913 1040 963.5 988.5 c 128,-1,27
 1014 937 1014 937 1041 865.5 c 128,-1,28
 1068 794 1068 794 1064 709 c 1,29,-1
 894 710 l 1,30,31
 896 760 896 760 882 803 c 128,-1,32
 868 846 868 846 839.5 878.5 c 128,-1,33
 811 911 811 911 770 930 c 128,-1,34
 729 949 729 949 677 951 c 0,35,36
 594 954 594 954 530.5 920.5 c 128,-1,37
 467 887 467 887 422 831 c 128,-1,38
 377 775 377 775 349.5 704 c 128,-1,39
 322 633 322 633 312 560 c 2,40,-1
 307 518 l 2,41,42
 302 475 302 475 302 430 c 128,-1,43
 302 385 302 385 309.5 342.5 c 128,-1,44
 317 300 317 300 333 261.5 c 128,-1,45
 349 223 349 223 376 194.5 c 128,-1,46
 403 166 403 166 441.5 148 c 128,-1,47
 480 130 480 130 533 129 c 0,0,1
EndSplineSet
Substitution2: "'smcp' Lowercase to Small Capitals lookup 0 subtable" C.smcp
EndChar
StartChar: d
Encoding: 100 100 70
Width: 1202
Flags: W
LayerCount: 2
Back
Fore
SplineSet
126 543 m 2,0,1
 134 610 134 610 153 678 c 128,-1,2
 172 746 172 746 202 809 c 128,-1,3
 232 872 232 872 273.5 926 c 128,-1,4
 315 980 315 980 367.5 1020 c 128,-1,5
 420 1060 420 1060 485 1082 c 128,-1,6
 550 1104 550 1104 627 1102 c 0,7,8
 708 1100 708 1100 778 1070 c 128,-1,9
 848 1040 848 1040 899 974 c 1,10,-1
 1003 1536 l 1,11,-1
 1184 1536 l 1,12,-1
 917 0 l 1,13,-1
 753 0 l 1,14,-1
 772 114 l 1,15,16
 709 47 709 47 631.5 12.5 c 128,-1,17
 554 -22 554 -22 461 -20 c 0,18,19
 391 -18 391 -18 336.5 6.5 c 128,-1,20
 282 31 282 31 242.5 72 c 128,-1,21
 203 113 203 113 177.5 166.5 c 128,-1,22
 152 220 152 220 138 279.5 c 128,-1,23
 124 339 124 339 121 401 c 128,-1,24
 118 463 118 463 124 522 c 2,25,-1
 126 543 l 2,0,1
304 522 m 2,26,27
 299 482 299 482 299 438 c 128,-1,28
 299 394 299 394 305.5 351.5 c 128,-1,29
 312 309 312 309 326 271 c 128,-1,30
 340 233 340 233 365 203.5 c 128,-1,31
 390 174 390 174 427 156 c 128,-1,32
 464 138 464 138 515 137 c 0,33,34
 604 134 604 134 670.5 178 c 128,-1,35
 737 222 737 222 787 291 c 1,36,-1
 874 796 l 1,37,38
 845 865 845 865 791.5 904.5 c 128,-1,39
 738 944 738 944 661 946 c 0,40,41
 577 949 577 949 515 913 c 128,-1,42
 453 877 453 877 410 818.5 c 128,-1,43
 367 760 367 760 341.5 687.5 c 128,-1,44
 316 615 316 615 307 543 c 2,45,-1
 304 522 l 2,26,27
EndSplineSet
Substitution2: "'smcp' Lowercase to Small Capitals lookup 0 subtable" D.smcp
EndChar
StartChar: e
Encoding: 101 101 71
Width: 1202
Flags: W
LayerCount: 2
Back
Fore
SplineSet
540 -20 m 0,0,1
 430 -18 430 -18 346.5 25 c 128,-1,2
 263 68 263 68 209 139 c 128,-1,3
 155 210 155 210 131.5 303 c 128,-1,4
 108 396 108 396 117 500 c 2,5,-1
 122 543 l 2,6,7
 130 614 130 614 153 683.5 c 128,-1,8
 176 753 176 753 212.5 816 c 128,-1,9
 249 879 249 879 297.5 932 c 128,-1,10
 346 985 346 985 405.5 1023.5 c 128,-1,11
 465 1062 465 1062 534.5 1083 c 128,-1,12
 604 1104 604 1104 681 1102 c 0,13,14
 793 1099 793 1099 870 1053.5 c 128,-1,15
 947 1008 947 1008 992 934 c 128,-1,16
 1037 860 1037 860 1052 765.5 c 128,-1,17
 1067 671 1067 671 1054 571 c 2,18,-1
 1041 488 l 1,19,-1
 296 488 l 1,20,21
 288 422 288 422 300.5 359 c 128,-1,22
 313 296 313 296 345 246 c 128,-1,23
 377 196 377 196 430 165 c 128,-1,24
 483 134 483 134 556 132 c 0,25,26
 650 129 650 129 729.5 169 c 128,-1,27
 809 209 809 209 873 275 c 1,28,-1
 977 187 l 1,29,30
 940 135 940 135 890.5 95.5 c 128,-1,31
 841 56 841 56 784 30 c 128,-1,32
 727 4 727 4 665 -8.5 c 128,-1,33
 603 -21 603 -21 540 -20 c 0,0,1
672 950 m 0,34,35
 602 953 602 953 546 926.5 c 128,-1,36
 490 900 490 900 446.5 856 c 128,-1,37
 403 812 403 812 371 755 c 128,-1,38
 339 698 339 698 318 640 c 1,39,-1
 882 638 l 1,40,-1
 886 656 l 2,41,42
 895 711 895 711 885 763 c 128,-1,43
 875 815 875 815 847 856 c 128,-1,44
 819 897 819 897 775 922.5 c 128,-1,45
 731 948 731 948 672 950 c 0,34,35
EndSplineSet
Substitution2: "'smcp' Lowercase to Small Capitals lookup 0 subtable" E.smcp
EndChar
StartChar: f
Encoding: 102 102 72
Width: 1203
Flags: W
LayerCount: 2
Back
Fore
SplineSet
332 0 m 1,0,-1
 495 939 l 1,1,-1
 205 939 l 1,2,-1
 231 1082 l 1,3,-1
 519 1082 l 1,4,-1
 530 1158 l 2,5,6
 543 1254 543 1254 581.5 1332.5 c 128,-1,7
 620 1411 620 1411 680.5 1466.5 c 128,-1,8
 741 1522 741 1522 822.5 1551.5 c 128,-1,9
 904 1581 904 1581 1004 1580 c 0,10,11
 1069 1579 1069 1579 1131.5 1567 c 128,-1,12
 1194 1555 1194 1555 1257 1539 c 1,13,-1
 1220 1387 l 1,14,15
 1171 1404 1171 1404 1120.5 1414 c 128,-1,16
 1070 1424 1070 1424 1018 1425 c 0,17,18
 953 1426 953 1426 901 1408 c 128,-1,19
 849 1390 849 1390 810 1355.5 c 128,-1,20
 771 1321 771 1321 746.5 1271.5 c 128,-1,21
 722 1222 722 1222 712 1159 c 2,22,-1
 701 1082 l 1,23,-1
 1106 1082 l 1,24,-1
 1081 939 l 1,25,-1
 677 939 l 1,26,-1
 514 0 l 1,27,-1
 332 0 l 1,0,-1
EndSplineSet
Substitution2: "'smcp' Lowercase to Small Capitals lookup 0 subtable" F.smcp
EndChar
StartChar: g
Encoding: 103 103 73
Width: 1202
Flags: W
LayerCount: 2
Back
Fore
SplineSet
127 543 m 2,0,1
 136 610 136 610 154.5 678.5 c 128,-1,2
 173 747 173 747 203 810 c 128,-1,3
 233 873 233 873 273.5 927 c 128,-1,4
 314 981 314 981 367 1021 c 128,-1,5
 420 1061 420 1061 484.5 1083 c 128,-1,6
 549 1105 549 1105 627 1103 c 0,7,8
 712 1101 712 1101 784.5 1067.5 c 128,-1,9
 857 1034 857 1034 905 963 c 1,10,-1
 940 1082 l 1,11,-1
 1106 1082 l 1,12,-1
 926 23 l 2,13,14
 912 -78 912 -78 869.5 -162 c 128,-1,15
 827 -246 827 -246 760.5 -305.5 c 128,-1,16
 694 -365 694 -365 606.5 -397.5 c 128,-1,17
 519 -430 519 -430 414 -427 c 0,18,19
 360 -426 360 -426 307 -413 c 128,-1,20
 254 -400 254 -400 206 -376 c 128,-1,21
 158 -352 158 -352 117 -317.5 c 128,-1,22
 76 -283 76 -283 45 -238 c 1,23,-1
 148 -127 l 1,24,25
 195 -194 195 -194 259.5 -234 c 128,-1,26
 324 -274 324 -274 408 -276 c 0,27,28
 477 -278 477 -278 533.5 -257.5 c 128,-1,29
 590 -237 590 -237 632.5 -199 c 128,-1,30
 675 -161 675 -161 703.5 -107 c 128,-1,31
 732 -53 732 -53 745 12 c 2,32,-1
 765 107 l 1,33,34
 702 44 702 44 627 11 c 128,-1,35
 552 -22 552 -22 461 -20 c 0,36,37
 390 -18 390 -18 335.5 6.5 c 128,-1,38
 281 31 281 31 241.5 71.5 c 128,-1,39
 202 112 202 112 176.5 165.5 c 128,-1,40
 151 219 151 219 137.5 278.5 c 128,-1,41
 124 338 124 338 121 400.5 c 128,-1,42
 118 463 118 463 125 522 c 2,43,-1
 127 543 l 2,0,1
305 522 m 2,44,45
 300 482 300 482 300 438 c 128,-1,46
 300 394 300 394 306 352 c 128,-1,47
 312 310 312 310 326.5 271.5 c 128,-1,48
 341 233 341 233 366 203.5 c 128,-1,49
 391 174 391 174 427.5 156 c 128,-1,50
 464 138 464 138 516 136 c 0,51,52
 606 134 606 134 672.5 178.5 c 128,-1,53
 739 223 739 223 789 294 c 1,54,-1
 874 793 l 1,55,56
 846 864 846 864 792.5 904 c 128,-1,57
 739 944 739 944 661 946 c 0,58,59
 577 949 577 949 515 913 c 128,-1,60
 453 877 453 877 410.5 818.5 c 128,-1,61
 368 760 368 760 343 687.5 c 128,-1,62
 318 615 318 615 308 543 c 2,63,-1
 305 522 l 2,44,45
EndSplineSet
Substitution2: "'smcp' Lowercase to Small Capitals lookup 0 subtable" G.smcp
EndChar
StartChar: h
Encoding: 104 104 74
Width: 1202
Flags: W
LayerCount: 2
Back
Fore
SplineSet
396 920 m 1,0,1
 429 960 429 960 467.5 994 c 128,-1,2
 506 1028 506 1028 549.5 1052 c 128,-1,3
 593 1076 593 1076 641.5 1089.5 c 128,-1,4
 690 1103 690 1103 744 1102 c 0,5,6
 836 1100 836 1100 898 1065 c 128,-1,7
 960 1030 960 1030 996 972 c 128,-1,8
 1032 914 1032 914 1044 838.5 c 128,-1,9
 1056 763 1056 763 1047 681 c 1,10,-1
 933 0 l 1,11,-1
 752 0 l 1,12,-1
 867 684 l 2,13,14
 873 737 873 737 867 783.5 c 128,-1,15
 861 830 861 830 839 865.5 c 128,-1,16
 817 901 817 901 778.5 921.5 c 128,-1,17
 740 942 740 942 681 944 c 0,18,19
 635 945 635 945 593.5 933.5 c 128,-1,20
 552 922 552 922 514.5 900.5 c 128,-1,21
 477 879 477 879 443.5 850 c 128,-1,22
 410 821 410 821 382 787 c 1,23,-1
 245 0 l 1,24,-1
 64 0 l 1,25,-1
 331 1536 l 1,26,-1
 512 1536 l 1,27,-1
 396 920 l 1,0,1
EndSplineSet
Substitution2: "'smcp' Lowercase to Small Capitals lookup 0 subtable" H.smcp
EndChar
StartChar: i
Encoding: 105 105 75
Width: 1202
Flags: W
LayerCount: 2
Back
Fore
SplineSet
280 1082 m 1,0,-1
 818 1082 l 1,1,-1
 658 160 l 1,2,-1
 1001 160 l 1,3,-1
 972 0 l 1,4,-1
 92 0 l 1,5,-1
 121 160 l 1,6,-1
 477 160 l 1,7,-1
 609 921 l 1,8,-1
 252 921 l 1,9,-1
 280 1082 l 1,0,-1
663 1363 m 0,10,11
 664 1411 664 1411 694 1442.5 c 128,-1,12
 724 1474 724 1474 772 1476 c 0,13,14
 796 1477 796 1477 815.5 1469 c 128,-1,15
 835 1461 835 1461 849.5 1447 c 128,-1,16
 864 1433 864 1433 871.5 1413 c 128,-1,17
 879 1393 879 1393 879 1369 c 0,18,19
 879 1321 879 1321 849 1291.5 c 128,-1,20
 819 1262 819 1262 771 1260 c 0,21,22
 724 1258 724 1258 693.5 1286.5 c 128,-1,23
 663 1315 663 1315 663 1363 c 0,10,11
EndSplineSet
Substitution2: "'smcp' Lowercase to Small Capitals lookup 0 subtable" I.smcp
EndChar
StartChar: j
Encoding: 106 106 76
Width: 1202
Flags: W
LayerCount: 2
Back
Fore
SplineSet
373 1082 m 1,0,-1
 904 1082 l 1,1,-1
 719 -7 l 2,2,3
 705 -105 705 -105 667 -185 c 128,-1,4
 629 -265 629 -265 569 -321.5 c 128,-1,5
 509 -378 509 -378 427.5 -408.5 c 128,-1,6
 346 -439 346 -439 245 -439 c 0,7,8
 191 -439 191 -439 139.5 -434.5 c 128,-1,9
 88 -430 88 -430 35 -422 c 1,10,-1
 61 -268 l 1,11,12
 106 -276 106 -276 150.5 -279.5 c 128,-1,13
 195 -283 195 -283 240 -284 c 0,14,15
 305 -285 305 -285 356.5 -265 c 128,-1,16
 408 -245 408 -245 445 -208.5 c 128,-1,17
 482 -172 482 -172 505.5 -121 c 128,-1,18
 529 -70 529 -70 538 -8 c 2,19,-1
 696 921 l 1,20,-1
 345 921 l 1,21,-1
 373 1082 l 1,0,-1
748 1364 m 0,22,23
 748 1412 748 1412 777.5 1443 c 128,-1,24
 807 1474 807 1474 855 1476 c 0,25,26
 879 1477 879 1477 899 1469.5 c 128,-1,27
 919 1462 919 1462 933.5 1447.5 c 128,-1,28
 948 1433 948 1433 956 1413.5 c 128,-1,29
 964 1394 964 1394 964 1370 c 0,30,31
 963 1322 963 1322 933 1292 c 128,-1,32
 903 1262 903 1262 855 1260 c 256,33,34
 807 1258 807 1258 777 1287 c 128,-1,35
 747 1316 747 1316 748 1364 c 0,22,23
EndSplineSet
Substitution2: "'smcp' Lowercase to Small Capitals lookup 0 subtable" J.smcp
EndChar
StartChar: k
Encoding: 107 107 77
Width: 1202
Flags: W
LayerCount: 2
Back
Fore
SplineSet
474 503 m 1,0,-1
 311 366 l 1,1,-1
 248 0 l 1,2,-1
 66 0 l 1,3,-1
 333 1536 l 1,4,-1
 515 1536 l 1,5,-1
 353 606 l 1,6,-1
 486 729 l 1,7,-1
 888 1082 l 1,8,-1
 1124 1082 l 1,9,-1
 610 622 l 1,10,-1
 986 0 l 1,11,-1
 771 0 l 1,12,-1
 474 503 l 1,0,-1
EndSplineSet
Substitution2: "'smcp' Lowercase to Small Capitals lookup 0 subtable" K.smcp
EndChar
StartChar: l
Encoding: 108 108 78
Width: 1202
Flags: W
LayerCount: 2
Back
Fore
SplineSet
359 1536 m 1,0,-1
 897 1536 l 1,1,-1
 658 160 l 1,2,-1
 1001 160 l 1,3,-1
 972 0 l 1,4,-1
 92 0 l 1,5,-1
 121 160 l 1,6,-1
 477 160 l 1,7,-1
 688 1375 l 1,8,-1
 330 1375 l 1,9,-1
 359 1536 l 1,0,-1
EndSplineSet
Substitution2: "'smcp' Lowercase to Small Capitals lookup 0 subtable" L.smcp
EndChar
StartChar: m
Encoding: 109 109 79
Width: 1202
Flags: W
LayerCount: 2
Back
Fore
SplineSet
334 1083 m 1,0,-1
 314 980 l 1,1,2
 356 1037 356 1037 410 1070 c 128,-1,3
 464 1103 464 1103 536 1102 c 0,4,5
 567 1102 567 1102 595 1095.5 c 128,-1,6
 623 1089 623 1089 646.5 1075 c 128,-1,7
 670 1061 670 1061 687.5 1039 c 128,-1,8
 705 1017 705 1017 714 987 c 1,9,10
 756 1039 756 1039 809 1070.5 c 128,-1,11
 862 1102 862 1102 932 1102 c 0,12,13
 995 1101 995 1101 1037 1076 c 128,-1,14
 1079 1051 1079 1051 1102.5 1009.5 c 128,-1,15
 1126 968 1126 968 1133.5 915.5 c 128,-1,16
 1141 863 1141 863 1136 808 c 1,17,-1
 1001 0 l 1,18,-1
 829 0 l 1,19,-1
 965 811 l 2,20,21
 968 839 968 839 965 863.5 c 128,-1,22
 962 888 962 888 951.5 906.5 c 128,-1,23
 941 925 941 925 920.5 935.5 c 128,-1,24
 900 946 900 946 869 946 c 0,25,26
 815 946 815 946 775 916 c 128,-1,27
 735 886 735 886 721 834 c 1,28,-1
 579 0 l 1,29,-1
 407 0 l 1,30,-1
 544 812 l 2,31,32
 547 839 547 839 544.5 862.5 c 128,-1,33
 542 886 542 886 531.5 904 c 128,-1,34
 521 922 521 922 502 933 c 128,-1,35
 483 944 483 944 453 945 c 0,36,37
 403 946 403 946 368 924.5 c 128,-1,38
 333 903 333 903 307 862 c 1,39,-1
 158 0 l 1,40,-1
 -14 0 l 1,41,-1
 173 1082 l 1,42,-1
 334 1083 l 1,0,-1
EndSplineSet
Substitution2: "'smcp' Lowercase to Small Capitals lookup 0 subtable" M.smcp
EndChar
StartChar: n
Encoding: 110 110 80
Width: 1202
Flags: W
LayerCount: 2
Back
Fore
SplineSet
413 1083 m 1,0,-1
 390 922 l 1,1,2
 423 962 423 962 462 996 c 128,-1,3
 501 1030 501 1030 545 1054 c 128,-1,4
 589 1078 589 1078 638 1090.5 c 128,-1,5
 687 1103 687 1103 741 1102 c 0,6,7
 832 1100 832 1100 894 1066 c 128,-1,8
 956 1032 956 1032 992.5 975.5 c 128,-1,9
 1029 919 1029 919 1041.5 844 c 128,-1,10
 1054 769 1054 769 1045 687 c 1,11,-1
 930 0 l 1,12,-1
 749 0 l 1,13,-1
 864 684 l 2,14,15
 870 739 870 739 864.5 786 c 128,-1,16
 859 833 859 833 837.5 868 c 128,-1,17
 816 903 816 903 777 923.5 c 128,-1,18
 738 944 738 944 678 945 c 0,19,20
 631 946 631 946 588.5 933.5 c 128,-1,21
 546 921 546 921 509 898.5 c 128,-1,22
 472 876 472 876 439.5 844.5 c 128,-1,23
 407 813 407 813 380 777 c 1,24,-1
 245 0 l 1,25,-1
 64 0 l 1,26,-1
 252 1082 l 1,27,-1
 413 1083 l 1,0,-1
EndSplineSet
Substitution2: "'smcp' Lowercase to Small Capitals lookup 0 subtable" N.smcp
EndChar
StartChar: o
Encoding: 111 111 81
Width: 1202
Flags: W
LayerCount: 2
Back
Fore
SplineSet
110 544 m 2,0,1
 119 617 119 617 141.5 687.5 c 128,-1,2
 164 758 164 758 199 820.5 c 128,-1,3
 234 883 234 883 281.5 935.5 c 128,-1,4
 329 988 329 988 387.5 1025.5 c 128,-1,5
 446 1063 446 1063 515.5 1083.5 c 128,-1,6
 585 1104 585 1104 665 1102 c 0,7,8
 779 1099 779 1099 859.5 1051.5 c 128,-1,9
 940 1004 940 1004 989 927.5 c 128,-1,10
 1038 851 1038 851 1056.5 753.5 c 128,-1,11
 1075 656 1075 656 1064 554 c 2,12,-1
 1062 531 l 1,13,14
 1048 422 1048 422 1003.5 321 c 128,-1,15
 959 220 959 220 888 143.5 c 128,-1,16
 817 67 817 67 720.5 22 c 128,-1,17
 624 -23 624 -23 506 -20 c 0,18,19
 393 -17 393 -17 312.5 29.5 c 128,-1,20
 232 76 232 76 183 152 c 128,-1,21
 134 228 134 228 115 324 c 128,-1,22
 96 420 96 420 107 522 c 2,23,-1
 110 544 l 2,0,1
288 522 m 2,24,25
 283 480 283 480 283.5 435 c 128,-1,26
 284 390 284 390 291.5 347 c 128,-1,27
 299 304 299 304 315 265 c 128,-1,28
 331 226 331 226 358 196.5 c 128,-1,29
 385 167 385 167 423.5 149 c 128,-1,30
 462 131 462 131 514 129 c 0,31,32
 597 126 597 126 661 162 c 128,-1,33
 725 198 725 198 770.5 256 c 128,-1,34
 816 314 816 314 843 386.5 c 128,-1,35
 870 459 870 459 881 531 c 1,36,-1
 883 553 l 2,37,38
 890 616 890 616 885.5 685 c 128,-1,39
 881 754 881 754 856 812.5 c 128,-1,40
 831 871 831 871 783 909.5 c 128,-1,41
 735 948 735 948 657 951 c 0,42,43
 573 954 573 954 509 917.5 c 128,-1,44
 445 881 445 881 400 822 c 128,-1,45
 355 763 355 763 328 689.5 c 128,-1,46
 301 616 301 616 291 544 c 2,47,-1
 288 522 l 2,24,25
EndSplineSet
Substitution2: "'smcp' Lowercase to Small Capitals lookup 0 subtable" O.smcp
EndChar
StartChar: p
Encoding: 112 112 82
Width: 1202
Flags: W
LayerCount: 2
Back
Fore
SplineSet
1043 536 m 2,0,1
 1031 436 1031 436 995.5 335.5 c 128,-1,2
 960 235 960 235 899.5 155 c 128,-1,3
 839 75 839 75 752 26 c 128,-1,4
 665 -23 665 -23 550 -21 c 0,5,6
 468 -19 468 -19 395 10.5 c 128,-1,7
 322 40 322 40 269 105 c 1,8,-1
 172 -416 l 1,9,-1
 -9 -416 l 1,10,-1
 251 1082 l 1,11,-1
 415 1083 l 1,12,-1
 396 964 l 1,13,14
 459 1033 459 1033 537.5 1068.5 c 128,-1,15
 616 1104 616 1104 711 1102 c 0,16,17
 785 1100 785 1100 840 1076 c 128,-1,18
 895 1052 895 1052 934.5 1011.5 c 128,-1,19
 974 971 974 971 998.5 918 c 128,-1,20
 1023 865 1023 865 1035.5 805 c 128,-1,21
 1048 745 1048 745 1050 681.5 c 128,-1,22
 1052 618 1052 618 1045 557 c 2,23,-1
 1043 536 l 2,0,1
864 557 m 2,24,25
 871 618 871 618 867.5 685.5 c 128,-1,26
 864 753 864 753 841 810 c 128,-1,27
 818 867 818 867 772 905 c 128,-1,28
 726 943 726 943 648 945 c 0,29,30
 563 947 563 947 498 905.5 c 128,-1,31
 433 864 433 864 383 798 c 1,32,-1
 292 275 l 1,33,34
 352 135 352 135 505 130 c 0,35,36
 589 128 589 128 651.5 164 c 128,-1,37
 714 200 714 200 757.5 259 c 128,-1,38
 801 318 801 318 826.5 391 c 128,-1,39
 852 464 852 464 862 536 c 2,40,-1
 864 557 l 2,24,25
EndSplineSet
Substitution2: "'smcp' Lowercase to Small Capitals lookup 0 subtable" P.smcp
EndChar
StartChar: q
Encoding: 113 113 83
Width: 1202
Flags: W
LayerCount: 2
Back
Fore
SplineSet
127 543 m 2,0,1
 136 612 136 612 155 680.5 c 128,-1,2
 174 749 174 749 204 812 c 128,-1,3
 234 875 234 875 275 929 c 128,-1,4
 316 983 316 983 369 1022 c 128,-1,5
 422 1061 422 1061 487.5 1082.5 c 128,-1,6
 553 1104 553 1104 632 1102 c 0,7,8
 713 1100 713 1100 783.5 1070 c 128,-1,9
 854 1040 854 1040 905 974 c 1,10,-1
 937 1082 l 1,11,-1
 1105 1082 l 1,12,-1
 845 -416 l 1,13,-1
 664 -416 l 1,14,-1
 762 98 l 1,15,16
 699 39 699 39 625.5 8.5 c 128,-1,17
 552 -22 552 -22 465 -20 c 0,18,19
 393 -18 393 -18 338 6 c 128,-1,20
 283 30 283 30 243 70.5 c 128,-1,21
 203 111 203 111 177 164 c 128,-1,22
 151 217 151 217 137.5 276.5 c 128,-1,23
 124 336 124 336 121 399 c 128,-1,24
 118 462 118 462 125 522 c 2,25,-1
 127 543 l 2,0,1
305 522 m 2,26,27
 300 482 300 482 300 437.5 c 128,-1,28
 300 393 300 393 306.5 350 c 128,-1,29
 313 307 313 307 327.5 268 c 128,-1,30
 342 229 342 229 367 199 c 128,-1,31
 392 169 392 169 429 150.5 c 128,-1,32
 466 132 466 132 518 131 c 0,33,34
 560 130 560 130 597 140.5 c 128,-1,35
 634 151 634 151 667 170 c 128,-1,36
 700 189 700 189 729 215.5 c 128,-1,37
 758 242 758 242 784 274 c 1,38,-1
 878 810 l 1,39,40
 846 876 846 876 793 912.5 c 128,-1,41
 740 949 740 949 667 951 c 0,42,43
 583 954 583 954 519.5 917.5 c 128,-1,44
 456 881 456 881 412.5 821.5 c 128,-1,45
 369 762 369 762 343 688.5 c 128,-1,46
 317 615 317 615 308 543 c 2,47,-1
 305 522 l 2,26,27
EndSplineSet
Substitution2: "'smcp' Lowercase to Small Capitals lookup 0 subtable" Q.smcp
EndChar
StartChar: r
Encoding: 114 114 84
Width: 1202
Flags: W
LayerCount: 2
Back
Fore
SplineSet
931 1104 m 0,0,1
 979 1103 979 1103 1027 1097.5 c 128,-1,2
 1075 1092 1075 1092 1121 1075 c 1,3,-1
 1075 895 l 1,4,5
 1027 906 1027 906 979 913 c 128,-1,6
 931 920 931 920 882 921 c 0,7,8
 756 922 756 922 666 863 c 128,-1,9
 576 804 576 804 516 695 c 1,10,-1
 396 0 l 1,11,-1
 215 0 l 1,12,-1
 402 1082 l 1,13,-1
 574 1082 l 1,14,-1
 544 910 l 1,15,16
 582 954 582 954 625 990 c 128,-1,17
 668 1026 668 1026 716 1051.5 c 128,-1,18
 764 1077 764 1077 817.5 1090.5 c 128,-1,19
 871 1104 871 1104 931 1104 c 0,0,1
EndSplineSet
Substitution2: "'smcp' Lowercase to Small Capitals lookup 0 subtable" R.smcp
EndChar
StartChar: s
Encoding: 115 115 85
Width: 1202
Flags: W
LayerCount: 2
Back
Fore
SplineSet
818 294 m 0,0,1
 824 340 824 340 803 370 c 128,-1,2
 782 400 782 400 747.5 419 c 128,-1,3
 713 438 713 438 672 449.5 c 128,-1,4
 631 461 631 461 598 469 c 0,5,6
 538 484 538 484 473 506 c 128,-1,7
 408 528 408 528 354 563 c 128,-1,8
 300 598 300 598 266.5 650.5 c 128,-1,9
 233 703 233 703 236 778 c 0,10,11
 238 833 238 833 258.5 878.5 c 128,-1,12
 279 924 279 924 312 960.5 c 128,-1,13
 345 997 345 997 388.5 1024 c 128,-1,14
 432 1051 432 1051 480.5 1068.5 c 128,-1,15
 529 1086 529 1086 579.5 1094.5 c 128,-1,16
 630 1103 630 1103 679 1102 c 0,17,18
 755 1100 755 1100 825.5 1078 c 128,-1,19
 896 1056 896 1056 949 1013.5 c 128,-1,20
 1002 971 1002 971 1033 908.5 c 128,-1,21
 1064 846 1064 846 1063 763 c 1,22,-1
 884 764 l 1,23,24
 884 809 884 809 867 843 c 128,-1,25
 850 877 850 877 820.5 900.5 c 128,-1,26
 791 924 791 924 752.5 936 c 128,-1,27
 714 948 714 948 672 949 c 0,28,29
 632 950 632 950 589.5 941 c 128,-1,30
 547 932 547 932 510 912.5 c 128,-1,31
 473 893 473 893 447 861.5 c 128,-1,32
 421 830 421 830 415 785 c 256,33,34
 409 740 409 740 429.5 711.5 c 128,-1,35
 450 683 450 683 483 666 c 128,-1,36
 516 649 516 649 555.5 639 c 128,-1,37
 595 629 595 629 628 622 c 0,38,39
 669 612 669 612 713 599 c 128,-1,40
 757 586 757 586 799 568 c 128,-1,41
 841 550 841 550 878.5 526.5 c 128,-1,42
 916 503 916 503 943 471.5 c 128,-1,43
 970 440 970 440 985 399 c 128,-1,44
 1000 358 1000 358 998 307 c 0,45,46
 994 220 994 220 950 157 c 128,-1,47
 906 94 906 94 840 54.5 c 128,-1,48
 774 15 774 15 694 -3.5 c 128,-1,49
 614 -22 614 -22 538 -20 c 0,50,51
 458 -19 458 -19 383.5 4 c 128,-1,52
 309 27 309 27 251 71.5 c 128,-1,53
 193 116 193 116 158.5 181.5 c 128,-1,54
 124 247 124 247 126 334 c 1,55,-1
 306 333 l 1,56,57
 307 281 307 281 326 243 c 128,-1,58
 345 205 345 205 377 180.5 c 128,-1,59
 409 156 409 156 452 143.5 c 128,-1,60
 495 131 495 131 544 131 c 0,61,62
 584 130 584 130 629 138 c 128,-1,63
 674 146 674 146 714 164.5 c 128,-1,64
 754 183 754 183 782.5 215 c 128,-1,65
 811 247 811 247 818 294 c 0,0,1
EndSplineSet
Substitution2: "'smcp' Lowercase to Small Capitals lookup 0 subtable" S.smcp
EndChar
StartChar: t
Encoding: 116 116 86
Width: 1202
Flags: W
LayerCount: 2
Back
Fore
SplineSet
724 1344 m 1,0,-1
 678 1082 l 1,1,-1
 1078 1082 l 1,2,-1
 1053 939 l 1,3,-1
 653 939 l 1,4,-1
 555 350 l 2,5,6
 550 306 550 306 555.5 268 c 128,-1,7
 561 230 561 230 578 202 c 128,-1,8
 595 174 595 174 626.5 157 c 128,-1,9
 658 140 658 140 706 139 c 0,10,11
 761 137 761 137 815.5 147 c 128,-1,12
 870 157 870 157 924 169 c 1,13,-1
 941 36 l 1,14,15
 878 1 878 1 801 -10 c 128,-1,16
 724 -21 724 -21 653 -19 c 0,17,18
 572 -18 572 -18 516 12.5 c 128,-1,19
 460 43 460 43 426 93.5 c 128,-1,20
 392 144 392 144 379.5 210.5 c 128,-1,21
 367 277 367 277 374 351 c 1,22,-1
 472 939 l 1,23,-1
 196 939 l 1,24,-1
 221 1082 l 1,25,-1
 496 1082 l 1,26,-1
 542 1344 l 1,27,-1
 724 1344 l 1,0,-1
EndSplineSet
Substitution2: "'smcp' Lowercase to Small Capitals lookup 0 subtable" T.smcp
EndChar
StartChar: u
Encoding: 117 117 87
Width: 1202
Flags: W
LayerCount: 2
Back
Fore
SplineSet
780 149 m 1,0,1
 716 70 716 70 633 24 c 128,-1,2
 550 -22 550 -22 445 -20 c 0,3,4
 348 -18 348 -18 286.5 22.5 c 128,-1,5
 225 63 225 63 191.5 128 c 128,-1,6
 158 193 158 193 149.5 274.5 c 128,-1,7
 141 356 141 356 150 439 c 1,8,-1
 258 1082 l 1,9,-1
 439 1082 l 1,10,-1
 332 436 l 2,11,12
 326 386 326 386 325 333.5 c 128,-1,13
 324 281 324 281 338.5 238 c 128,-1,14
 353 195 353 195 387 167 c 128,-1,15
 421 139 421 139 484 137 c 0,16,17
 584 134 584 134 661 178.5 c 128,-1,18
 738 223 738 223 791 305 c 1,19,-1
 926 1082 l 1,20,-1
 1108 1082 l 1,21,-1
 920 0 l 1,22,-1
 757 0 l 1,23,-1
 780 149 l 1,0,1
EndSplineSet
Substitution2: "'smcp' Lowercase to Small Capitals lookup 0 subtable" U.smcp
EndChar
StartChar: v
Encoding: 118 118 88
Width: 1202
Flags: W
LayerCount: 2
Back
Fore
SplineSet
524 266 m 1,0,-1
 529 198 l 1,1,-1
 558 267 l 1,2,-1
 980 1082 l 1,3,-1
 1172 1082 l 1,4,-1
 574 0 l 1,5,-1
 436 0 l 1,6,-1
 174 1082 l 1,7,-1
 348 1083 l 1,8,-1
 524 266 l 1,0,-1
EndSplineSet
Substitution2: "'smcp' Lowercase to Small Capitals lookup 0 subtable" V.smcp
EndChar
StartChar: w
Encoding: 119 119 89
Width: 1202
Flags: W
LayerCount: 2
Back
Fore
SplineSet
291 381 m 1,0,-1
 285 243 l 1,1,-1
 340 402 l 1,2,-1
 624 1082 l 1,3,-1
 741 1082 l 1,4,-1
 788 380 l 1,5,-1
 786 226 l 1,6,-1
 839 384 l 1,7,-1
 1078 1082 l 1,8,-1
 1242 1082 l 1,9,-1
 831 0 l 1,10,-1
 689 0 l 1,11,-1
 639 673 l 1,12,-1
 642 827 l 1,13,-1
 584 653 l 1,14,-1
 311 0 l 1,15,-1
 168 0 l 1,16,-1
 132 1082 l 1,17,-1
 288 1082 l 1,18,-1
 291 381 l 1,0,-1
EndSplineSet
Substitution2: "'smcp' Lowercase to Small Capitals lookup 0 subtable" W.smcp
EndChar
StartChar: x
Encoding: 120 120 90
Width: 1202
Flags: W
LayerCount: 2
Back
Fore
SplineSet
609 682 m 1,0,-1
 952 1082 l 1,1,-1
 1176 1082 l 1,2,-1
 693 539 l 1,3,-1
 1005 0 l 1,4,-1
 809 0 l 1,5,-1
 583 411 l 1,6,-1
 229 0 l 1,7,-1
 6 0 l 1,8,-1
 501 555 l 1,9,-1
 198 1082 l 1,10,-1
 395 1082 l 1,11,-1
 609 682 l 1,0,-1
EndSplineSet
Substitution2: "'smcp' Lowercase to Small Capitals lookup 0 subtable" X.smcp
EndChar
StartChar: y
Encoding: 121 121 91
Width: 1202
Flags: W
LayerCount: 2
Back
Fore
SplineSet
516 375 m 1,0,-1
 537 255 l 1,1,-1
 1001 1082 l 1,2,-1
 1212 1082 l 1,3,-1
 464 -168 l 2,4,5
 434 -220 434 -220 396 -269 c 128,-1,6
 358 -318 358 -318 311.5 -356.5 c 128,-1,7
 265 -395 265 -395 209.5 -417.5 c 128,-1,8
 154 -440 154 -440 89 -440 c 0,9,10
 60 -440 60 -440 30.5 -434.5 c 128,-1,11
 1 -429 1 -429 -28 -424 c 1,12,-1
 13 -271 l 1,13,14
 35 -273 35 -273 57 -276 c 128,-1,15
 79 -279 79 -279 100 -279 c 0,16,17
 139 -278 139 -278 172 -260 c 128,-1,18
 205 -242 205 -242 232 -215 c 128,-1,19
 259 -188 259 -188 281 -155.5 c 128,-1,20
 303 -123 303 -123 322 -94 c 2,21,-1
 425 62 l 1,22,-1
 154 1082 l 1,23,-1
 347 1082 l 1,24,-1
 516 375 l 1,0,-1
EndSplineSet
Substitution2: "'smcp' Lowercase to Small Capitals lookup 0 subtable" Y.smcp
EndChar
StartChar: z
Encoding: 122 122 92
Width: 1202
Flags: W
LayerCount: 2
Back
Fore
SplineSet
321 151 m 1,0,-1
 984 151 l 1,1,-1
 959 0 l 1,2,-1
 61 0 l 1,3,-1
 84 144 l 1,4,-1
 827 929 l 1,5,-1
 215 929 l 1,6,-1
 239 1082 l 1,7,-1
 1094 1082 l 1,8,-1
 1072 943 l 1,9,-1
 321 151 l 1,0,-1
EndSplineSet
Substitution2: "'smcp' Lowercase to Small Capitals lookup 0 subtable" Z.smcp
EndChar
StartChar: braceleft
Encoding: 123 123 93
Width: 1202
Flags: W
LayerCount: 2
Back
Fore
SplineSet
812 -365 m 1,0,1
 723 -359 723 -359 661 -315.5 c 128,-1,2
 599 -272 599 -272 562 -206 c 128,-1,3
 525 -140 525 -140 511.5 -60 c 128,-1,4
 498 20 498 20 506 99 c 2,5,-1
 528 269 l 2,6,7
 535 333 535 333 526 382.5 c 128,-1,8
 517 432 517 432 490.5 466.5 c 128,-1,9
 464 501 464 501 419 520 c 128,-1,10
 374 539 374 539 308 542 c 1,11,-1
 323 686 l 1,12,13
 461 688 461 688 541.5 755.5 c 128,-1,14
 622 823 622 823 642 962 c 2,15,-1
 664 1132 l 2,16,17
 676 1224 676 1224 708.5 1306.5 c 128,-1,18
 741 1389 741 1389 795 1452 c 128,-1,19
 849 1515 849 1515 925 1554.5 c 128,-1,20
 1001 1594 1001 1594 1100 1600 c 1,21,-1
 1110 1483 l 1,22,23
 1037 1478 1037 1478 990 1446 c 128,-1,24
 943 1414 943 1414 913.5 1364.5 c 128,-1,25
 884 1315 884 1315 869 1254 c 128,-1,26
 854 1193 854 1193 846 1132 c 2,27,-1
 824 962 l 2,28,29
 807 831 807 831 736 745.5 c 128,-1,30
 665 660 665 660 545 609 c 1,31,32
 593 583 593 583 627 546.5 c 128,-1,33
 661 510 661 510 681 466 c 128,-1,34
 701 422 701 422 707.5 371.5 c 128,-1,35
 714 321 714 321 709 268 c 2,36,-1
 688 98 l 2,37,38
 682 48 682 48 681 -10 c 128,-1,39
 680 -68 680 -68 693.5 -118.5 c 128,-1,40
 707 -169 707 -169 740.5 -205.5 c 128,-1,41
 774 -242 774 -242 837 -250 c 1,42,-1
 812 -365 l 1,0,1
EndSplineSet
EndChar
StartChar: bar
Encoding: 124 124 94
Width: 1202
Flags: W
LayerCount: 2
Back
Fore
SplineSet
513 -398 m 1,0,-1
 367 -398 l 1,1,-1
 657 1456 l 1,2,-1
 803 1456 l 1,3,-1
 513 -398 l 1,0,-1
EndSplineSet
EndChar
StartChar: braceright
Encoding: 125 125 95
Width: 1202
Flags: W
LayerCount: 2
Back
Fore
SplineSet
178 -252 m 1,0,1
 245 -248 245 -248 291.5 -214 c 128,-1,2
 338 -180 338 -180 369 -129.5 c 128,-1,3
 400 -79 400 -79 417 -18.5 c 128,-1,4
 434 42 434 42 443 99 c 2,5,-1
 465 268 l 2,6,7
 482 398 482 398 552 483.5 c 128,-1,8
 622 569 622 569 742 619 c 1,9,10
 694 645 694 645 660.5 682 c 128,-1,11
 627 719 627 719 607 763.5 c 128,-1,12
 587 808 587 808 580.5 858.5 c 128,-1,13
 574 909 574 909 579 962 c 2,14,-1
 601 1133 l 2,15,16
 605 1169 605 1169 608.5 1207 c 128,-1,17
 612 1245 612 1245 610.5 1282 c 128,-1,18
 609 1319 609 1319 601.5 1353 c 128,-1,19
 594 1387 594 1387 576 1413.5 c 128,-1,20
 558 1440 558 1440 528 1458 c 128,-1,21
 498 1476 498 1476 453 1481 c 1,22,-1
 482 1595 l 1,23,24
 572 1589 572 1589 633.5 1546 c 128,-1,25
 695 1503 695 1503 731 1437.5 c 128,-1,26
 767 1372 767 1372 778.5 1292 c 128,-1,27
 790 1212 790 1212 781 1132 c 2,28,-1
 760 961 l 2,29,30
 746 832 746 832 797.5 763.5 c 128,-1,31
 849 695 849 695 980 689 c 1,32,-1
 965 545 l 1,33,34
 827 541 827 541 746 474 c 128,-1,35
 665 407 665 407 646 268 c 2,36,-1
 624 99 l 2,37,38
 612 8 612 8 578.5 -74 c 128,-1,39
 545 -156 545 -156 490.5 -219.5 c 128,-1,40
 436 -283 436 -283 360.5 -323 c 128,-1,41
 285 -363 285 -363 188 -369 c 1,42,-1
 178 -252 l 1,0,1
EndSplineSet
EndChar
StartChar: asciitilde
Encoding: 126 126 96
Width: 1202
Flags: W
LayerCount: 2
Back
Fore
SplineSet
1158 742 m 1,0,1
 1152 677 1152 677 1128 615.5 c 128,-1,2
 1104 554 1104 554 1063 506 c 128,-1,3
 1022 458 1022 458 965 429 c 128,-1,4
 908 400 908 400 837 401 c 0,5,6
 792 401 792 401 752 412.5 c 128,-1,7
 712 424 712 424 675.5 443 c 128,-1,8
 639 462 639 462 605.5 487.5 c 128,-1,9
 572 513 572 513 540 542 c 0,10,11
 520 560 520 560 498 577.5 c 128,-1,12
 476 595 476 595 452 609.5 c 128,-1,13
 428 624 428 624 401.5 632.5 c 128,-1,14
 375 641 375 641 347 641 c 0,15,16
 307 641 307 641 275 625 c 128,-1,17
 243 609 243 609 220 583.5 c 128,-1,18
 197 558 197 558 181.5 525 c 128,-1,19
 166 492 166 492 159 456 c 1,20,-1
 28 473 l 1,21,22
 35 538 35 538 60.5 598 c 128,-1,23
 86 658 86 658 127.5 704 c 128,-1,24
 169 750 169 750 225.5 777 c 128,-1,25
 282 804 282 804 353 803 c 0,26,27
 441 802 441 802 514.5 761.5 c 128,-1,28
 588 721 588 721 651 663 c 0,29,30
 672 644 672 644 693.5 626 c 128,-1,31
 715 608 715 608 739 594 c 128,-1,32
 763 580 763 580 789.5 571.5 c 128,-1,33
 816 563 816 563 845 563 c 0,34,35
 885 563 885 563 917.5 580 c 128,-1,36
 950 597 950 597 974 624.5 c 128,-1,37
 998 652 998 652 1013.5 686.5 c 128,-1,38
 1029 721 1029 721 1037 757 c 1,39,-1
 1158 742 l 1,0,1
EndSplineSet
EndChar
StartChar: exclamdown
Encoding: 161 161 97
Width: 1202
Flags: W
LayerCount: 2
Back
Fore
SplineSet
508 611 m 1,0,-1
 689 611 l 1,1,-1
 518 -372 l 1,2,-1
 337 -372 l 1,3,-1
 508 611 l 1,0,-1
775 993 m 0,4,5
 773 944 773 944 741.5 913 c 128,-1,6
 710 882 710 882 662 880 c 0,7,8
 638 879 638 879 617.5 886.5 c 128,-1,9
 597 894 597 894 582 908.5 c 128,-1,10
 567 923 567 923 559 943 c 128,-1,11
 551 963 551 963 551 987 c 0,12,13
 552 1037 552 1037 582.5 1069.5 c 128,-1,14
 613 1102 613 1102 663 1104 c 0,15,16
 688 1105 688 1105 708.5 1097 c 128,-1,17
 729 1089 729 1089 744 1074 c 128,-1,18
 759 1059 759 1059 767 1038 c 128,-1,19
 775 1017 775 1017 775 993 c 0,4,5
EndSplineSet
EndChar
StartChar: cent
Encoding: 162 162 98
Width: 1202
Flags: W
LayerCount: 2
Back
Fore
SplineSet
537 129 m 0,0,1
 586 128 586 128 634 142.5 c 128,-1,2
 682 157 682 157 721.5 184.5 c 128,-1,3
 761 212 761 212 789 251.5 c 128,-1,4
 817 291 817 291 828 340 c 1,5,-1
 999 341 l 1,6,7
 990 266 990 266 952.5 203 c 128,-1,8
 915 140 915 140 858.5 93.5 c 128,-1,9
 802 47 802 47 732 18.5 c 128,-1,10
 662 -10 662 -10 590 -18 c 1,11,-1
 551 -245 l 1,12,-1
 370 -245 l 1,13,-1
 412 -3 l 1,14,15
 331 20 331 20 273.5 71 c 128,-1,16
 216 122 216 122 181.5 192 c 128,-1,17
 147 262 147 262 134.5 345.5 c 128,-1,18
 122 429 122 429 131 517 c 2,19,-1
 136 560 l 2,20,21
 148 659 148 659 185.5 749.5 c 128,-1,22
 223 840 223 840 282.5 912.5 c 128,-1,23
 342 985 342 985 422.5 1034 c 128,-1,24
 503 1083 503 1083 602 1097 c 1,25,-1
 641 1318 l 1,26,-1
 822 1318 l 1,27,-1
 782 1090 l 1,28,29
 848 1075 848 1075 902 1041 c 128,-1,30
 956 1007 956 1007 994 957.5 c 128,-1,31
 1032 908 1032 908 1051.5 845 c 128,-1,32
 1071 782 1071 782 1068 709 c 1,33,-1
 898 710 l 1,34,35
 900 760 900 760 886 803 c 128,-1,36
 872 846 872 846 843.5 878.5 c 128,-1,37
 815 911 815 911 774 930 c 128,-1,38
 733 949 733 949 681 951 c 0,39,40
 598 954 598 954 534.5 920.5 c 128,-1,41
 471 887 471 887 426 831 c 128,-1,42
 381 775 381 775 353.5 704 c 128,-1,43
 326 633 326 633 316 560 c 2,44,-1
 311 518 l 2,45,46
 306 475 306 475 306 430 c 128,-1,47
 306 385 306 385 313.5 342.5 c 128,-1,48
 321 300 321 300 337 261.5 c 128,-1,49
 353 223 353 223 380 194.5 c 128,-1,50
 407 166 407 166 445.5 148 c 128,-1,51
 484 130 484 130 537 129 c 0,0,1
EndSplineSet
EndChar
StartChar: sterling
Encoding: 163 163 99
Width: 1202
Flags: W
LayerCount: 2
Back
Fore
SplineSet
454 626 m 1,0,-1
 424 401 l 2,1,2
 414 330 414 330 388.5 267 c 128,-1,3
 363 204 363 204 317 149 c 1,4,-1
 1037 151 l 1,5,-1
 1010 0 l 1,6,-1
 9 0 l 1,7,-1
 36 150 l 1,8,-1
 101 149 l 1,9,10
 137 163 137 163 162 190.5 c 128,-1,11
 187 218 187 218 203.5 253 c 128,-1,12
 220 288 220 288 229.5 326.5 c 128,-1,13
 239 365 239 365 244 400 c 2,14,-1
 274 626 l 1,15,-1
 114 626 l 1,16,-1
 140 778 l 1,17,-1
 296 778 l 1,18,-1
 329 1038 l 2,19,20
 341 1135 341 1135 382.5 1216 c 128,-1,21
 424 1297 424 1297 489 1355.5 c 128,-1,22
 554 1414 554 1414 639 1446 c 128,-1,23
 724 1478 724 1478 823 1476 c 0,24,25
 910 1474 910 1474 976.5 1444.5 c 128,-1,26
 1043 1415 1043 1415 1088 1364 c 128,-1,27
 1133 1313 1133 1313 1154 1243 c 128,-1,28
 1175 1173 1175 1173 1171 1088 c 1,29,-1
 989 1089 l 1,30,31
 992 1139 992 1139 982.5 1182 c 128,-1,32
 973 1225 973 1225 949 1256.5 c 128,-1,33
 925 1288 925 1288 886.5 1306 c 128,-1,34
 848 1324 848 1324 795 1326 c 0,35,36
 734 1328 734 1328 684.5 1304.5 c 128,-1,37
 635 1281 635 1281 599 1240.5 c 128,-1,38
 563 1200 563 1200 540.5 1147.5 c 128,-1,39
 518 1095 518 1095 510 1040 c 2,40,-1
 476 778 l 1,41,-1
 787 778 l 1,42,-1
 760 626 l 1,43,-1
 454 626 l 1,0,-1
EndSplineSet
EndChar
StartChar: currency
Encoding: 164 164 100
Width: 1202
Flags: W
LayerCount: 2
Back
Fore
SplineSet
825 82 m 1,0,1
 756 34 756 34 681 6 c 128,-1,2
 606 -22 606 -22 521 -20 c 0,3,4
 445 -19 445 -19 375.5 7 c 128,-1,5
 306 33 306 33 247 83 c 1,6,-1
 127 -26 l 1,7,-1
 16 118 l 1,8,-1
 144 226 l 1,9,10
 123 295 123 295 116.5 365.5 c 128,-1,11
 110 436 110 436 119 508 c 0,12,13
 143 684 143 684 256 823 c 1,14,-1
 160 952 l 1,15,-1
 302 1080 l 1,16,-1
 392 959 l 1,17,18
 458 1001 458 1001 529.5 1025.5 c 128,-1,19
 601 1050 601 1050 680 1049 c 0,20,21
 752 1048 752 1048 818.5 1024 c 128,-1,22
 885 1000 885 1000 941 955 c 1,23,-1
 1082 1081 l 1,24,-1
 1194 935 l 1,25,-1
 1052 814 l 1,26,27
 1075 743 1075 743 1083 670 c 128,-1,28
 1091 597 1091 597 1081 522 c 0,29,30
 1070 439 1070 439 1038.5 365 c 128,-1,31
 1007 291 1007 291 958 224 c 1,32,-1
 1050 100 l 1,33,-1
 907 -27 l 1,34,-1
 825 82 l 1,0,1
287 506 m 0,35,36
 279 444 279 444 291 382 c 128,-1,37
 303 320 303 320 334 269 c 128,-1,38
 365 218 365 218 415.5 185 c 128,-1,39
 466 152 466 152 535 150 c 0,40,41
 611 148 611 148 676 180 c 128,-1,42
 741 212 741 212 790.5 265 c 128,-1,43
 840 318 840 318 871.5 386 c 128,-1,44
 903 454 903 454 912 524 c 0,45,46
 919 585 919 585 907.5 647.5 c 128,-1,47
 896 710 896 710 865.5 760.5 c 128,-1,48
 835 811 835 811 785 844 c 128,-1,49
 735 877 735 877 666 879 c 0,50,51
 590 881 590 881 524.5 849.5 c 128,-1,52
 459 818 459 818 409 765 c 128,-1,53
 359 712 359 712 327.5 644 c 128,-1,54
 296 576 296 576 287 506 c 0,35,36
EndSplineSet
EndChar
StartChar: yen
Encoding: 165 165 101
Width: 1202
Flags: W
LayerCount: 2
Back
Fore
SplineSet
621 780 m 1,0,-1
 1096 1456 l 1,1,-1
 1314 1456 l 1,2,-1
 781 736 l 1,3,-1
 1084 736 l 1,4,-1
 1062 615 l 1,5,-1
 695 618 l 1,6,-1
 689 611 l 1,7,-1
 655 446 l 1,8,-1
 1034 446 l 1,9,-1
 1012 326 l 1,10,-1
 636 326 l 1,11,-1
 579 0 l 1,12,-1
 398 0 l 1,13,-1
 455 326 l 1,14,-1
 86 326 l 1,15,-1
 107 446 l 1,16,-1
 475 446 l 1,17,-1
 505 615 l 1,18,-1
 136 615 l 1,19,-1
 157 736 l 1,20,-1
 470 736 l 1,21,-1
 186 1456 l 1,22,-1
 381 1456 l 1,23,-1
 621 780 l 1,0,-1
EndSplineSet
EndChar
StartChar: section
Encoding: 167 167 103
Width: 1202
Flags: W
LayerCount: 2
Back
Fore
SplineSet
1077 439 m 0,0,1
 1072 385 1072 385 1053.5 341.5 c 128,-1,2
 1035 298 1035 298 1004.5 263 c 128,-1,3
 974 228 974 228 934 200.5 c 128,-1,4
 894 173 894 173 848 151 c 1,5,6
 904 95 904 95 924.5 26.5 c 128,-1,7
 945 -42 945 -42 939 -120 c 0,8,9
 931 -221 931 -221 882 -293 c 128,-1,10
 833 -365 833 -365 759.5 -410.5 c 128,-1,11
 686 -456 686 -456 595.5 -477 c 128,-1,12
 505 -498 505 -498 415 -496 c 0,13,14
 315 -494 315 -494 230 -466 c 128,-1,15
 145 -438 145 -438 84 -384 c 128,-1,16
 23 -330 23 -330 -9 -250 c 128,-1,17
 -41 -170 -41 -170 -36 -64 c 1,18,-1
 149 -62 l 1,19,20
 144 -128 144 -128 162 -180 c 128,-1,21
 180 -232 180 -232 216 -268 c 128,-1,22
 252 -304 252 -304 305 -323 c 128,-1,23
 358 -342 358 -342 423 -343 c 0,24,25
 476 -344 476 -344 531.5 -332 c 128,-1,26
 587 -320 587 -320 634.5 -293.5 c 128,-1,27
 682 -267 682 -267 715 -224.5 c 128,-1,28
 748 -182 748 -182 756 -123 c 0,29,30
 761 -83 761 -83 750.5 -52 c 128,-1,31
 740 -21 740 -21 718.5 3.5 c 128,-1,32
 697 28 697 28 667 46.5 c 128,-1,33
 637 65 637 65 603.5 79.5 c 128,-1,34
 570 94 570 94 536 105 c 128,-1,35
 502 116 502 116 472 126 c 0,36,37
 394 152 394 152 320.5 185 c 128,-1,38
 247 218 247 218 191.5 265.5 c 128,-1,39
 136 313 136 313 105 380.5 c 128,-1,40
 74 448 74 448 82 543 c 0,41,42
 86 595 86 595 105 638.5 c 128,-1,43
 124 682 124 682 153.5 717 c 128,-1,44
 183 752 183 752 222 780 c 128,-1,45
 261 808 261 808 307 830 c 1,46,47
 253 887 253 887 234 956 c 128,-1,48
 215 1025 215 1025 221 1102 c 0,49,50
 226 1168 226 1168 250.5 1222 c 128,-1,51
 275 1276 275 1276 313.5 1318 c 128,-1,52
 352 1360 352 1360 401.5 1390.5 c 128,-1,53
 451 1421 451 1421 507.5 1440.5 c 128,-1,54
 564 1460 564 1460 624.5 1468.5 c 128,-1,55
 685 1477 685 1477 744 1476 c 0,56,57
 844 1474 844 1474 924.5 1444.5 c 128,-1,58
 1005 1415 1005 1415 1060 1360.5 c 128,-1,59
 1115 1306 1115 1306 1142.5 1226.5 c 128,-1,60
 1170 1147 1170 1147 1164 1045 c 1,61,-1
 984 1045 l 1,62,63
 988 1106 988 1106 973.5 1156.5 c 128,-1,64
 959 1207 959 1207 927 1244 c 128,-1,65
 895 1281 895 1281 847 1302 c 128,-1,66
 799 1323 799 1323 736 1325 c 0,67,68
 682 1326 682 1326 626.5 1314.5 c 128,-1,69
 571 1303 571 1303 524 1276.5 c 128,-1,70
 477 1250 477 1250 444.5 1207.5 c 128,-1,71
 412 1165 412 1165 403 1105 c 0,72,73
 397 1063 397 1063 407 1031 c 128,-1,74
 417 999 417 999 437.5 974.5 c 128,-1,75
 458 950 458 950 487 932 c 128,-1,76
 516 914 516 914 549.5 900 c 128,-1,77
 583 886 583 886 618 875 c 128,-1,78
 653 864 653 864 685 854 c 0,79,80
 762 828 762 828 836 795.5 c 128,-1,81
 910 763 910 763 966 715.5 c 128,-1,82
 1022 668 1022 668 1053 600.5 c 128,-1,83
 1084 533 1084 533 1077 439 c 0,0,1
607 691 m 0,84,85
 569 703 569 703 531 716 c 128,-1,86
 493 729 493 729 456 743 c 1,87,88
 380 722 380 722 328 674 c 128,-1,89
 276 626 276 626 264 545 c 0,90,91
 255 481 255 481 279.5 439 c 128,-1,92
 304 397 304 397 347.5 369 c 128,-1,93
 391 341 391 341 445.5 323 c 128,-1,94
 500 305 500 305 549 289 c 0,95,96
 587 277 587 277 624 264 c 128,-1,97
 661 251 661 251 698 237 c 1,98,99
 735 248 735 248 768 265.5 c 128,-1,100
 801 283 801 283 827.5 307.5 c 128,-1,101
 854 332 854 332 871.5 364 c 128,-1,102
 889 396 889 396 895 436 c 256,103,104
 901 476 901 476 890.5 508 c 128,-1,105
 880 540 880 540 858 565 c 128,-1,106
 836 590 836 590 805 609 c 128,-1,107
 774 628 774 628 740 643 c 128,-1,108
 706 658 706 658 671.5 669.5 c 128,-1,109
 637 681 637 681 607 691 c 0,84,85
EndSplineSet
EndChar
StartChar: dieresis
Encoding: 168 168 104
Width: 1202
Flags: W
LayerCount: 2
Back
Fore
SplineSet
399 1369 m 0,0,1
 399 1415 399 1415 428.5 1445.5 c 128,-1,2
 458 1476 458 1476 505 1478 c 0,3,4
 551 1479 551 1479 582 1449.5 c 128,-1,5
 613 1420 613 1420 612 1373 c 0,6,7
 611 1327 611 1327 581 1297 c 128,-1,8
 551 1267 551 1267 505 1265 c 0,9,10
 458 1264 458 1264 428 1293 c 128,-1,11
 398 1322 398 1322 399 1369 c 0,0,1
815 1367 m 0,12,13
 816 1413 816 1413 845.5 1444 c 128,-1,14
 875 1475 875 1475 922 1477 c 0,15,16
 969 1478 969 1478 999 1448.5 c 128,-1,17
 1029 1419 1029 1419 1029 1371 c 0,18,19
 1028 1325 1028 1325 998 1295 c 128,-1,20
 968 1265 968 1265 921 1263 c 0,21,22
 875 1262 875 1262 845 1291 c 128,-1,23
 815 1320 815 1320 815 1367 c 0,12,13
EndSplineSet
EndChar
StartChar: copyright
Encoding: 169 169 105
Width: 1202
Flags: W
LayerCount: 2
Back
Fore
SplineSet
813 443 m 1,0,1
 799 332 799 332 732 268.5 c 128,-1,2
 665 205 665 205 550 208 c 0,3,4
 489 209 489 209 445.5 234 c 128,-1,5
 402 259 402 259 375 299 c 128,-1,6
 348 339 348 339 336.5 391 c 128,-1,7
 325 443 325 443 328 498 c 2,8,-1
 336 585 l 2,9,10
 342 643 342 643 363.5 696.5 c 128,-1,11
 385 750 385 750 421 790.5 c 128,-1,12
 457 831 457 831 507.5 854.5 c 128,-1,13
 558 878 558 878 621 877 c 0,14,15
 732 875 732 875 789 812 c 128,-1,16
 846 749 846 749 841 640 c 1,17,-1
 732 641 l 1,18,19
 736 704 736 704 710 742 c 128,-1,20
 684 780 684 780 615 780 c 0,21,22
 574 780 574 780 544 763 c 128,-1,23
 514 746 514 746 493.5 719 c 128,-1,24
 473 692 473 692 461 657.5 c 128,-1,25
 449 623 449 623 445 587 c 2,26,-1
 437 497 l 2,27,28
 435 465 435 465 438.5 431.5 c 128,-1,29
 442 398 442 398 455 370 c 128,-1,30
 468 342 468 342 492 324 c 128,-1,31
 516 306 516 306 555 305 c 0,32,33
 590 304 590 304 615 314 c 128,-1,34
 640 324 640 324 658 342 c 128,-1,35
 676 360 676 360 687.5 385.5 c 128,-1,36
 699 411 699 411 706 442 c 1,37,-1
 813 443 l 1,0,1
165 534 m 0,38,39
 155 448 155 448 174.5 365 c 128,-1,40
 194 282 194 282 239.5 217 c 128,-1,41
 285 152 285 152 356 111 c 128,-1,42
 427 70 427 70 520 68 c 0,43,44
 620 65 620 65 707.5 104.5 c 128,-1,45
 795 144 795 144 862 211.5 c 128,-1,46
 929 279 929 279 971.5 367 c 128,-1,47
 1014 455 1014 455 1025 550 c 0,48,49
 1035 636 1035 636 1015 718 c 128,-1,50
 995 800 995 800 949 864.5 c 128,-1,51
 903 929 903 929 832.5 969 c 128,-1,52
 762 1009 762 1009 669 1011 c 0,53,54
 603 1013 603 1013 542 996 c 128,-1,55
 481 979 481 979 427 947 c 128,-1,56
 373 915 373 915 328.5 870 c 128,-1,57
 284 825 284 825 250 771.5 c 128,-1,58
 216 718 216 718 194 657.5 c 128,-1,59
 172 597 172 597 165 534 c 0,38,39
78 535 m 0,60,61
 86 610 86 610 111 682 c 128,-1,62
 136 754 136 754 176 817.5 c 128,-1,63
 216 881 216 881 269.5 934 c 128,-1,64
 323 987 323 987 386.5 1025 c 128,-1,65
 450 1063 450 1063 522 1083.5 c 128,-1,66
 594 1104 594 1104 673 1102 c 0,67,68
 747 1101 747 1101 810.5 1078.5 c 128,-1,69
 874 1056 874 1056 925 1018 c 128,-1,70
 976 980 976 980 1014.5 928 c 128,-1,71
 1053 876 1053 876 1077 815 c 128,-1,72
 1101 754 1101 754 1110 686.5 c 128,-1,73
 1119 619 1119 619 1112 550 c 0,74,75
 1104 474 1104 474 1079 402 c 128,-1,76
 1054 330 1054 330 1014 266 c 128,-1,77
 974 202 974 202 921 148.5 c 128,-1,78
 868 95 868 95 804.5 57 c 128,-1,79
 741 19 741 19 668.5 -2 c 128,-1,80
 596 -23 596 -23 517 -21 c 0,81,82
 405 -19 405 -19 318.5 29 c 128,-1,83
 232 77 232 77 175 154.5 c 128,-1,84
 118 232 118 232 92.5 331 c 128,-1,85
 67 430 67 430 78 535 c 0,60,61
EndSplineSet
EndChar
StartChar: ordfeminine
Encoding: 170 170 106
Width: 1202
Flags: W
LayerCount: 2
Back
Fore
SplineSet
781 704 m 1,0,1
 775 753 775 753 778 801 c 1,2,3
 733 749 733 749 675 720 c 128,-1,4
 617 691 617 691 547 691 c 0,5,6
 497 691 497 691 456 706.5 c 128,-1,7
 415 722 415 722 386 750.5 c 128,-1,8
 357 779 357 779 342 819.5 c 128,-1,9
 327 860 327 860 330 911 c 0,10,11
 333 981 333 981 367 1027 c 128,-1,12
 401 1073 401 1073 452 1100.5 c 128,-1,13
 503 1128 503 1128 564.5 1139 c 128,-1,14
 626 1150 626 1150 685 1150 c 2,15,-1
 823 1149 l 1,16,-1
 831 1202 l 2,17,18
 834 1229 834 1229 830.5 1253.5 c 128,-1,19
 827 1278 827 1278 816 1296 c 128,-1,20
 805 1314 805 1314 784.5 1324.5 c 128,-1,21
 764 1335 764 1335 734 1336 c 0,22,23
 677 1338 677 1338 635.5 1313 c 128,-1,24
 594 1288 594 1288 578 1232 c 1,25,-1
 422 1243 l 1,26,27
 431 1304 431 1304 461.5 1348.5 c 128,-1,28
 492 1393 492 1393 536.5 1422 c 128,-1,29
 581 1451 581 1451 636 1464 c 128,-1,30
 691 1477 691 1477 748 1476 c 0,31,32
 810 1475 810 1475 858 1454.5 c 128,-1,33
 906 1434 906 1434 937.5 1398 c 128,-1,34
 969 1362 969 1362 983.5 1311.5 c 128,-1,35
 998 1261 998 1261 992 1200 c 2,36,-1
 943 886 l 2,37,38
 935 840 935 840 933.5 795.5 c 128,-1,39
 932 751 932 751 939 705 c 1,40,-1
 781 704 l 1,0,1
597 826 m 0,41,42
 653 826 653 826 705 854 c 128,-1,43
 757 882 757 882 790 927 c 1,44,-1
 809 1037 l 1,45,-1
 680 1037 l 2,46,47
 651 1036 651 1036 620 1029.5 c 128,-1,48
 589 1023 589 1023 562 1009 c 128,-1,49
 535 995 535 995 516 972 c 128,-1,50
 497 949 497 949 493 915 c 0,51,52
 490 891 490 891 498 874 c 128,-1,53
 506 857 506 857 521 846.5 c 128,-1,54
 536 836 536 836 556 831 c 128,-1,55
 576 826 576 826 597 826 c 0,41,42
EndSplineSet
EndChar
StartChar: logicalnot
Encoding: 172 172 108
Width: 1202
Flags: W
LayerCount: 2
Back
Fore
SplineSet
950 375 m 1,0,-1
 769 375 l 1,1,-1
 816 639 l 1,2,-1
 189 639 l 1,3,-1
 218 800 l 1,4,-1
 1024 800 l 1,5,-1
 950 375 l 1,0,-1
EndSplineSet
EndChar
StartChar: registered
Encoding: 174 174 109
Width: 1202
Flags: W
LayerCount: 2
Back
Fore
SplineSet
75 533 m 0,0,1
 82 608 82 608 107.5 680 c 128,-1,2
 133 752 133 752 172.5 816 c 128,-1,3
 212 880 212 880 265.5 933 c 128,-1,4
 319 986 319 986 382.5 1024 c 128,-1,5
 446 1062 446 1062 518.5 1082.5 c 128,-1,6
 591 1103 591 1103 670 1101 c 0,7,8
 782 1098 782 1098 868.5 1050.5 c 128,-1,9
 955 1003 955 1003 1012 926 c 128,-1,10
 1069 849 1069 849 1094 750.5 c 128,-1,11
 1119 652 1119 652 1109 547 c 0,12,13
 1101 472 1101 472 1076 400 c 128,-1,14
 1051 328 1051 328 1011 264.5 c 128,-1,15
 971 201 971 201 918 147.5 c 128,-1,16
 865 94 865 94 801.5 56 c 128,-1,17
 738 18 738 18 665.5 -2.5 c 128,-1,18
 593 -23 593 -23 514 -21 c 0,19,20
 403 -18 403 -18 316.5 29.5 c 128,-1,21
 230 77 230 77 173 154 c 128,-1,22
 116 231 116 231 90 329.5 c 128,-1,23
 64 428 64 428 75 533 c 0,0,1
162 532 m 0,24,25
 152 446 152 446 172 363.5 c 128,-1,26
 192 281 192 281 238 216.5 c 128,-1,27
 284 152 284 152 354.5 111.5 c 128,-1,28
 425 71 425 71 518 69 c 0,29,30
 584 67 584 67 645 84.5 c 128,-1,31
 706 102 706 102 760 134 c 128,-1,32
 814 166 814 166 858.5 211 c 128,-1,33
 903 256 903 256 937 310 c 128,-1,34
 971 364 971 364 993 424.5 c 128,-1,35
 1015 485 1015 485 1022 548 c 0,36,37
 1032 634 1032 634 1012.5 716 c 128,-1,38
 993 798 993 798 947 862.5 c 128,-1,39
 901 927 901 927 830 967.5 c 128,-1,40
 759 1008 759 1008 666 1010 c 0,41,42
 566 1013 566 1013 479 974 c 128,-1,43
 392 935 392 935 325 868.5 c 128,-1,44
 258 802 258 802 215 714.5 c 128,-1,45
 172 627 172 627 162 532 c 0,24,25
477 485 m 1,46,-1
 436 232 l 1,47,-1
 330 232 l 1,48,-1
 430 867 l 1,49,-1
 629 866 l 2,50,51
 672 865 672 865 711 854 c 128,-1,52
 750 843 750 843 779.5 821 c 128,-1,53
 809 799 809 799 825 764.5 c 128,-1,54
 841 730 841 730 838 681 c 0,55,56
 835 648 835 648 821.5 622 c 128,-1,57
 808 596 808 596 786.5 576.5 c 128,-1,58
 765 557 765 557 738 543 c 128,-1,59
 711 529 711 529 683 518 c 1,60,-1
 778 232 l 1,61,-1
 675 232 l 1,62,-1
 598 485 l 1,63,-1
 477 485 l 1,46,-1
491 582 m 1,64,-1
 602 582 l 2,65,66
 624 583 624 583 646 589 c 128,-1,67
 668 595 668 595 686 606 c 128,-1,68
 704 617 704 617 717 634.5 c 128,-1,69
 730 652 730 652 734 676 c 0,70,71
 739 704 739 704 731.5 722 c 128,-1,72
 724 740 724 740 709 750 c 128,-1,73
 694 760 694 760 672.5 764 c 128,-1,74
 651 768 651 768 627 769 c 2,75,-1
 521 770 l 1,76,-1
 491 582 l 1,64,-1
EndSplineSet
EndChar
StartChar: macron
Encoding: 175 175 110
AltUni2: 0002c9.ffffffff.0
Width: 1202
Flags: W
LayerCount: 2
Back
Fore
SplineSet
1054 1313 m 1,0,-1
 360 1313 l 1,1,-1
 383 1456 l 1,2,-1
 1077 1456 l 1,3,-1
 1054 1313 l 1,0,-1
EndSplineSet
EndChar
StartChar: degree
Encoding: 176 176 111
Width: 1202
Flags: W
LayerCount: 2
Back
Fore
SplineSet
457 1207 m 0,0,1
 460 1260 460 1260 482.5 1309.5 c 128,-1,2
 505 1359 505 1359 542 1396.5 c 128,-1,3
 579 1434 579 1434 628 1456 c 128,-1,4
 677 1478 677 1478 732 1477 c 0,5,6
 782 1476 782 1476 822.5 1454.5 c 128,-1,7
 863 1433 863 1433 891.5 1398 c 128,-1,8
 920 1363 920 1363 935 1318 c 128,-1,9
 950 1273 950 1273 947 1225 c 0,10,11
 944 1172 944 1172 922 1123.5 c 128,-1,12
 900 1075 900 1075 864 1038.5 c 128,-1,13
 828 1002 828 1002 780 980 c 128,-1,14
 732 958 732 958 678 959 c 0,15,16
 628 960 628 960 586 980.5 c 128,-1,17
 544 1001 544 1001 514.5 1035 c 128,-1,18
 485 1069 485 1069 469.5 1113.5 c 128,-1,19
 454 1158 454 1158 457 1207 c 0,0,1
579 1210 m 0,20,21
 577 1185 577 1185 584 1163 c 128,-1,22
 591 1141 591 1141 605.5 1124 c 128,-1,23
 620 1107 620 1107 641 1097 c 128,-1,24
 662 1087 662 1087 688 1087 c 0,25,26
 715 1087 715 1087 739.5 1098.5 c 128,-1,27
 764 1110 764 1110 782.5 1128.5 c 128,-1,28
 801 1147 801 1147 812.5 1171 c 128,-1,29
 824 1195 824 1195 826 1222 c 0,30,31
 828 1246 828 1246 822 1269 c 128,-1,32
 816 1292 816 1292 802.5 1310 c 128,-1,33
 789 1328 789 1328 768.5 1339 c 128,-1,34
 748 1350 748 1350 722 1350 c 0,35,36
 694 1350 694 1350 669 1338 c 128,-1,37
 644 1326 644 1326 624.5 1306.5 c 128,-1,38
 605 1287 605 1287 593 1262 c 128,-1,39
 581 1237 581 1237 579 1210 c 0,20,21
EndSplineSet
EndChar
StartChar: plusminus
Encoding: 177 177 112
Width: 1202
Flags: W
LayerCount: 2
Back
Fore
SplineSet
728 855 m 1,0,-1
 1081 855 l 1,1,-1
 1057 703 l 1,2,-1
 705 703 l 1,3,-1
 640 289 l 1,4,-1
 475 289 l 1,5,-1
 541 703 l 1,6,-1
 167 703 l 1,7,-1
 191 855 l 1,8,-1
 564 855 l 1,9,-1
 629 1267 l 1,10,-1
 793 1267 l 1,11,-1
 728 855 l 1,0,-1
907 1 m 1,12,-1
 96 1 l 1,13,-1
 123 152 l 1,14,-1
 934 152 l 1,15,-1
 907 1 l 1,12,-1
EndSplineSet
EndChar
StartChar: twosuperior
Encoding: 178 178 113
Width: 1202
Flags: W
LayerCount: 2
Back
Fore
SplineSet
918 667 m 1,0,-1
 335 667 l 1,1,-1
 356 783 l 1,2,-1
 672 1048 l 2,3,4
 693 1066 693 1066 717 1087 c 128,-1,5
 741 1108 741 1108 763 1132 c 128,-1,6
 785 1156 785 1156 801 1183 c 128,-1,7
 817 1210 817 1210 821 1239 c 0,8,9
 828 1287 828 1287 801 1314 c 128,-1,10
 774 1341 774 1341 727 1342 c 0,11,12
 661 1343 661 1343 621.5 1305 c 128,-1,13
 582 1267 582 1267 568 1206 c 1,14,-1
 413 1205 l 1,15,16
 420 1267 420 1267 446.5 1316 c 128,-1,17
 473 1365 473 1365 515 1399.5 c 128,-1,18
 557 1434 557 1434 611 1452 c 128,-1,19
 665 1470 665 1470 727 1469 c 0,20,21
 779 1468 779 1468 826.5 1453.5 c 128,-1,22
 874 1439 874 1439 909 1410.5 c 128,-1,23
 944 1382 944 1382 964 1339 c 128,-1,24
 984 1296 984 1296 981 1239 c 0,25,26
 978 1190 978 1190 956 1147.5 c 128,-1,27
 934 1105 934 1105 901.5 1068 c 128,-1,28
 869 1031 869 1031 830.5 999 c 128,-1,29
 792 967 792 967 757 940 c 2,30,-1
 562 795 l 1,31,-1
 941 795 l 1,32,-1
 918 667 l 1,0,-1
EndSplineSet
EndChar
StartChar: threesuperior
Encoding: 179 179 114
Width: 1202
Flags: W
LayerCount: 2
Back
Fore
SplineSet
596 1125 m 1,0,-1
 676 1124 l 2,1,2
 703 1125 703 1125 731 1132 c 128,-1,3
 759 1139 759 1139 782 1153 c 128,-1,4
 805 1167 805 1167 821 1188.5 c 128,-1,5
 837 1210 837 1210 841 1241 c 0,6,7
 844 1266 844 1266 836.5 1284.5 c 128,-1,8
 829 1303 829 1303 814 1315 c 128,-1,9
 799 1327 799 1327 778.5 1333 c 128,-1,10
 758 1339 758 1339 735 1339 c 0,11,12
 685 1339 685 1339 647 1316.5 c 128,-1,13
 609 1294 609 1294 593 1246 c 1,14,-1
 437 1246 l 1,15,16
 443 1303 443 1303 470 1344.5 c 128,-1,17
 497 1386 497 1386 537.5 1413.5 c 128,-1,18
 578 1441 578 1441 628 1454.5 c 128,-1,19
 678 1468 678 1468 732 1467 c 0,20,21
 781 1467 781 1467 829.5 1454 c 128,-1,22
 878 1441 878 1441 915.5 1414.5 c 128,-1,23
 953 1388 953 1388 975 1347 c 128,-1,24
 997 1306 997 1306 994 1249 c 0,25,26
 992 1213 992 1213 978 1185 c 128,-1,27
 964 1157 964 1157 942 1135 c 128,-1,28
 920 1113 920 1113 892.5 1095.5 c 128,-1,29
 865 1078 865 1078 835 1065 c 1,30,31
 893 1044 893 1044 922.5 1000 c 128,-1,32
 952 956 952 956 950 894 c 0,33,34
 948 831 948 831 918.5 785.5 c 128,-1,35
 889 740 889 740 843.5 710.5 c 128,-1,36
 798 681 798 681 742 667.5 c 128,-1,37
 686 654 686 654 631 655 c 0,38,39
 577 656 577 656 528 671 c 128,-1,40
 479 686 479 686 442.5 715 c 128,-1,41
 406 744 406 744 384.5 787.5 c 128,-1,42
 363 831 363 831 363 889 c 1,43,-1
 515 889 l 1,44,45
 515 834 515 834 550 809.5 c 128,-1,46
 585 785 585 785 638 784 c 0,47,48
 666 784 666 784 693 791 c 128,-1,49
 720 798 720 798 742.5 812.5 c 128,-1,50
 765 827 765 827 780.5 849 c 128,-1,51
 796 871 796 871 800 901 c 0,52,53
 804 932 804 932 794.5 952.5 c 128,-1,54
 785 973 785 973 766.5 985 c 128,-1,55
 748 997 748 997 723.5 1002 c 128,-1,56
 699 1007 699 1007 672 1008 c 2,57,-1
 585 1009 l 1,58,-1
 596 1125 l 1,0,-1
EndSplineSet
EndChar
StartChar: acute
Encoding: 180 180 115
Width: 1202
Flags: W
LayerCount: 2
Back
Fore
SplineSet
708 1481 m 1,0,-1
 939 1481 l 1,1,-1
 637 1215 l 1,2,-1
 487 1215 l 1,3,-1
 708 1481 l 1,0,-1
EndSplineSet
EndChar
StartChar: mu
Encoding: 181 181 116
Width: 1202
Flags: W
LayerCount: 2
Back
Fore
SplineSet
446 1082 m 1,0,-1
 344 457 l 2,1,2
 340 425 340 425 337.5 388.5 c 128,-1,3
 335 352 335 352 337 316 c 128,-1,4
 339 280 339 280 347 247.5 c 128,-1,5
 355 215 355 215 372.5 189.5 c 128,-1,6
 390 164 390 164 419 148 c 128,-1,7
 448 132 448 132 492 131 c 0,8,9
 584 127 584 127 654.5 165.5 c 128,-1,10
 725 204 725 204 773 282 c 1,11,-1
 912 1082 l 1,12,-1
 1094 1082 l 1,13,-1
 906 0 l 1,14,-1
 744 0 l 1,15,-1
 763 116 l 1,16,17
 710 50 710 50 643.5 14 c 128,-1,18
 577 -22 577 -22 490 -21 c 0,19,20
 430 -20 430 -20 375 -3.5 c 128,-1,21
 320 13 320 13 275 54 c 1,22,-1
 186 -416 l 1,23,-1
 6 -416 l 1,24,-1
 266 1082 l 1,25,-1
 446 1082 l 1,0,-1
EndSplineSet
EndChar
StartChar: paragraph
Encoding: 182 182 117
Width: 1202
Flags: W
LayerCount: 2
Back
Fore
SplineSet
662 0 m 1,0,-1
 752 520 l 1,1,-1
 680 521 l 2,2,3
 579 524 579 524 499 558.5 c 128,-1,4
 419 593 419 593 365.5 653.5 c 128,-1,5
 312 714 312 714 287.5 797.5 c 128,-1,6
 263 881 263 881 272 982 c 0,7,8
 282 1092 282 1092 328.5 1179.5 c 128,-1,9
 375 1267 375 1267 448 1328.5 c 128,-1,10
 521 1390 521 1390 616 1423.5 c 128,-1,11
 711 1457 711 1457 819 1457 c 2,12,-1
 1096 1456 l 1,13,-1
 843 0 l 1,14,-1
 662 0 l 1,0,-1
EndSplineSet
EndChar
StartChar: periodcentered
Encoding: 183 183 118
Width: 1202
Flags: W
LayerCount: 2
Back
Fore
SplineSet
511 726 m 0,0,1
 512 775 512 775 543 807.5 c 128,-1,2
 574 840 574 840 624 842 c 0,3,4
 648 843 648 843 668.5 835 c 128,-1,5
 689 827 689 827 704 812 c 128,-1,6
 719 797 719 797 727 776.5 c 128,-1,7
 735 756 735 756 735 732 c 0,8,9
 734 683 734 683 702.5 651.5 c 128,-1,10
 671 620 671 620 623 618 c 0,11,12
 599 617 599 617 578 625 c 128,-1,13
 557 633 557 633 542 647 c 128,-1,14
 527 661 527 661 519 681.5 c 128,-1,15
 511 702 511 702 511 726 c 0,0,1
EndSplineSet
EndChar
StartChar: cedilla
Encoding: 184 184 119
Width: 1202
Flags: W
LayerCount: 2
Back
Fore
SplineSet
503 0 m 1,0,-1
 482 -55 l 1,1,2
 544 -70 544 -70 576 -112 c 128,-1,3
 608 -154 608 -154 606 -218 c 0,4,5
 604 -283 604 -283 572.5 -324.5 c 128,-1,6
 541 -366 541 -366 493 -390.5 c 128,-1,7
 445 -415 445 -415 388 -425 c 128,-1,8
 331 -435 331 -435 279 -437 c 1,9,-1
 283 -329 l 1,10,11
 310 -328 310 -328 339.5 -323 c 128,-1,12
 369 -318 369 -318 395 -306.5 c 128,-1,13
 421 -295 421 -295 440 -274.5 c 128,-1,14
 459 -254 459 -254 464 -222 c 0,15,16
 469 -192 469 -192 456 -175.5 c 128,-1,17
 443 -159 443 -159 421.5 -150.5 c 128,-1,18
 400 -142 400 -142 374 -139 c 128,-1,19
 348 -136 348 -136 327 -133 c 1,20,-1
 372 0 l 1,21,-1
 503 0 l 1,0,-1
EndSplineSet
EndChar
StartChar: onesuperior
Encoding: 185 185 120
Width: 1202
Flags: W
LayerCount: 2
Back
Fore
SplineSet
747 665 m 1,0,-1
 594 665 l 1,1,-1
 698 1262 l 1,2,-1
 479 1206 l 1,3,-1
 502 1341 l 1,4,-1
 857 1454 l 1,5,-1
 879 1454 l 1,6,-1
 747 665 l 1,0,-1
EndSplineSet
EndChar
StartChar: ordmasculine
Encoding: 186 186 121
Width: 1202
Flags: W
LayerCount: 2
Back
Fore
SplineSet
352 1140 m 2,0,1
 361 1214 361 1214 393.5 1276.5 c 128,-1,2
 426 1339 426 1339 476 1384 c 128,-1,3
 526 1429 526 1429 591.5 1453.5 c 128,-1,4
 657 1478 657 1478 733 1476 c 0,5,6
 805 1474 805 1474 861 1448 c 128,-1,7
 917 1422 917 1422 954.5 1377 c 128,-1,8
 992 1332 992 1332 1009 1271.5 c 128,-1,9
 1026 1211 1026 1211 1019 1141 c 2,10,-1
 1006 1024 l 2,11,12
 997 950 997 950 965 888 c 128,-1,13
 933 826 933 826 883.5 781 c 128,-1,14
 834 736 834 736 769 712 c 128,-1,15
 704 688 704 688 628 690 c 0,16,17
 556 692 556 692 499.5 718 c 128,-1,18
 443 744 443 744 405.5 788.5 c 128,-1,19
 368 833 368 833 350.5 893.5 c 128,-1,20
 333 954 333 954 339 1024 c 2,21,-1
 352 1140 l 2,0,1
502 1022 m 2,22,23
 499 984 499 984 505.5 949.5 c 128,-1,24
 512 915 512 915 529 888 c 128,-1,25
 546 861 546 861 575.5 844.5 c 128,-1,26
 605 828 605 828 647 827 c 0,27,28
 690 826 690 826 724.5 841.5 c 128,-1,29
 759 857 759 857 784 884 c 128,-1,30
 809 911 809 911 824.5 947 c 128,-1,31
 840 983 840 983 846 1023 c 2,32,-1
 859 1142 l 2,33,34
 862 1179 862 1179 855.5 1214 c 128,-1,35
 849 1249 849 1249 831.5 1276 c 128,-1,36
 814 1303 814 1303 785 1319.5 c 128,-1,37
 756 1336 756 1336 714 1337 c 0,38,39
 670 1338 670 1338 635.5 1323 c 128,-1,40
 601 1308 601 1308 576 1281 c 128,-1,41
 551 1254 551 1254 535.5 1218 c 128,-1,42
 520 1182 520 1182 514 1142 c 2,43,-1
 502 1022 l 2,22,23
EndSplineSet
EndChar
StartChar: questiondown
Encoding: 191 191 126
Width: 1202
Flags: W
LayerCount: 2
Back
Fore
SplineSet
708 674 m 1,0,1
 702 611 702 611 689 564.5 c 128,-1,2
 676 518 676 518 654 478.5 c 128,-1,3
 632 439 632 439 599 403 c 128,-1,4
 566 367 566 367 520 326 c 0,5,6
 482 293 482 293 442 255 c 128,-1,7
 402 217 402 217 368 174 c 128,-1,8
 334 131 334 131 309.5 83.5 c 128,-1,9
 285 36 285 36 278 -17 c 0,10,11
 272 -64 272 -64 280 -103 c 128,-1,12
 288 -142 288 -142 310 -170.5 c 128,-1,13
 332 -199 332 -199 367.5 -215.5 c 128,-1,14
 403 -232 403 -232 452 -233 c 0,15,16
 549 -235 549 -235 615.5 -181 c 128,-1,17
 682 -127 682 -127 701 -33 c 1,18,-1
 881 -32 l 1,19,20
 871 -118 871 -118 832.5 -186 c 128,-1,21
 794 -254 794 -254 735.5 -300.5 c 128,-1,22
 677 -347 677 -347 601.5 -371 c 128,-1,23
 526 -395 526 -395 441 -393 c 0,24,25
 358 -391 358 -391 290.5 -365 c 128,-1,26
 223 -339 223 -339 176.5 -291 c 128,-1,27
 130 -243 130 -243 108 -175 c 128,-1,28
 86 -107 86 -107 94 -22 c 0,29,30
 101 54 101 54 131 119 c 128,-1,31
 161 184 161 184 205.5 240 c 128,-1,32
 250 296 250 296 304 346 c 128,-1,33
 358 396 358 396 412 442 c 0,34,35
 441 467 441 467 461.5 492.5 c 128,-1,36
 482 518 482 518 495.5 545.5 c 128,-1,37
 509 573 509 573 517.5 604.5 c 128,-1,38
 526 636 526 636 531 673 c 1,39,-1
 708 674 l 1,0,1
561 985 m 0,40,41
 562 1034 562 1034 593 1067 c 128,-1,42
 624 1100 624 1100 674 1102 c 0,43,44
 723 1103 723 1103 754.5 1071.5 c 128,-1,45
 786 1040 786 1040 785 991 c 256,46,47
 784 942 784 942 752.5 911 c 128,-1,48
 721 880 721 880 672 878 c 0,49,50
 648 877 648 877 627.5 884.5 c 128,-1,51
 607 892 607 892 592 906.5 c 128,-1,52
 577 921 577 921 569 941 c 128,-1,53
 561 961 561 961 561 985 c 0,40,41
EndSplineSet
EndChar
StartChar: AE
Encoding: 198 198 127
Width: 1202
Flags: W
LayerCount: 2
Back
Fore
SplineSet
1056 0 m 1,0,-1
 540 0 l 1,1,-1
 600 353 l 1,2,-1
 305 353 l 1,3,-1
 123 0 l 1,4,-1
 -78 0 l 1,5,-1
 718 1456 l 1,6,-1
 1286 1456 l 1,7,-1
 1259 1304 l 1,8,-1
 932 1304 l 1,9,-1
 854 833 l 1,10,-1
 1146 833 l 1,11,-1
 1120 682 l 1,12,-1
 827 682 l 1,13,-1
 736 151 l 1,14,-1
 1083 151 l 1,15,-1
 1056 0 l 1,0,-1
393 527 m 1,16,-1
 630 527 l 1,17,-1
 749 1218 l 1,18,-1
 393 527 l 1,16,-1
EndSplineSet
EndChar
StartChar: multiply
Encoding: 215 215 128
Width: 1202
Flags: W
LayerCount: 2
Back
Fore
SplineSet
129 338 m 1,0,-1
 509 674 l 1,1,-1
 248 1008 l 1,2,-1
 377 1123 l 1,3,-1
 637 789 l 1,4,-1
 1014 1123 l 1,5,-1
 1116 991 l 1,6,-1
 739 658 l 1,7,-1
 1002 320 l 1,8,-1
 874 206 l 1,9,-1
 610 542 l 1,10,-1
 231 206 l 1,11,-1
 129 338 l 1,0,-1
EndSplineSet
EndChar
StartChar: Oslash
Encoding: 216 216 129
Width: 1202
Flags: W
LayerCount: 2
Back
Fore
SplineSet
1089 645 m 2,0,1
 1076 568 1076 568 1052.5 488.5 c 128,-1,2
 1029 409 1029 409 993.5 334.5 c 128,-1,3
 958 260 958 260 910 194 c 128,-1,4
 862 128 862 128 800.5 80 c 128,-1,5
 739 32 739 32 663.5 5 c 128,-1,6
 588 -22 588 -22 498 -20 c 0,7,8
 410 -18 410 -18 345.5 12.5 c 128,-1,9
 281 43 281 43 233 94 c 1,10,-1
 93 -93 l 1,11,-1
 -58 -93 l 1,12,-1
 161 200 l 1,13,14
 137 249 137 249 122.5 304 c 128,-1,15
 108 359 108 359 101 416.5 c 128,-1,16
 94 474 94 474 95 532 c 128,-1,17
 96 590 96 590 104 644 c 2,18,-1
 130 810 l 2,19,20
 142 887 142 887 166 966.5 c 128,-1,21
 190 1046 190 1046 225.5 1120.5 c 128,-1,22
 261 1195 261 1195 309.5 1261 c 128,-1,23
 358 1327 358 1327 419.5 1375.5 c 128,-1,24
 481 1424 481 1424 556.5 1451 c 128,-1,25
 632 1478 632 1478 722 1476 c 0,26,27
 821 1474 821 1474 891.5 1436 c 128,-1,28
 962 1398 962 1398 1010 1336 c 1,29,-1
 1144 1516 l 1,30,-1
 1295 1516 l 1,31,-1
 1074 1221 l 1,32,33
 1093 1174 1093 1174 1104 1122.5 c 128,-1,34
 1115 1071 1115 1071 1120 1018 c 128,-1,35
 1125 965 1125 965 1123.5 912.5 c 128,-1,36
 1122 860 1122 860 1115 810 c 2,37,-1
 1089 645 l 2,0,1
281 643 m 2,38,39
 272 583 272 583 270.5 509 c 128,-1,40
 269 435 269 435 284 364 c 1,41,-1
 901 1191 l 1,42,43
 875 1243 875 1243 828.5 1276.5 c 128,-1,44
 782 1310 782 1310 710 1312 c 0,45,46
 645 1314 645 1314 592.5 1292.5 c 128,-1,47
 540 1271 540 1271 498.5 1232.5 c 128,-1,48
 457 1194 457 1194 425.5 1143.5 c 128,-1,49
 394 1093 394 1093 371 1036.5 c 128,-1,50
 348 980 348 980 333 922 c 128,-1,51
 318 864 318 864 309 812 c 2,52,-1
 281 643 l 2,38,39
936 814 m 2,53,54
 943 864 943 864 946 923.5 c 128,-1,55
 949 983 949 983 942 1043 c 1,56,-1
 336 233 l 1,57,58
 364 193 364 193 406 168.5 c 128,-1,59
 448 144 448 144 510 142 c 0,60,61
 575 140 575 140 628 161.5 c 128,-1,62
 681 183 681 183 722 221.5 c 128,-1,63
 763 260 763 260 794 311 c 128,-1,64
 825 362 825 362 847.5 418.5 c 128,-1,65
 870 475 870 475 885 533 c 128,-1,66
 900 591 900 591 909 644 c 2,67,-1
 936 814 l 2,53,54
EndSplineSet
EndChar
StartChar: Thorn
Encoding: 222 222 130
Width: 1202
Flags: W
LayerCount: 2
Back
Fore
SplineSet
492 1456 m 1,0,-1
 441 1163 l 1,1,-1
 697 1162 l 2,2,3
 790 1159 790 1159 868.5 1130.5 c 128,-1,4
 947 1102 947 1102 1003 1049 c 128,-1,5
 1059 996 1059 996 1087.5 919.5 c 128,-1,6
 1116 843 1116 843 1108 745 c 0,7,8
 1099 638 1099 638 1052 557 c 128,-1,9
 1005 476 1005 476 932.5 421.5 c 128,-1,10
 860 367 860 367 767 339.5 c 128,-1,11
 674 312 674 312 573 312 c 2,12,-1
 294 313 l 1,13,-1
 239 0 l 1,14,-1
 58 0 l 1,15,-1
 311 1456 l 1,16,-1
 492 1456 l 1,0,-1
415 1011 m 1,17,-1
 320 465 l 1,18,-1
 577 463 l 2,19,20
 642 463 642 463 702 481.5 c 128,-1,21
 762 500 762 500 809 536 c 128,-1,22
 856 572 856 572 887.5 624 c 128,-1,23
 919 676 919 676 928 744 c 0,24,25
 935 803 935 803 921.5 851 c 128,-1,26
 908 899 908 899 877 933.5 c 128,-1,27
 846 968 846 968 799 988 c 128,-1,28
 752 1008 752 1008 694 1010 c 2,29,-1
 415 1011 l 1,17,-1
EndSplineSet
EndChar
StartChar: germandbls
Encoding: 223 223 131
Width: 1202
Flags: W
LayerCount: 2
Back
Fore
SplineSet
239 0 m 1,0,-1
 59 0 l 1,1,-1
 245 1087 l 2,2,3
 258 1177 258 1177 291.5 1263 c 128,-1,4
 325 1349 325 1349 380.5 1415.5 c 128,-1,5
 436 1482 436 1482 513.5 1521.5 c 128,-1,6
 591 1561 591 1561 693 1558 c 0,7,8
 766 1556 766 1556 824.5 1532 c 128,-1,9
 883 1508 883 1508 923 1465 c 128,-1,10
 963 1422 963 1422 982.5 1362 c 128,-1,11
 1002 1302 1002 1302 996 1229 c 0,12,13
 991 1167 991 1167 965 1116 c 128,-1,14
 939 1065 939 1065 908.5 1017 c 128,-1,15
 878 969 878 969 850 920 c 128,-1,16
 822 871 822 871 813 813 c 0,17,18
 805 768 805 768 818 728 c 128,-1,19
 831 688 831 688 855 650.5 c 128,-1,20
 879 613 879 613 908.5 576 c 128,-1,21
 938 539 938 539 963.5 500 c 128,-1,22
 989 461 989 461 1005 418 c 128,-1,23
 1021 375 1021 375 1018 325 c 0,24,25
 1013 245 1013 245 983.5 180.5 c 128,-1,26
 954 116 954 116 904.5 70 c 128,-1,27
 855 24 855 24 787.5 0 c 128,-1,28
 720 -24 720 -24 641 -23 c 0,29,30
 605 -23 605 -23 566.5 -19 c 128,-1,31
 528 -15 528 -15 491 -6.5 c 128,-1,32
 454 2 454 2 418.5 16 c 128,-1,33
 383 30 383 30 353 50 c 1,34,-1
 407 206 l 1,35,36
 455 173 455 173 512 151 c 128,-1,37
 569 129 569 129 628 129 c 0,38,39
 671 129 671 129 707 142 c 128,-1,40
 743 155 743 155 770.5 179.5 c 128,-1,41
 798 204 798 204 815.5 238.5 c 128,-1,42
 833 273 833 273 839 315 c 0,43,44
 846 363 846 363 831.5 404 c 128,-1,45
 817 445 817 445 792.5 483 c 128,-1,46
 768 521 768 521 738 558.5 c 128,-1,47
 708 596 708 596 682.5 635.5 c 128,-1,48
 657 675 657 675 641.5 719.5 c 128,-1,49
 626 764 626 764 631 816 c 0,50,51
 634 855 634 855 648.5 889 c 128,-1,52
 663 923 663 923 682.5 954.5 c 128,-1,53
 702 986 702 986 724 1016 c 128,-1,54
 746 1046 746 1046 766 1077.5 c 128,-1,55
 786 1109 786 1109 801 1142.5 c 128,-1,56
 816 1176 816 1176 821 1214 c 0,57,58
 825 1248 825 1248 819.5 1282 c 128,-1,59
 814 1316 814 1316 798.5 1343.5 c 128,-1,60
 783 1371 783 1371 756 1388.5 c 128,-1,61
 729 1406 729 1406 690 1408 c 0,62,63
 625 1411 625 1411 578.5 1381 c 128,-1,64
 532 1351 532 1351 500 1303.5 c 128,-1,65
 468 1256 468 1256 450 1198 c 128,-1,66
 432 1140 432 1140 424 1088 c 2,67,-1
 239 0 l 1,0,-1
EndSplineSet
Substitution2: "'smcp' Lowercase to Small Capitals lookup 0 subtable" Germandbls.smcp
EndChar
StartChar: ae
Encoding: 230 230 132
Width: 1202
Flags: W
LayerCount: 2
Back
Fore
SplineSet
776 -19 m 0,0,1
 735 -19 735 -19 695.5 -10.5 c 128,-1,2
 656 -2 656 -2 621.5 15.5 c 128,-1,3
 587 33 587 33 558.5 60 c 128,-1,4
 530 87 530 87 511 125 c 1,5,6
 484 93 484 93 454 66 c 128,-1,7
 424 39 424 39 390.5 19.5 c 128,-1,8
 357 0 357 0 318.5 -10.5 c 128,-1,9
 280 -21 280 -21 237 -20 c 0,10,11
 172 -19 172 -19 124 4.5 c 128,-1,12
 76 28 76 28 44.5 68 c 128,-1,13
 13 108 13 108 -1 162 c 128,-1,14
 -15 216 -15 216 -12 277 c 0,15,16
 -6 370 -6 370 31.5 437.5 c 128,-1,17
 69 505 69 505 129 549.5 c 128,-1,18
 189 594 189 594 266.5 615 c 128,-1,19
 344 636 344 636 430 636 c 2,20,-1
 496 635 l 1,21,-1
 522 784 l 2,22,23
 525 812 525 812 523.5 841.5 c 128,-1,24
 522 871 522 871 512.5 895 c 128,-1,25
 503 919 503 919 482.5 934.5 c 128,-1,26
 462 950 462 950 427 951 c 0,27,28
 391 952 391 952 364.5 939 c 128,-1,29
 338 926 338 926 319.5 903.5 c 128,-1,30
 301 881 301 881 289.5 852 c 128,-1,31
 278 823 278 823 272 792 c 1,32,-1
 97 800 l 1,33,34
 104 870 104 870 131.5 926.5 c 128,-1,35
 159 983 159 983 203.5 1022.5 c 128,-1,36
 248 1062 248 1062 307.5 1083 c 128,-1,37
 367 1104 367 1104 438 1103 c 0,38,39
 471 1103 471 1103 504 1097 c 128,-1,40
 537 1091 537 1091 566 1078.5 c 128,-1,41
 595 1066 595 1066 620.5 1045.5 c 128,-1,42
 646 1025 646 1025 664 996 c 1,43,44
 715 1045 715 1045 774.5 1074 c 128,-1,45
 834 1103 834 1103 906 1102 c 0,46,47
 985 1100 985 1100 1040 1068.5 c 128,-1,48
 1095 1037 1095 1037 1128 985.5 c 128,-1,49
 1161 934 1161 934 1172.5 868 c 128,-1,50
 1184 802 1184 802 1177 731 c 1,51,-1
 1140 497 l 1,52,-1
 651 497 l 1,53,-1
 639 410 l 2,54,55
 633 357 633 357 637 307 c 128,-1,56
 641 257 641 257 660.5 218.5 c 128,-1,57
 680 180 680 180 718.5 156 c 128,-1,58
 757 132 757 132 819 132 c 0,59,60
 876 131 876 131 923.5 151 c 128,-1,61
 971 171 971 171 1017 200 c 1,62,-1
 1052 62 l 1,63,64
 1024 39 1024 39 990.5 23 c 128,-1,65
 957 7 957 7 921 -2.5 c 128,-1,66
 885 -12 885 -12 848 -15.5 c 128,-1,67
 811 -19 811 -19 776 -19 c 0,0,1
890 952 m 0,68,69
 840 953 840 953 804 931 c 128,-1,70
 768 909 768 909 743.5 873.5 c 128,-1,71
 719 838 719 838 703.5 794.5 c 128,-1,72
 688 751 688 751 681 710 c 2,73,-1
 669 640 l 1,74,-1
 993 640 l 1,75,-1
 1011 769 l 2,76,77
 1014 800 1014 800 1009 832 c 128,-1,78
 1004 864 1004 864 990 890.5 c 128,-1,79
 976 917 976 917 951.5 933.5 c 128,-1,80
 927 950 927 950 890 952 c 0,68,69
279 129 m 0,81,82
 301 129 301 129 321 135 c 128,-1,83
 341 141 341 141 360 151.5 c 128,-1,84
 379 162 379 162 396 175.5 c 128,-1,85
 413 189 413 189 429 202 c 1,86,-1
 481 497 l 1,87,-1
 427 497 l 2,88,89
 378 496 378 496 333.5 479.5 c 128,-1,90
 289 463 289 463 253.5 434 c 128,-1,91
 218 405 218 405 195 364 c 128,-1,92
 172 323 172 323 166 273 c 0,93,94
 163 244 163 244 168.5 218 c 128,-1,95
 174 192 174 192 188.5 172 c 128,-1,96
 203 152 203 152 225.5 140.5 c 128,-1,97
 248 129 248 129 279 129 c 0,81,82
EndSplineSet
EndChar
StartChar: eth
Encoding: 240 240 133
Width: 1202
Flags: W
LayerCount: 2
Back
Fore
SplineSet
938 1284 m 1,0,1
 1018 1130 1018 1130 1039.5 968 c 128,-1,2
 1061 806 1061 806 1039 635 c 2,3,-1
 1031 572 l 2,4,5
 1016 458 1016 458 971.5 350.5 c 128,-1,6
 927 243 927 243 854.5 159.5 c 128,-1,7
 782 76 782 76 682 26.5 c 128,-1,8
 582 -23 582 -23 456 -20 c 0,9,10
 357 -17 357 -17 277.5 21.5 c 128,-1,11
 198 60 198 60 144 125 c 128,-1,12
 90 190 90 190 65 276 c 128,-1,13
 40 362 40 362 49 459 c 0,14,15
 59 567 59 567 103.5 662.5 c 128,-1,16
 148 758 148 758 220 829 c 128,-1,17
 292 900 292 900 387.5 940 c 128,-1,18
 483 980 483 980 595 977 c 0,19,20
 676 975 676 975 746 942.5 c 128,-1,21
 816 910 816 910 870 853 c 1,22,23
 872 944 872 944 849 1030 c 128,-1,24
 826 1116 826 1116 776 1193 c 1,25,-1
 489 1041 l 1,26,-1
 431 1148 l 1,27,-1
 684 1281 l 1,28,29
 649 1309 649 1309 611 1328 c 128,-1,30
 573 1347 573 1347 531 1363 c 1,31,-1
 602 1520 l 1,32,33
 674 1497 674 1497 737 1461.5 c 128,-1,34
 800 1426 800 1426 854 1375 c 1,35,-1
 1104 1508 l 1,36,-1
 1162 1399 l 1,37,-1
 938 1284 l 1,0,1
868 687 m 1,38,39
 849 726 849 726 818 752.5 c 128,-1,40
 787 779 787 779 749 795.5 c 128,-1,41
 711 812 711 812 669 819.5 c 128,-1,42
 627 827 627 827 587 827 c 0,43,44
 511 828 511 828 449 796.5 c 128,-1,45
 387 765 387 765 341 713 c 128,-1,46
 295 661 295 661 267 594.5 c 128,-1,47
 239 528 239 528 231 459 c 0,48,49
 223 399 223 399 234.5 341 c 128,-1,50
 246 283 246 283 276 237 c 128,-1,51
 306 191 306 191 354.5 161.5 c 128,-1,52
 403 132 403 132 469 130 c 0,53,54
 558 127 558 127 624.5 167.5 c 128,-1,55
 691 208 691 208 737.5 273 c 128,-1,56
 784 338 784 338 811.5 417 c 128,-1,57
 839 496 839 496 851 571 c 2,58,-1
 861 635 l 1,59,-1
 868 687 l 1,38,39
EndSplineSet
Substitution2: "'smcp' Lowercase to Small Capitals lookup 0 subtable" Eth.smcp
EndChar
StartChar: divide
Encoding: 247 247 134
Width: 1202
Flags: W
LayerCount: 2
Back
Fore
SplineSet
1080 600 m 1,0,-1
 111 600 l 1,1,-1
 143 784 l 1,2,-1
 1113 784 l 1,3,-1
 1080 600 l 1,0,-1
578 1094 m 256,4,5
 579 1141 579 1141 608 1172 c 128,-1,6
 637 1203 637 1203 684 1205 c 0,7,8
 707 1206 707 1206 727 1198.5 c 128,-1,9
 747 1191 747 1191 761 1176.5 c 128,-1,10
 775 1162 775 1162 783 1142.5 c 128,-1,11
 791 1123 791 1123 791 1100 c 0,12,13
 790 1053 790 1053 760 1023 c 128,-1,14
 730 993 730 993 684 991 c 0,15,16
 637 989 637 989 607 1018 c 128,-1,17
 577 1047 577 1047 578 1094 c 256,4,5
435 279 m 0,18,19
 435 326 435 326 464.5 357 c 128,-1,20
 494 388 494 388 541 390 c 0,21,22
 564 391 564 391 584 383.5 c 128,-1,23
 604 376 604 376 618 361.5 c 128,-1,24
 632 347 632 347 640 327.5 c 128,-1,25
 648 308 648 308 648 285 c 0,26,27
 647 238 647 238 617 208 c 128,-1,28
 587 178 587 178 541 176 c 0,29,30
 518 175 518 175 498.5 182.5 c 128,-1,31
 479 190 479 190 464.5 204 c 128,-1,32
 450 218 450 218 442.5 237 c 128,-1,33
 435 256 435 256 435 279 c 0,18,19
EndSplineSet
EndChar
StartChar: oslash
Encoding: 248 248 135
Width: 1202
Flags: W
LayerCount: 2
Back
Fore
SplineSet
110 544 m 2,0,1
 119 617 119 617 141.5 687.5 c 128,-1,2
 164 758 164 758 199 820.5 c 128,-1,3
 234 883 234 883 281.5 935.5 c 128,-1,4
 329 988 329 988 387.5 1025.5 c 128,-1,5
 446 1063 446 1063 515.5 1083.5 c 128,-1,6
 585 1104 585 1104 665 1102 c 0,7,8
 722 1100 722 1100 770.5 1087 c 128,-1,9
 819 1074 819 1074 860 1051 c 1,10,-1
 963 1209 l 1,11,-1
 1094 1209 l 1,12,-1
 946 983 l 1,13,14
 983 944 983 944 1008.5 894.5 c 128,-1,15
 1034 845 1034 845 1048.5 789.5 c 128,-1,16
 1063 734 1063 734 1066.5 674.5 c 128,-1,17
 1070 615 1070 615 1064 554 c 2,18,-1
 1062 531 l 1,19,20
 1048 422 1048 422 1003.5 321 c 128,-1,21
 959 220 959 220 888 143.5 c 128,-1,22
 817 67 817 67 720.5 22 c 128,-1,23
 624 -23 624 -23 506 -20 c 0,24,25
 452 -18 452 -18 406 -6.5 c 128,-1,26
 360 5 360 5 321 25 c 1,27,-1
 217 -135 l 1,28,-1
 86 -135 l 1,29,-1
 233 90 l 1,30,31
 194 129 194 129 167.5 178 c 128,-1,32
 141 227 141 227 125 282.5 c 128,-1,33
 109 338 109 338 105 399 c 128,-1,34
 101 460 101 460 107 522 c 2,35,-1
 110 544 l 2,0,1
288 522 m 2,36,37
 283 486 283 486 282.5 448.5 c 128,-1,38
 282 411 282 411 286.5 374 c 128,-1,39
 291 337 291 337 301.5 302 c 128,-1,40
 312 267 312 267 329 237 c 1,41,-1
 772 917 l 1,42,43
 724 948 724 948 657 951 c 0,44,45
 573 954 573 954 509 917.5 c 128,-1,46
 445 881 445 881 400 822 c 128,-1,47
 355 763 355 763 328 689.5 c 128,-1,48
 301 616 301 616 291 544 c 2,49,-1
 288 522 l 2,36,37
883 553 m 2,50,51
 887 587 887 587 887.5 623 c 128,-1,52
 888 659 888 659 884 695 c 128,-1,53
 880 731 880 731 871 765.5 c 128,-1,54
 862 800 862 800 847 830 c 1,55,-1
 407 157 l 1,56,57
 452 130 452 130 514 129 c 0,58,59
 597 126 597 126 661 162 c 128,-1,60
 725 198 725 198 770.5 256 c 128,-1,61
 816 314 816 314 843 386.5 c 128,-1,62
 870 459 870 459 881 531 c 1,63,-1
 883 553 l 2,50,51
EndSplineSet
EndChar
StartChar: thorn
Encoding: 254 254 136
Width: 1202
Flags: W
LayerCount: 2
Back
Fore
SplineSet
1043 535 m 2,0,1
 1035 469 1035 469 1017 401.5 c 128,-1,2
 999 334 999 334 970 272 c 128,-1,3
 941 210 941 210 901.5 156 c 128,-1,4
 862 102 862 102 811 62 c 128,-1,5
 760 22 760 22 696 -0.5 c 128,-1,6
 632 -23 632 -23 556 -21 c 0,7,8
 471 -19 471 -19 397 11.5 c 128,-1,9
 323 42 323 42 269 108 c 1,10,-1
 172 -416 l 1,11,-1
 -9 -416 l 1,12,-1
 334 1558 l 1,13,-1
 514 1558 l 1,14,-1
 404 969 l 1,15,16
 467 1035 467 1035 545 1069.5 c 128,-1,17
 623 1104 623 1104 717 1102 c 0,18,19
 790 1100 790 1100 845 1075.5 c 128,-1,20
 900 1051 900 1051 938.5 1010.5 c 128,-1,21
 977 970 977 970 1001.5 916.5 c 128,-1,22
 1026 863 1026 863 1038 803 c 128,-1,23
 1050 743 1050 743 1051 679.5 c 128,-1,24
 1052 616 1052 616 1046 556 c 2,25,-1
 1043 535 l 2,0,1
864 557 m 2,26,27
 869 597 869 597 869.5 641 c 128,-1,28
 870 685 870 685 864 727.5 c 128,-1,29
 858 770 858 770 843.5 809 c 128,-1,30
 829 848 829 848 804 877.5 c 128,-1,31
 779 907 779 907 742 925 c 128,-1,32
 705 943 705 943 654 945 c 0,33,34
 568 948 568 948 500.5 905.5 c 128,-1,35
 433 863 433 863 383 797 c 1,36,-1
 292 277 l 1,37,38
 323 207 323 207 378 169.5 c 128,-1,39
 433 132 433 132 511 130 c 0,40,41
 595 128 595 128 656.5 164.5 c 128,-1,42
 718 201 718 201 760.5 260 c 128,-1,43
 803 319 803 319 827.5 392 c 128,-1,44
 852 465 852 465 862 536 c 2,45,-1
 864 557 l 2,26,27
EndSplineSet
EndChar
StartChar: Aogonek
Encoding: 260 260 549
Width: 1202
Flags: W
LayerCount: 2
Back
Fore
SplineSet
978 0 m 1,0,-1
 983 -3 l 1,1,2
 951 -20 951 -20 918 -42.5 c 128,-1,3
 885 -65 885 -65 857 -92.5 c 128,-1,4
 829 -120 829 -120 809.5 -153.5 c 128,-1,5
 790 -187 790 -187 786 -226 c 0,6,7
 780 -292 780 -292 843 -293 c 0,8,9
 869 -295 869 -295 894 -287 c 128,-1,10
 919 -279 919 -279 942 -268 c 1,11,-1
 963 -391 l 1,12,13
 925 -413 925 -413 882.5 -423 c 128,-1,14
 840 -433 840 -433 796 -432 c 0,15,16
 715 -431 715 -431 669 -381 c 128,-1,17
 623 -331 623 -331 625 -250 c 0,18,19
 626 -202 626 -202 646 -160 c 128,-1,20
 666 -118 666 -118 697.5 -83 c 128,-1,21
 729 -48 729 -48 768.5 -19.5 c 128,-1,22
 808 9 808 9 849 32 c 1,23,-1
 807 377 l 1,24,-1
 338 377 l 1,25,-1
 158 0 l 1,26,-1
 -30 0 l 1,27,-1
 679 1456 l 1,28,-1
 831 1456 l 1,29,-1
 1026 0 l 1,30,-1
 978 0 l 1,0,-1
413 538 m 1,31,-1
 788 538 l 1,32,-1
 712 1168 l 1,33,-1
 413 538 l 1,31,-1
EndSplineSet
Substitution2: "'smcp' Lowercase to Small Capitals lookup 0 subtable" Aogonek.smcp
EndChar
StartChar: aogonek
Encoding: 261 261 550
Width: 1202
Flags: W
LayerCount: 2
Back
Fore
SplineSet
900 0 m 1,0,-1
 905 -3 l 1,1,2
 873 -20 873 -20 840 -42.5 c 128,-1,3
 807 -65 807 -65 779 -92.5 c 128,-1,4
 751 -120 751 -120 731.5 -153.5 c 128,-1,5
 712 -187 712 -187 708 -226 c 0,6,7
 702 -292 702 -292 765 -293 c 0,8,9
 791 -295 791 -295 816 -287 c 128,-1,10
 841 -279 841 -279 864 -268 c 1,11,-1
 885 -391 l 1,12,13
 847 -413 847 -413 804.5 -423 c 128,-1,14
 762 -433 762 -433 718 -432 c 0,15,16
 637 -431 637 -431 591 -381 c 128,-1,17
 545 -331 545 -331 547 -250 c 0,18,19
 548 -204 548 -204 566.5 -163.5 c 128,-1,20
 585 -123 585 -123 615 -88.5 c 128,-1,21
 645 -54 645 -54 682.5 -26 c 128,-1,22
 720 2 720 2 759 25 c 1,23,24
 755 48 755 48 756 71 c 128,-1,25
 757 94 757 94 759 118 c 1,26,27
 688 55 688 55 604.5 17 c 128,-1,28
 521 -21 521 -21 424 -19 c 0,29,30
 356 -18 356 -18 295.5 4 c 128,-1,31
 235 26 235 26 190.5 66 c 128,-1,32
 146 106 146 106 121.5 163 c 128,-1,33
 97 220 97 220 101 292 c 0,34,35
 105 362 105 362 129.5 416 c 128,-1,36
 154 470 154 470 193 510.5 c 128,-1,37
 232 551 232 551 283 579 c 128,-1,38
 334 607 334 607 391.5 624.5 c 128,-1,39
 449 642 449 642 510.5 649.5 c 128,-1,40
 572 657 572 657 632 657 c 2,41,-1
 838 656 l 1,42,-1
 851 742 l 2,43,44
 857 793 857 793 843.5 832 c 128,-1,45
 830 871 830 871 802 898 c 128,-1,46
 774 925 774 925 733.5 939 c 128,-1,47
 693 953 693 953 644 954 c 0,48,49
 601 955 601 955 559.5 945 c 128,-1,50
 518 935 518 935 483.5 914 c 128,-1,51
 449 893 449 893 424 860.5 c 128,-1,52
 399 828 399 828 389 783 c 1,53,-1
 208 782 l 1,54,55
 217 864 217 864 261 924.5 c 128,-1,56
 305 985 305 985 369.5 1025 c 128,-1,57
 434 1065 434 1065 511 1084.5 c 128,-1,58
 588 1104 588 1104 662 1103 c 0,59,60
 744 1101 744 1101 815 1077 c 128,-1,61
 886 1053 886 1053 936.5 1006.5 c 128,-1,62
 987 960 987 960 1013 893 c 128,-1,63
 1039 826 1039 826 1030 739 c 1,64,-1
 946 236 l 2,65,66
 937 181 937 181 936.5 126 c 128,-1,67
 936 71 936 71 949 17 c 1,68,-1
 947 0 l 1,69,-1
 900 0 l 1,0,-1
459 140 m 0,70,71
 555 138 555 138 638 183.5 c 128,-1,72
 721 229 721 229 777 305 c 1,73,-1
 816 525 l 1,74,-1
 661 526 l 2,75,76
 606 526 606 526 543.5 519 c 128,-1,77
 481 512 481 512 426 490 c 128,-1,78
 371 468 371 468 332 427 c 128,-1,79
 293 386 293 386 285 319 c 0,80,81
 280 276 280 276 291 243 c 128,-1,82
 302 210 302 210 326 187.5 c 128,-1,83
 350 165 350 165 384 153 c 128,-1,84
 418 141 418 141 459 140 c 0,70,71
EndSplineSet
Substitution2: "'smcp' Lowercase to Small Capitals lookup 0 subtable" Aogonek.smcp
EndChar
StartChar: Dcroat
Encoding: 272 272 485
Width: 1232
Flags: W
LayerCount: 2
Back
Fore
SplineSet
76 0 m 1,0,-1
 191 666 l 1,1,-1
 -30 666 l 1,2,-1
 -3 817 l 1,3,-1
 217 817 l 1,4,-1
 328 1456 l 1,5,-1
 644 1455 l 2,6,7
 788 1452 788 1452 893.5 1396.5 c 128,-1,8
 999 1341 999 1341 1064.5 1249.5 c 128,-1,9
 1130 1158 1130 1158 1154.5 1037 c 128,-1,10
 1179 916 1179 916 1162 781 c 2,11,-1
 1147 674 l 2,12,13
 1125 530 1125 530 1064.5 407 c 128,-1,14
 1004 284 1004 284 910 193.5 c 128,-1,15
 816 103 816 103 691 51.5 c 128,-1,16
 566 0 566 0 415 0 c 2,17,-1
 76 0 l 1,0,-1
589 666 m 1,18,-1
 375 666 l 1,19,-1
 286 151 l 1,20,-1
 419 150 l 2,21,22
 536 151 536 151 629 192 c 128,-1,23
 722 233 722 233 791 303.5 c 128,-1,24
 860 374 860 374 904 469.5 c 128,-1,25
 948 565 948 565 966 674 c 2,26,-1
 982 784 l 2,27,28
 995 880 995 880 984.5 971.5 c 128,-1,29
 974 1063 974 1063 934 1135.5 c 128,-1,30
 894 1208 894 1208 822.5 1253.5 c 128,-1,31
 751 1299 751 1299 641 1303 c 2,32,-1
 486 1304 l 1,33,-1
 401 817 l 1,34,-1
 616 817 l 1,35,-1
 589 666 l 1,18,-1
EndSplineSet
Substitution2: "'smcp' Lowercase to Small Capitals lookup 0 subtable" Dcroat.smcp
EndChar
StartChar: dcroat
Encoding: 273 273 995
Width: 1232
Flags: W
LayerCount: 2
Back
Fore
SplineSet
1322 1234 m 1,0,-1
 1131 1234 l 1,1,-1
 917 0 l 1,2,-1
 753 0 l 1,3,-1
 772 114 l 1,4,5
 709 47 709 47 631.5 12.5 c 128,-1,6
 554 -22 554 -22 461 -20 c 0,7,8
 391 -18 391 -18 336.5 6.5 c 128,-1,9
 282 31 282 31 242.5 72 c 128,-1,10
 203 113 203 113 177.5 166.5 c 128,-1,11
 152 220 152 220 138 279.5 c 128,-1,12
 124 339 124 339 121 401 c 128,-1,13
 118 463 118 463 124 522 c 2,14,-1
 126 543 l 2,15,16
 134 610 134 610 153 678 c 128,-1,17
 172 746 172 746 202 809 c 128,-1,18
 232 872 232 872 273.5 926 c 128,-1,19
 315 980 315 980 367.5 1020 c 128,-1,20
 420 1060 420 1060 485 1082 c 128,-1,21
 550 1104 550 1104 627 1102 c 0,22,23
 708 1100 708 1100 778 1070 c 128,-1,24
 848 1040 848 1040 899 974 c 1,25,-1
 947 1234 l 1,26,-1
 703 1234 l 1,27,-1
 730 1385 l 1,28,-1
 975 1385 l 1,29,-1
 1003 1536 l 1,30,-1
 1184 1536 l 1,31,-1
 1158 1385 l 1,32,-1
 1349 1385 l 1,33,-1
 1322 1234 l 1,0,-1
304 522 m 2,34,35
 299 482 299 482 299 438 c 128,-1,36
 299 394 299 394 305.5 351.5 c 128,-1,37
 312 309 312 309 326 271 c 128,-1,38
 340 233 340 233 365 203.5 c 128,-1,39
 390 174 390 174 427 156 c 128,-1,40
 464 138 464 138 515 137 c 0,41,42
 604 134 604 134 670.5 178 c 128,-1,43
 737 222 737 222 787 291 c 1,44,-1
 874 796 l 1,45,46
 845 865 845 865 791.5 904.5 c 128,-1,47
 738 944 738 944 661 946 c 0,48,49
 577 949 577 949 515 913 c 128,-1,50
 453 877 453 877 410 818.5 c 128,-1,51
 367 760 367 760 341.5 687.5 c 128,-1,52
 316 615 316 615 307 543 c 2,53,-1
 304 522 l 2,34,35
EndSplineSet
Substitution2: "'smcp' Lowercase to Small Capitals lookup 0 subtable" Dcroat.smcp
EndChar
StartChar: Eogonek
Encoding: 280 280 567
Width: 1202
Flags: W
LayerCount: 2
Back
Fore
SplineSet
959 673 m 1,0,-1
 370 673 l 1,1,-1
 280 157 l 1,2,-1
 968 157 l 1,3,-1
 940 0 l 1,4,-1
 854 0 l 1,5,-1
 859 -3 l 1,6,7
 827 -20 827 -20 794 -42.5 c 128,-1,8
 761 -65 761 -65 733 -92.5 c 128,-1,9
 705 -120 705 -120 685.5 -153.5 c 128,-1,10
 666 -187 666 -187 662 -226 c 0,11,12
 656 -292 656 -292 719 -293 c 0,13,14
 745 -295 745 -295 770 -287 c 128,-1,15
 795 -279 795 -279 818 -268 c 1,16,-1
 839 -391 l 1,17,18
 801 -413 801 -413 758.5 -423 c 128,-1,19
 716 -433 716 -433 672 -432 c 0,20,21
 591 -431 591 -431 545 -381 c 128,-1,22
 499 -331 499 -331 501 -250 c 0,23,24
 502 -210 502 -210 516.5 -174 c 128,-1,25
 531 -138 531 -138 554.5 -106.5 c 128,-1,26
 578 -75 578 -75 608.5 -48.5 c 128,-1,27
 639 -22 639 -22 672 0 c 1,28,-1
 72 0 l 1,29,-1
 325 1456 l 1,30,-1
 1185 1456 l 1,31,-1
 1157 1298 l 1,32,-1
 478 1298 l 1,33,-1
 397 830 l 1,34,-1
 987 830 l 1,35,-1
 959 673 l 1,0,-1
EndSplineSet
Substitution2: "'smcp' Lowercase to Small Capitals lookup 0 subtable" Eogonek.smcp
EndChar
StartChar: eogonek
Encoding: 281 281 568
Width: 1202
Flags: W
LayerCount: 2
Back
Fore
SplineSet
977 187 m 1,0,1
 929 121 929 121 863.5 75.5 c 128,-1,2
 798 30 798 30 723 6 c 1,3,4
 693 -11 693 -11 662 -32.5 c 128,-1,5
 631 -54 631 -54 605 -80.5 c 128,-1,6
 579 -107 579 -107 561.5 -139 c 128,-1,7
 544 -171 544 -171 541 -208 c 0,8,9
 535 -274 535 -274 598 -275 c 0,10,11
 624 -277 624 -277 649 -269 c 128,-1,12
 674 -261 674 -261 697 -250 c 1,13,-1
 718 -373 l 1,14,15
 680 -395 680 -395 637.5 -405 c 128,-1,16
 595 -415 595 -415 551 -414 c 0,17,18
 470 -413 470 -413 424 -363 c 128,-1,19
 378 -313 378 -313 380 -232 c 0,20,21
 382 -166 382 -166 417 -113 c 128,-1,22
 452 -60 452 -60 503 -18 c 1,23,24
 402 -9 402 -9 325.5 36 c 128,-1,25
 249 81 249 81 199.5 151 c 128,-1,26
 150 221 150 221 129 311 c 128,-1,27
 108 401 108 401 117 500 c 2,28,-1
 122 543 l 2,29,30
 130 614 130 614 153 683.5 c 128,-1,31
 176 753 176 753 212.5 816 c 128,-1,32
 249 879 249 879 297.5 932 c 128,-1,33
 346 985 346 985 405.5 1023.5 c 128,-1,34
 465 1062 465 1062 534.5 1083 c 128,-1,35
 604 1104 604 1104 681 1102 c 0,36,37
 793 1099 793 1099 870 1053.5 c 128,-1,38
 947 1008 947 1008 992 934 c 128,-1,39
 1037 860 1037 860 1052 765.5 c 128,-1,40
 1067 671 1067 671 1054 571 c 2,41,-1
 1041 488 l 1,42,-1
 296 488 l 1,43,44
 288 422 288 422 300.5 359 c 128,-1,45
 313 296 313 296 345 246 c 128,-1,46
 377 196 377 196 430 165 c 128,-1,47
 483 134 483 134 556 132 c 0,48,49
 650 129 650 129 729.5 169 c 128,-1,50
 809 209 809 209 873 275 c 1,51,-1
 977 187 l 1,0,1
672 950 m 0,52,53
 602 953 602 953 546 926.5 c 128,-1,54
 490 900 490 900 446.5 856 c 128,-1,55
 403 812 403 812 371 755 c 128,-1,56
 339 698 339 698 318 640 c 1,57,-1
 882 638 l 1,58,-1
 886 656 l 2,59,60
 895 711 895 711 885 763 c 128,-1,61
 875 815 875 815 847 856 c 128,-1,62
 819 897 819 897 775 922.5 c 128,-1,63
 731 948 731 948 672 950 c 0,52,53
EndSplineSet
Substitution2: "'smcp' Lowercase to Small Capitals lookup 0 subtable" Eogonek.smcp
EndChar
StartChar: Hbar
Encoding: 294 294 137
Width: 1202
Flags: W
LayerCount: 2
Back
Fore
SplineSet
1151 1167 m 1,0,-1
 1275 1167 l 1,1,-1
 1250 1024 l 1,2,-1
 1126 1024 l 1,3,-1
 948 0 l 1,4,-1
 777 0 l 1,5,-1
 894 673 l 1,6,-1
 316 673 l 1,7,-1
 199 0 l 1,8,-1
 29 0 l 1,9,-1
 207 1024 l 1,10,-1
 96 1024 l 1,11,-1
 121 1167 l 1,12,-1
 232 1167 l 1,13,-1
 282 1456 l 1,14,-1
 452 1456 l 1,15,-1
 402 1167 l 1,16,-1
 980 1167 l 1,17,-1
 1030 1456 l 1,18,-1
 1201 1456 l 1,19,-1
 1151 1167 l 1,0,-1
921 830 m 1,20,-1
 955 1024 l 1,21,-1
 377 1024 l 1,22,-1
 343 830 l 1,23,-1
 921 830 l 1,20,-1
EndSplineSet
EndChar
StartChar: hbar
Encoding: 295 295 487
Width: 1232
Flags: W
LayerCount: 2
Back
Fore
SplineSet
755 1234 m 1,0,-1
 485 1234 l 1,1,-1
 426 920 l 1,2,3
 459 960 459 960 497.5 994 c 128,-1,4
 536 1028 536 1028 579.5 1052 c 128,-1,5
 623 1076 623 1076 671.5 1089.5 c 128,-1,6
 720 1103 720 1103 774 1102 c 0,7,8
 866 1100 866 1100 928 1065 c 128,-1,9
 990 1030 990 1030 1026 972 c 128,-1,10
 1062 914 1062 914 1074 838.5 c 128,-1,11
 1086 763 1086 763 1077 681 c 1,12,-1
 963 0 l 1,13,-1
 782 0 l 1,14,-1
 897 684 l 2,15,16
 903 737 903 737 897 783.5 c 128,-1,17
 891 830 891 830 869 865.5 c 128,-1,18
 847 901 847 901 808.5 921.5 c 128,-1,19
 770 942 770 942 711 944 c 0,20,21
 665 945 665 945 623.5 933.5 c 128,-1,22
 582 922 582 922 544.5 900.5 c 128,-1,23
 507 879 507 879 473.5 850 c 128,-1,24
 440 821 440 821 412 787 c 1,25,-1
 275 0 l 1,26,-1
 94 0 l 1,27,-1
 308 1234 l 1,28,-1
 136 1234 l 1,29,-1
 163 1385 l 1,30,-1
 334 1385 l 1,31,-1
 361 1536 l 1,32,-1
 542 1536 l 1,33,-1
 513 1385 l 1,34,-1
 782 1385 l 1,35,-1
 755 1234 l 1,0,-1
EndSplineSet
EndChar
StartChar: iogonek
Encoding: 303 303 588
Width: 1202
Flags: W
LayerCount: 2
Back
Fore
SplineSet
280 1082 m 1,0,-1
 818 1082 l 1,1,-1
 658 160 l 1,2,-1
 1001 160 l 1,3,-1
 972 0 l 1,4,-1
 625 0 l 1,5,-1
 630 -3 l 1,6,7
 598 -20 598 -20 565 -42.5 c 128,-1,8
 532 -65 532 -65 504 -92.5 c 128,-1,9
 476 -120 476 -120 456.5 -153.5 c 128,-1,10
 437 -187 437 -187 433 -226 c 0,11,12
 427 -292 427 -292 490 -293 c 0,13,14
 516 -295 516 -295 541 -287 c 128,-1,15
 566 -279 566 -279 589 -268 c 1,16,-1
 610 -391 l 1,17,18
 572 -413 572 -413 529.5 -423 c 128,-1,19
 487 -433 487 -433 443 -432 c 0,20,21
 362 -431 362 -431 316 -381 c 128,-1,22
 270 -331 270 -331 272 -250 c 0,23,24
 273 -210 273 -210 287.5 -174 c 128,-1,25
 302 -138 302 -138 325.5 -106.5 c 128,-1,26
 349 -75 349 -75 379.5 -48.5 c 128,-1,27
 410 -22 410 -22 443 0 c 1,28,-1
 92 0 l 1,29,-1
 121 160 l 1,30,-1
 477 160 l 1,31,-1
 609 921 l 1,32,-1
 252 921 l 1,33,-1
 280 1082 l 1,0,-1
663 1363 m 0,34,35
 664 1411 664 1411 694 1442.5 c 128,-1,36
 724 1474 724 1474 772 1476 c 0,37,38
 796 1477 796 1477 815.5 1469 c 128,-1,39
 835 1461 835 1461 849.5 1447 c 128,-1,40
 864 1433 864 1433 871.5 1413 c 128,-1,41
 879 1393 879 1393 879 1369 c 0,42,43
 879 1321 879 1321 849 1291.5 c 128,-1,44
 819 1262 819 1262 771 1260 c 0,45,46
 724 1258 724 1258 693.5 1286.5 c 128,-1,47
 663 1315 663 1315 663 1363 c 0,34,35
EndSplineSet
Substitution2: "'smcp' Lowercase to Small Capitals lookup 0 subtable" Iogonek.smcp
EndChar
StartChar: dotlessi
Encoding: 305 305 138
Width: 1202
Flags: W
LayerCount: 2
Back
Fore
SplineSet
280 1082 m 1,0,-1
 818 1082 l 1,1,-1
 658 160 l 1,2,-1
 1001 160 l 1,3,-1
 972 0 l 1,4,-1
 92 0 l 1,5,-1
 121 160 l 1,6,-1
 477 160 l 1,7,-1
 609 921 l 1,8,-1
 252 921 l 1,9,-1
 280 1082 l 1,0,-1
EndSplineSet
EndChar
StartChar: IJ
Encoding: 306 306 139
Width: 1202
Flags: W
LayerCount: 2
Back
Fore
SplineSet
200 0 m 1,0,-1
 20 0 l 1,1,-1
 272 1456 l 1,2,-1
 453 1456 l 1,3,-1
 200 0 l 1,0,-1
1036 1456 m 1,4,-1
 1217 1456 l 1,5,-1
 1024 323 l 2,6,7
 1013 244 1013 244 983.5 180 c 128,-1,8
 954 116 954 116 907 71 c 128,-1,9
 860 26 860 26 794.5 2.5 c 128,-1,10
 729 -21 729 -21 647 -19 c 0,11,12
 571 -18 571 -18 515.5 8.5 c 128,-1,13
 460 35 460 35 424.5 81 c 128,-1,14
 389 127 389 127 373.5 188.5 c 128,-1,15
 358 250 358 250 362 322 c 1,16,-1
 545 321 l 1,17,18
 543 288 543 288 545.5 254.5 c 128,-1,19
 548 221 548 221 560 194 c 128,-1,20
 572 167 572 167 596 149.5 c 128,-1,21
 620 132 620 132 661 131 c 0,22,23
 706 130 706 130 738 144.5 c 128,-1,24
 770 159 770 159 792 185.5 c 128,-1,25
 814 212 814 212 826 247 c 128,-1,26
 838 282 838 282 844 322 c 2,27,-1
 1036 1456 l 1,4,-1
EndSplineSet
EndChar
StartChar: ij
Encoding: 307 307 140
Width: 1202
Flags: W
LayerCount: 2
Back
Fore
SplineSet
749 1082 m 1,0,-1
 1145 1082 l 1,1,-1
 959 -5 l 2,2,3
 945 -103 945 -103 907 -182.5 c 128,-1,4
 869 -262 869 -262 809 -318.5 c 128,-1,5
 749 -375 749 -375 667.5 -405 c 128,-1,6
 586 -435 586 -435 484 -435 c 0,7,8
 430 -435 430 -435 378 -430 c 128,-1,9
 326 -425 326 -425 273 -417 c 1,10,-1
 303 -259 l 1,11,12
 347 -267 347 -267 391.5 -270 c 128,-1,13
 436 -273 436 -273 481 -274 c 0,14,15
 545 -275 545 -275 596 -256.5 c 128,-1,16
 647 -238 647 -238 684.5 -203 c 128,-1,17
 722 -168 722 -168 745.5 -118 c 128,-1,18
 769 -68 769 -68 779 -6 c 2,19,-1
 936 921 l 1,20,-1
 720 921 l 1,21,-1
 749 1082 l 1,0,-1
166 1082 m 1,22,-1
 574 1082 l 1,23,-1
 414 160 l 1,24,-1
 631 160 l 1,25,-1
 603 0 l 1,26,-1
 -27 0 l 1,27,-1
 1 160 l 1,28,-1
 233 160 l 1,29,-1
 365 921 l 1,30,-1
 137 921 l 1,31,-1
 166 1082 l 1,22,-1
987 1360 m 0,32,33
 987 1408 987 1408 1016.5 1439 c 128,-1,34
 1046 1470 1046 1470 1094 1472 c 0,35,36
 1118 1473 1118 1473 1138 1465.5 c 128,-1,37
 1158 1458 1158 1458 1172.5 1443.5 c 128,-1,38
 1187 1429 1187 1429 1195 1409.5 c 128,-1,39
 1203 1390 1203 1390 1203 1366 c 0,40,41
 1202 1318 1202 1318 1172 1288 c 128,-1,42
 1142 1258 1142 1258 1094 1256 c 256,43,44
 1046 1254 1046 1254 1016 1283 c 128,-1,45
 986 1312 986 1312 987 1360 c 0,32,33
426 1359 m 256,46,47
 427 1407 427 1407 456.5 1438 c 128,-1,48
 486 1469 486 1469 534 1471 c 0,49,50
 558 1472 558 1472 578 1464.5 c 128,-1,51
 598 1457 598 1457 612 1442.5 c 128,-1,52
 626 1428 626 1428 634 1408.5 c 128,-1,53
 642 1389 642 1389 642 1365 c 0,54,55
 641 1317 641 1317 611.5 1287 c 128,-1,56
 582 1257 582 1257 534 1255 c 256,57,58
 486 1253 486 1253 455.5 1282 c 128,-1,59
 425 1311 425 1311 426 1359 c 256,46,47
EndSplineSet
EndChar
StartChar: kgreenlandic
Encoding: 312 312 141
Width: 1202
Flags: W
LayerCount: 2
Back
Fore
SplineSet
492 475 m 1,0,-1
 315 336 l 1,1,-1
 257 0 l 1,2,-1
 76 0 l 1,3,-1
 264 1082 l 1,4,-1
 445 1082 l 1,5,-1
 353 561 l 1,6,-1
 474 673 l 1,7,-1
 928 1082 l 1,8,-1
 1161 1082 l 1,9,-1
 626 594 l 1,10,-1
 994 0 l 1,11,-1
 780 0 l 1,12,-1
 492 475 l 1,0,-1
EndSplineSet
EndChar
StartChar: Lslash
Encoding: 321 321 142
Width: 1202
Flags: W
LayerCount: 2
Back
Fore
SplineSet
420 849 m 1,0,-1
 688 932 l 1,1,-1
 658 763 l 1,2,-1
 390 680 l 1,3,-1
 300 157 l 1,4,-1
 991 157 l 1,5,-1
 963 0 l 1,6,-1
 92 0 l 1,7,-1
 199 621 l 1,8,-1
 51 575 l 1,9,-1
 81 744 l 1,10,-1
 228 789 l 1,11,-1
 344 1456 l 1,12,-1
 525 1456 l 1,13,-1
 420 849 l 1,0,-1
EndSplineSet
EndChar
StartChar: lslash
Encoding: 322 322 143
Width: 1202
Flags: W
LayerCount: 2
Back
Fore
SplineSet
359 1536 m 1,0,-1
 897 1536 l 1,1,-1
 800 978 l 1,2,-1
 1103 1109 l 1,3,-1
 1076 939 l 1,4,-1
 770 806 l 1,5,-1
 658 160 l 1,6,-1
 1001 160 l 1,7,-1
 972 0 l 1,8,-1
 92 0 l 1,9,-1
 121 160 l 1,10,-1
 477 160 l 1,11,-1
 574 722 l 1,12,-1
 219 568 l 1,13,-1
 249 739 l 1,14,-1
 604 893 l 1,15,-1
 688 1375 l 1,16,-1
 330 1375 l 1,17,-1
 359 1536 l 1,0,-1
EndSplineSet
EndChar
StartChar: Eng
Encoding: 330 330 144
Width: 1202
Flags: W
LayerCount: 2
Back
Fore
SplineSet
1170 1456 m 1,0,-1
 907 -87 l 2,1,2
 897 -162 897 -162 870 -226.5 c 128,-1,3
 843 -291 843 -291 798.5 -338 c 128,-1,4
 754 -385 754 -385 692 -412 c 128,-1,5
 630 -439 630 -439 550 -439 c 0,6,7
 521 -439 521 -439 493 -434 c 128,-1,8
 465 -429 465 -429 437 -421 c 1,9,-1
 463 -273 l 1,10,11
 486 -280 486 -280 510.5 -284.5 c 128,-1,12
 535 -289 535 -289 559 -289 c 0,13,14
 599 -289 599 -289 628 -270.5 c 128,-1,15
 657 -252 657 -252 676.5 -223 c 128,-1,16
 696 -194 696 -194 707.5 -158.5 c 128,-1,17
 719 -123 719 -123 724 -89 c 2,18,-1
 740 14 l 1,19,-1
 433 1077 l 1,20,-1
 246 0 l 1,21,-1
 65 0 l 1,22,-1
 318 1456 l 1,23,-1
 493 1456 l 1,24,-1
 802 381 l 1,25,-1
 989 1456 l 1,26,-1
 1170 1456 l 1,0,-1
EndSplineSet
EndChar
StartChar: eng
Encoding: 331 331 145
Width: 1202
Flags: W
LayerCount: 2
Back
Fore
SplineSet
423 1083 m 1,0,-1
 400 928 l 1,1,2
 463 1008 463 1008 544.5 1056 c 128,-1,3
 626 1104 626 1104 732 1102 c 0,4,5
 823 1100 823 1100 884 1065 c 128,-1,6
 945 1030 945 1030 980 972 c 128,-1,7
 1015 914 1015 914 1025.5 839 c 128,-1,8
 1036 764 1036 764 1027 682 c 1,9,-1
 901 -89 l 2,10,11
 891 -165 891 -165 863.5 -229.5 c 128,-1,12
 836 -294 836 -294 790.5 -341 c 128,-1,13
 745 -388 745 -388 682 -414 c 128,-1,14
 619 -440 619 -440 538 -439 c 0,15,16
 507 -439 507 -439 477.5 -433.5 c 128,-1,17
 448 -428 448 -428 419 -419 c 1,18,-1
 449 -263 l 1,19,20
 473 -271 473 -271 498 -275 c 128,-1,21
 523 -279 523 -279 548 -279 c 0,22,23
 589 -279 589 -279 619 -263 c 128,-1,24
 649 -247 649 -247 669.5 -220.5 c 128,-1,25
 690 -194 690 -194 702 -159.5 c 128,-1,26
 714 -125 714 -125 720 -89 c 2,27,-1
 846 679 l 2,28,29
 852 732 852 732 848.5 780 c 128,-1,30
 845 828 845 828 825.5 864 c 128,-1,31
 806 900 806 900 768.5 921.5 c 128,-1,32
 731 943 731 943 670 945 c 0,33,34
 585 947 585 947 517 911.5 c 128,-1,35
 449 876 449 876 396 811 c 1,36,-1
 255 0 l 1,37,-1
 74 0 l 1,38,-1
 262 1082 l 1,39,-1
 423 1083 l 1,0,-1
EndSplineSet
EndChar
StartChar: OE
Encoding: 338 338 146
Width: 1202
Flags: W
LayerCount: 2
Back
Fore
SplineSet
1051 0 m 1,0,-1
 647 0 l 1,1,2
 582 -4 582 -4 518.5 -12 c 128,-1,3
 455 -20 455 -20 390 -18 c 0,4,5
 282 -15 282 -15 213 32 c 128,-1,6
 144 79 144 79 107 153 c 128,-1,7
 70 227 70 227 61 318.5 c 128,-1,8
 52 410 52 410 63 502 c 2,9,-1
 135 953 l 2,10,11
 150 1055 150 1055 185 1149.5 c 128,-1,12
 220 1244 220 1244 278.5 1317.5 c 128,-1,13
 337 1391 337 1391 422 1434.5 c 128,-1,14
 507 1478 507 1478 621 1478 c 0,15,16
 686 1477 686 1477 749 1468.5 c 128,-1,17
 812 1460 812 1460 876 1456 c 1,18,-1
 1294 1456 l 1,19,-1
 1267 1304 l 1,20,-1
 883 1304 l 1,21,-1
 800 828 l 1,22,-1
 1134 828 l 1,23,-1
 1107 676 l 1,24,-1
 774 676 l 1,25,-1
 682 151 l 1,26,-1
 1078 151 l 1,27,-1
 1051 0 l 1,0,-1
397 133 m 0,28,29
 421 132 421 132 445.5 132.5 c 128,-1,30
 470 133 470 133 494 133 c 1,31,-1
 707 1321 l 1,32,33
 684 1323 684 1323 660 1325 c 128,-1,34
 636 1327 636 1327 612 1327 c 0,35,36
 532 1328 532 1328 479 1295.5 c 128,-1,37
 426 1263 426 1263 393 1210 c 128,-1,38
 360 1157 360 1157 342 1090 c 128,-1,39
 324 1023 324 1023 315 956 c 2,40,-1
 244 501 l 2,41,42
 240 466 240 466 236.5 425.5 c 128,-1,43
 233 385 233 385 234 345 c 128,-1,44
 235 305 235 305 242.5 267.5 c 128,-1,45
 250 230 250 230 268.5 201 c 128,-1,46
 287 172 287 172 318 153.5 c 128,-1,47
 349 135 349 135 397 133 c 0,28,29
EndSplineSet
EndChar
StartChar: oe
Encoding: 339 339 147
Width: 1202
Flags: W
LayerCount: 2
Back
Fore
SplineSet
48 638 m 2,0,1
 59 720 59 720 86.5 803.5 c 128,-1,2
 114 887 114 887 161.5 954.5 c 128,-1,3
 209 1022 209 1022 279.5 1063.5 c 128,-1,4
 350 1105 350 1105 447 1103 c 0,5,6
 519 1101 519 1101 580 1069.5 c 128,-1,7
 641 1038 641 1038 677 974 c 1,8,9
 726 1029 726 1029 785.5 1066 c 128,-1,10
 845 1103 845 1103 921 1102 c 0,11,12
 978 1101 978 1101 1021 1082 c 128,-1,13
 1064 1063 1064 1063 1094 1031.5 c 128,-1,14
 1124 1000 1124 1000 1142.5 958 c 128,-1,15
 1161 916 1161 916 1170 869 c 128,-1,16
 1179 822 1179 822 1179.5 772.5 c 128,-1,17
 1180 723 1180 723 1175 677 c 2,18,-1
 1147 496 l 1,19,-1
 707 497 l 1,20,-1
 697 430 l 2,21,22
 694 408 694 408 691 378 c 128,-1,23
 688 348 688 348 688 315 c 128,-1,24
 688 282 688 282 692.5 250 c 128,-1,25
 697 218 697 218 709.5 192 c 128,-1,26
 722 166 722 166 743 149.5 c 128,-1,27
 764 133 764 133 798 132 c 0,28,29
 852 130 852 130 899.5 149.5 c 128,-1,30
 947 169 947 169 989 199 c 1,31,-1
 1033 72 l 1,32,33
 984 23 984 23 920.5 1 c 128,-1,34
 857 -21 857 -21 788 -19 c 0,35,36
 715 -18 715 -18 652 11.5 c 128,-1,37
 589 41 589 41 551 106 c 1,38,39
 498 47 498 47 433.5 12.5 c 128,-1,40
 369 -22 369 -22 288 -20 c 0,41,42
 227 -19 227 -19 181.5 2 c 128,-1,43
 136 23 136 23 104.5 57.5 c 128,-1,44
 73 92 73 92 53.5 138 c 128,-1,45
 34 184 34 184 24.5 234.5 c 128,-1,46
 15 285 15 285 14.5 338 c 128,-1,47
 14 391 14 391 20 441 c 2,48,-1
 48 638 l 2,0,1
203 439 m 2,49,50
 201 417 201 417 198 385.5 c 128,-1,51
 195 354 195 354 195 320 c 128,-1,52
 195 286 195 286 199.5 252 c 128,-1,53
 204 218 204 218 216.5 191 c 128,-1,54
 229 164 229 164 250.5 146.5 c 128,-1,55
 272 129 272 129 307 128 c 0,56,57
 344 126 344 126 372.5 141.5 c 128,-1,58
 401 157 401 157 422 182.5 c 128,-1,59
 443 208 443 208 457.5 241.5 c 128,-1,60
 472 275 472 275 481.5 310 c 128,-1,61
 491 345 491 345 496.5 379 c 128,-1,62
 502 413 502 413 506 440 c 2,63,-1
 533 640 l 2,64,65
 536 662 536 662 538.5 693.5 c 128,-1,66
 541 725 541 725 541 759.5 c 128,-1,67
 541 794 541 794 536 827.5 c 128,-1,68
 531 861 531 861 518.5 888.5 c 128,-1,69
 506 916 506 916 484 933.5 c 128,-1,70
 462 951 462 951 428 952 c 0,71,72
 391 953 391 953 362.5 938 c 128,-1,73
 334 923 334 923 313 897.5 c 128,-1,74
 292 872 292 872 277.5 838.5 c 128,-1,75
 263 805 263 805 253.5 769.5 c 128,-1,76
 244 734 244 734 238 700 c 128,-1,77
 232 666 232 666 229 639 c 2,78,-1
 203 439 l 2,49,50
721 642 m 1,79,-1
 991 648 l 1,80,-1
 1003 733 l 2,81,82
 1006 761 1006 761 1006 798.5 c 128,-1,83
 1006 836 1006 836 997 869 c 128,-1,84
 988 902 988 902 966.5 925.5 c 128,-1,85
 945 949 945 949 905 951 c 0,86,87
 873 952 873 952 848 937 c 128,-1,88
 823 922 823 922 804.5 896 c 128,-1,89
 786 870 786 870 772.5 837.5 c 128,-1,90
 759 805 759 805 749.5 771.5 c 128,-1,91
 740 738 740 738 734 707 c 128,-1,92
 728 676 728 676 723 654 c 2,93,-1
 721 642 l 1,79,-1
EndSplineSet
EndChar
StartChar: Tbar
Encoding: 358 358 488
Width: 1202
Flags: W
LayerCount: 2
Back
Fore
SplineSet
952 823 m 1,0,-1
 724 823 l 1,1,-1
 582 0 l 1,2,-1
 406 0 l 1,3,-1
 548 823 l 1,4,-1
 333 823 l 1,5,-1
 360 974 l 1,6,-1
 574 974 l 1,7,-1
 631 1298 l 1,8,-1
 194 1298 l 1,9,-1
 222 1456 l 1,10,-1
 1271 1456 l 1,11,-1
 1243 1298 l 1,12,-1
 807 1298 l 1,13,-1
 750 974 l 1,14,-1
 979 974 l 1,15,-1
 952 823 l 1,0,-1
EndSplineSet
Substitution2: "'smcp' Lowercase to Small Capitals lookup 0 subtable" Tbar.smcp
EndChar
StartChar: tbar
Encoding: 359 359 489
Width: 1202
Flags: W
LayerCount: 2
Back
Fore
SplineSet
822 602 m 1,0,-1
 597 602 l 1,1,-1
 555 350 l 2,2,3
 550 306 550 306 555.5 268 c 128,-1,4
 561 230 561 230 578 202 c 128,-1,5
 595 174 595 174 626.5 157 c 128,-1,6
 658 140 658 140 706 139 c 0,7,8
 761 137 761 137 815.5 147 c 128,-1,9
 870 157 870 157 924 169 c 1,10,-1
 941 36 l 1,11,12
 878 1 878 1 801 -10 c 128,-1,13
 724 -21 724 -21 653 -19 c 0,14,15
 572 -18 572 -18 516 12.5 c 128,-1,16
 460 43 460 43 426 93.5 c 128,-1,17
 392 144 392 144 379.5 210.5 c 128,-1,18
 367 277 367 277 374 351 c 1,19,-1
 416 602 l 1,20,-1
 203 602 l 1,21,-1
 230 753 l 1,22,-1
 441 753 l 1,23,-1
 472 939 l 1,24,-1
 196 939 l 1,25,-1
 221 1082 l 1,26,-1
 496 1082 l 1,27,-1
 542 1344 l 1,28,-1
 724 1344 l 1,29,-1
 678 1082 l 1,30,-1
 1078 1082 l 1,31,-1
 1053 939 l 1,32,-1
 653 939 l 1,33,-1
 622 753 l 1,34,-1
 849 753 l 1,35,-1
 822 602 l 1,0,-1
EndSplineSet
Substitution2: "'smcp' Lowercase to Small Capitals lookup 0 subtable" Tbar.smcp
EndChar
StartChar: Uogonek
Encoding: 370 370 648
Width: 1202
Flags: W
LayerCount: 2
Back
Fore
SplineSet
1205 1456 m 1,0,-1
 1038 471 l 2,1,2
 1026 392 1026 392 995 319 c 128,-1,3
 964 246 964 246 917 185 c 128,-1,4
 870 124 870 124 808.5 78 c 128,-1,5
 747 32 747 32 674 7 c 1,6,7
 649 -10 649 -10 626 -30 c 128,-1,8
 603 -50 603 -50 584.5 -73 c 128,-1,9
 566 -96 566 -96 554 -122.5 c 128,-1,10
 542 -149 542 -149 539 -179 c 0,11,12
 533 -245 533 -245 596 -246 c 0,13,14
 622 -248 622 -248 647 -240 c 128,-1,15
 672 -232 672 -232 695 -221 c 1,16,-1
 716 -344 l 1,17,18
 678 -366 678 -366 635.5 -376 c 128,-1,19
 593 -386 593 -386 549 -385 c 0,20,21
 468 -384 468 -384 422 -334 c 128,-1,22
 376 -284 376 -284 378 -203 c 0,23,24
 380 -148 380 -148 405 -102 c 128,-1,25
 430 -56 430 -56 468 -18 c 1,26,27
 376 -9 376 -9 306 34 c 128,-1,28
 236 77 236 77 190 144 c 128,-1,29
 144 211 144 211 124.5 295 c 128,-1,30
 105 379 105 379 115 469 c 1,31,-1
 285 1456 l 1,32,-1
 457 1456 l 1,33,-1
 292 469 l 2,34,35
 285 410 285 410 294 352 c 128,-1,36
 303 294 303 294 330 247 c 128,-1,37
 357 200 357 200 402.5 169.5 c 128,-1,38
 448 139 448 139 515 137 c 0,39,40
 586 135 586 135 644.5 162.5 c 128,-1,41
 703 190 703 190 746.5 237 c 128,-1,42
 790 284 790 284 818 345 c 128,-1,43
 846 406 846 406 858 470 c 2,44,-1
 1030 1456 l 1,45,-1
 1205 1456 l 1,0,-1
EndSplineSet
Substitution2: "'smcp' Lowercase to Small Capitals lookup 0 subtable" Uogonek.smcp
EndChar
StartChar: uogonek
Encoding: 371 371 649
Width: 1202
Flags: W
LayerCount: 2
Back
Fore
SplineSet
914 0 m 1,0,-1
 919 -3 l 1,1,2
 887 -20 887 -20 854 -42.5 c 128,-1,3
 821 -65 821 -65 793 -92.5 c 128,-1,4
 765 -120 765 -120 745.5 -153.5 c 128,-1,5
 726 -187 726 -187 722 -226 c 0,6,7
 716 -292 716 -292 779 -293 c 0,8,9
 805 -295 805 -295 830 -287 c 128,-1,10
 855 -279 855 -279 878 -268 c 1,11,-1
 899 -391 l 1,12,13
 861 -413 861 -413 818.5 -423 c 128,-1,14
 776 -433 776 -433 732 -432 c 0,15,16
 651 -431 651 -431 605 -381 c 128,-1,17
 559 -331 559 -331 561 -250 c 0,18,19
 562 -205 562 -205 579 -166.5 c 128,-1,20
 596 -128 596 -128 624 -94.5 c 128,-1,21
 652 -61 652 -61 687 -33.5 c 128,-1,22
 722 -6 722 -6 759 17 c 1,23,-1
 780 149 l 1,24,25
 716 70 716 70 633 24 c 128,-1,26
 550 -22 550 -22 445 -20 c 0,27,28
 348 -18 348 -18 286.5 22.5 c 128,-1,29
 225 63 225 63 191.5 128 c 128,-1,30
 158 193 158 193 149.5 274.5 c 128,-1,31
 141 356 141 356 150 439 c 1,32,-1
 258 1082 l 1,33,-1
 439 1082 l 1,34,-1
 332 436 l 2,35,36
 326 386 326 386 325 333.5 c 128,-1,37
 324 281 324 281 338.5 238 c 128,-1,38
 353 195 353 195 387 167 c 128,-1,39
 421 139 421 139 484 137 c 0,40,41
 584 134 584 134 661 178.5 c 128,-1,42
 738 223 738 223 791 305 c 1,43,-1
 926 1082 l 1,44,-1
 1108 1082 l 1,45,-1
 920 0 l 1,46,-1
 914 0 l 1,0,-1
EndSplineSet
Substitution2: "'smcp' Lowercase to Small Capitals lookup 0 subtable" Uogonek.smcp
EndChar
StartChar: longs
Encoding: 383 383 148
Width: 1202
Flags: W
LayerCount: 2
Back
Fore
SplineSet
338 0 m 1,0,-1
 530 1125 l 2,1,2
 544 1224 544 1224 583 1308.5 c 128,-1,3
 622 1393 622 1393 683.5 1454 c 128,-1,4
 745 1515 745 1515 829 1548.5 c 128,-1,5
 913 1582 913 1582 1018 1581 c 0,6,7
 1056 1580 1056 1580 1092 1574 c 128,-1,8
 1128 1568 1128 1568 1164 1560 c 1,9,-1
 1130 1417 l 1,10,11
 1087 1428 1087 1428 1041 1430 c 0,12,13
 971 1431 971 1431 915 1408.5 c 128,-1,14
 859 1386 859 1386 817.5 1345 c 128,-1,15
 776 1304 776 1304 749 1247.5 c 128,-1,16
 722 1191 722 1191 712 1126 c 2,17,-1
 519 0 l 1,18,-1
 338 0 l 1,0,-1
EndSplineSet
EndChar
StartChar: florin
Encoding: 402 402 149
Width: 1202
Flags: W
LayerCount: 2
Back
Fore
SplineSet
922 939 m 1,0,-1
 716 939 l 1,1,-1
 565 -52 l 2,2,3
 554 -136 554 -136 523.5 -207.5 c 128,-1,4
 493 -279 493 -279 442 -331 c 128,-1,5
 391 -383 391 -383 321 -411.5 c 128,-1,6
 251 -440 251 -440 161 -438 c 0,7,8
 119 -437 119 -437 79.5 -427.5 c 128,-1,9
 40 -418 40 -418 2 -400 c 1,10,-1
 30 -253 l 1,11,12
 62 -270 62 -270 98.5 -279 c 128,-1,13
 135 -288 135 -288 171 -289 c 0,14,15
 221 -290 221 -290 258 -269.5 c 128,-1,16
 295 -249 295 -249 321 -215 c 128,-1,17
 347 -181 347 -181 362.5 -138.5 c 128,-1,18
 378 -96 378 -96 384 -52 c 2,19,-1
 536 939 l 1,20,-1
 364 939 l 1,21,-1
 386 1082 l 1,22,-1
 558 1082 l 1,23,-1
 570 1181 l 2,24,25
 582 1274 582 1274 619 1348.5 c 128,-1,26
 656 1423 656 1423 715.5 1475 c 128,-1,27
 775 1527 775 1527 853.5 1554.5 c 128,-1,28
 932 1582 932 1582 1027 1580 c 0,29,30
 1074 1579 1074 1579 1118 1567.5 c 128,-1,31
 1162 1556 1162 1556 1206 1541 c 1,32,-1
 1173 1393 l 1,33,34
 1112 1424 1112 1424 1043 1424 c 0,35,36
 984 1425 984 1425 934 1409.5 c 128,-1,37
 884 1394 884 1394 846.5 1362.5 c 128,-1,38
 809 1331 809 1331 785 1285.5 c 128,-1,39
 761 1240 761 1240 752 1181 c 2,40,-1
 738 1082 l 1,41,-1
 944 1082 l 1,42,-1
 922 939 l 1,0,-1
EndSplineSet
EndChar
StartChar: Ohorn
Encoding: 416 416 150
Width: 1202
Flags: W
LayerCount: 2
Back
Fore
SplineSet
1090 645 m 2,0,1
 1077 568 1077 568 1053.5 488.5 c 128,-1,2
 1030 409 1030 409 994.5 334.5 c 128,-1,3
 959 260 959 260 911 194 c 128,-1,4
 863 128 863 128 801.5 80 c 128,-1,5
 740 32 740 32 664.5 5 c 128,-1,6
 589 -22 589 -22 499 -20 c 0,7,8
 413 -18 413 -18 347.5 12.5 c 128,-1,9
 282 43 282 43 235 93 c 128,-1,10
 188 143 188 143 158 209 c 128,-1,11
 128 275 128 275 113 348 c 128,-1,12
 98 421 98 421 96.5 497 c 128,-1,13
 95 573 95 573 105 644 c 2,14,-1
 131 810 l 2,15,16
 144 887 144 887 167.5 966.5 c 128,-1,17
 191 1046 191 1046 226.5 1120.5 c 128,-1,18
 262 1195 262 1195 310.5 1261 c 128,-1,19
 359 1327 359 1327 420.5 1375.5 c 128,-1,20
 482 1424 482 1424 557.5 1451 c 128,-1,21
 633 1478 633 1478 723 1476 c 0,22,23
 828 1474 828 1474 902.5 1430 c 128,-1,24
 977 1386 977 1386 1025 1317 c 1,25,26
 1062 1325 1062 1325 1088.5 1345 c 128,-1,27
 1115 1365 1115 1365 1133 1393.5 c 128,-1,28
 1151 1422 1151 1422 1162.5 1457 c 128,-1,29
 1174 1492 1174 1492 1181 1530 c 1,30,-1
 1340 1531 l 1,31,32
 1327 1397 1327 1397 1263.5 1310.5 c 128,-1,33
 1200 1224 1200 1224 1086 1193 c 1,34,35
 1116 1102 1116 1102 1122.5 1002.5 c 128,-1,36
 1129 903 1129 903 1116 810 c 2,37,-1
 1090 645 l 2,0,1
937 814 m 2,38,39
 943 860 943 860 946.5 914 c 128,-1,40
 950 968 950 968 945.5 1022.5 c 128,-1,41
 941 1077 941 1077 927 1128.5 c 128,-1,42
 913 1180 913 1180 885.5 1220 c 128,-1,43
 858 1260 858 1260 815.5 1285 c 128,-1,44
 773 1310 773 1310 711 1312 c 0,45,46
 646 1314 646 1314 593.5 1292.5 c 128,-1,47
 541 1271 541 1271 499.5 1232.5 c 128,-1,48
 458 1194 458 1194 426.5 1143.5 c 128,-1,49
 395 1093 395 1093 372 1036.5 c 128,-1,50
 349 980 349 980 334 922 c 128,-1,51
 319 864 319 864 310 812 c 2,52,-1
 282 643 l 2,53,54
 275 598 275 598 272.5 544 c 128,-1,55
 270 490 270 490 275 435 c 128,-1,56
 280 380 280 380 294 328 c 128,-1,57
 308 276 308 276 336 235.5 c 128,-1,58
 364 195 364 195 406.5 169.5 c 128,-1,59
 449 144 449 144 511 142 c 0,60,61
 576 140 576 140 629 161.5 c 128,-1,62
 682 183 682 183 723 221.5 c 128,-1,63
 764 260 764 260 795 311 c 128,-1,64
 826 362 826 362 848.5 418.5 c 128,-1,65
 871 475 871 475 886 533 c 128,-1,66
 901 591 901 591 910 644 c 2,67,-1
 937 814 l 2,38,39
EndSplineSet
EndChar
StartChar: ohorn
Encoding: 417 417 151
Width: 1202
Flags: W
LayerCount: 2
Back
Fore
SplineSet
107 544 m 2,0,1
 116 617 116 617 138.5 687.5 c 128,-1,2
 161 758 161 758 196 820.5 c 128,-1,3
 231 883 231 883 278.5 935.5 c 128,-1,4
 326 988 326 988 384.5 1025.5 c 128,-1,5
 443 1063 443 1063 512.5 1083.5 c 128,-1,6
 582 1104 582 1104 662 1102 c 0,7,8
 753 1100 753 1100 822.5 1069 c 128,-1,9
 892 1038 892 1038 941 985 c 1,10,11
 979 992 979 992 1006 1011.5 c 128,-1,12
 1033 1031 1033 1031 1051.5 1058.5 c 128,-1,13
 1070 1086 1070 1086 1081 1121 c 128,-1,14
 1092 1156 1092 1156 1099 1194 c 1,15,-1
 1257 1196 l 1,16,17
 1244 1066 1244 1066 1185 981.5 c 128,-1,18
 1126 897 1126 897 1019 865 c 1,19,20
 1049 796 1049 796 1059 716.5 c 128,-1,21
 1069 637 1069 637 1061 554 c 2,22,-1
 1059 531 l 1,23,24
 1045 422 1045 422 1000.5 321 c 128,-1,25
 956 220 956 220 885 143.5 c 128,-1,26
 814 67 814 67 717.5 22 c 128,-1,27
 621 -23 621 -23 503 -20 c 0,28,29
 390 -17 390 -17 309.5 29.5 c 128,-1,30
 229 76 229 76 180 152 c 128,-1,31
 131 228 131 228 112 324 c 128,-1,32
 93 420 93 420 104 522 c 2,33,-1
 107 544 l 2,0,1
285 522 m 2,34,35
 280 480 280 480 280.5 435 c 128,-1,36
 281 390 281 390 288.5 347 c 128,-1,37
 296 304 296 304 312 265 c 128,-1,38
 328 226 328 226 355 196.5 c 128,-1,39
 382 167 382 167 420.5 149 c 128,-1,40
 459 131 459 131 511 129 c 0,41,42
 594 126 594 126 658 162 c 128,-1,43
 722 198 722 198 767.5 256 c 128,-1,44
 813 314 813 314 840 386.5 c 128,-1,45
 867 459 867 459 878 531 c 1,46,-1
 880 553 l 2,47,48
 887 616 887 616 882.5 685 c 128,-1,49
 878 754 878 754 853 812.5 c 128,-1,50
 828 871 828 871 780 909.5 c 128,-1,51
 732 948 732 948 654 951 c 0,52,53
 570 954 570 954 506 917.5 c 128,-1,54
 442 881 442 881 397 822 c 128,-1,55
 352 763 352 763 325 689.5 c 128,-1,56
 298 616 298 616 288 544 c 2,57,-1
 285 522 l 2,34,35
EndSplineSet
EndChar
StartChar: Uhorn
Encoding: 431 431 152
Width: 1202
Flags: W
LayerCount: 2
Back
Fore
SplineSet
1205 1456 m 1,0,-1
 1174 1272 l 1,1,2
 1220 1280 1220 1280 1252 1299.5 c 128,-1,3
 1284 1319 1284 1319 1306 1350 c 128,-1,4
 1328 1381 1328 1381 1341 1421.5 c 128,-1,5
 1354 1462 1354 1462 1362 1512 c 1,6,-1
 1521 1513 l 1,7,8
 1503 1333 1503 1333 1412 1240.5 c 128,-1,9
 1321 1148 1321 1148 1150 1134 c 1,10,-1
 1038 471 l 2,11,12
 1023 371 1023 371 977 281 c 128,-1,13
 931 191 931 191 861 123.5 c 128,-1,14
 791 56 791 56 700 17 c 128,-1,15
 609 -22 609 -22 503 -20 c 0,16,17
 403 -18 403 -18 326 23.5 c 128,-1,18
 249 65 249 65 198.5 132.5 c 128,-1,19
 148 200 148 200 126 287.5 c 128,-1,20
 104 375 104 375 115 469 c 1,21,-1
 285 1456 l 1,22,-1
 457 1456 l 1,23,-1
 292 469 l 2,24,25
 285 410 285 410 294 352 c 128,-1,26
 303 294 303 294 330 247 c 128,-1,27
 357 200 357 200 402.5 169.5 c 128,-1,28
 448 139 448 139 515 137 c 0,29,30
 586 135 586 135 644.5 162.5 c 128,-1,31
 703 190 703 190 746.5 237 c 128,-1,32
 790 284 790 284 818 345 c 128,-1,33
 846 406 846 406 858 470 c 2,34,-1
 1030 1456 l 1,35,-1
 1205 1456 l 1,0,-1
EndSplineSet
EndChar
StartChar: uhorn
Encoding: 432 432 153
Width: 1202
Flags: W
LayerCount: 2
Back
Fore
SplineSet
780 149 m 1,0,1
 716 70 716 70 633 24 c 128,-1,2
 550 -22 550 -22 445 -20 c 0,3,4
 348 -18 348 -18 286.5 22.5 c 128,-1,5
 225 63 225 63 191.5 128 c 128,-1,6
 158 193 158 193 149.5 274.5 c 128,-1,7
 141 356 141 356 150 439 c 1,8,-1
 258 1082 l 1,9,-1
 439 1082 l 1,10,-1
 332 436 l 2,11,12
 326 386 326 386 325 333.5 c 128,-1,13
 324 281 324 281 338.5 238 c 128,-1,14
 353 195 353 195 387 167 c 128,-1,15
 421 139 421 139 484 137 c 0,16,17
 584 134 584 134 661 178.5 c 128,-1,18
 738 223 738 223 791 305 c 1,19,-1
 926 1082 l 1,20,-1
 1108 1082 l 1,21,-1
 1084 943 l 1,22,23
 1155 965 1155 965 1188.5 1023.5 c 128,-1,24
 1222 1082 1222 1082 1236 1171 c 1,25,-1
 1396 1172 l 1,26,27
 1379 1002 1379 1002 1295 911 c 128,-1,28
 1211 820 1211 820 1059 800 c 1,29,-1
 920 0 l 1,30,-1
 757 0 l 1,31,-1
 780 149 l 1,0,1
EndSplineSet
EndChar
StartChar: uni0237
Encoding: 567 567 154
Width: 1202
Flags: W
LayerCount: 2
Back
Fore
SplineSet
336 1082 m 1,0,-1
 870 1082 l 1,1,-1
 685 -7 l 2,2,3
 671 -105 671 -105 633.5 -185 c 128,-1,4
 596 -265 596 -265 536 -321.5 c 128,-1,5
 476 -378 476 -378 394.5 -408.5 c 128,-1,6
 313 -439 313 -439 211 -439 c 0,7,8
 157 -439 157 -439 105.5 -434.5 c 128,-1,9
 54 -430 54 -430 1 -422 c 1,10,-1
 27 -268 l 1,11,12
 72 -276 72 -276 116.5 -279.5 c 128,-1,13
 161 -283 161 -283 206 -284 c 0,14,15
 271 -285 271 -285 322.5 -265 c 128,-1,16
 374 -245 374 -245 411 -208.5 c 128,-1,17
 448 -172 448 -172 471 -121 c 128,-1,18
 494 -70 494 -70 503 -8 c 2,19,-1
 661 921 l 1,20,-1
 307 921 l 1,21,-1
 336 1082 l 1,0,-1
EndSplineSet
EndChar
StartChar: schwa
Encoding: 601 601 155
Width: 1202
Flags: W
LayerCount: 2
Back
Fore
SplineSet
664 1102 m 0,0,1
 778 1100 778 1100 860.5 1055 c 128,-1,2
 943 1010 943 1010 994.5 936 c 128,-1,3
 1046 862 1046 862 1066.5 766 c 128,-1,4
 1087 670 1087 670 1077 565 c 2,5,-1
 1072 520 l 2,6,7
 1064 451 1064 451 1041 384 c 128,-1,8
 1018 317 1018 317 982.5 256.5 c 128,-1,9
 947 196 947 196 899 144.5 c 128,-1,10
 851 93 851 93 793 56 c 128,-1,11
 735 19 735 19 668 -1 c 128,-1,12
 601 -21 601 -21 527 -19 c 0,13,14
 422 -16 422 -16 345.5 22 c 128,-1,15
 269 60 269 60 221.5 125 c 128,-1,16
 174 190 174 190 156 277 c 128,-1,17
 138 364 138 364 150 463 c 2,18,-1
 169 584 l 1,19,-1
 897 584 l 1,20,21
 905 649 905 649 897 713.5 c 128,-1,22
 889 778 889 778 861.5 829.5 c 128,-1,23
 834 881 834 881 784 914.5 c 128,-1,24
 734 948 734 948 658 950 c 0,25,26
 567 953 567 953 482.5 926 c 128,-1,27
 398 899 398 899 325 845 c 1,28,-1
 263 972 l 1,29,30
 303 1008 303 1008 350.5 1033.5 c 128,-1,31
 398 1059 398 1059 450 1074.5 c 128,-1,32
 502 1090 502 1090 556.5 1096.5 c 128,-1,33
 611 1103 611 1103 664 1102 c 0,0,1
537 131 m 0,34,35
 603 129 603 129 656.5 155.5 c 128,-1,36
 710 182 710 182 751.5 225.5 c 128,-1,37
 793 269 793 269 824 323.5 c 128,-1,38
 855 378 855 378 876 433 c 1,39,-1
 328 434 l 1,40,-1
 323 406 l 2,41,42
 314 349 314 349 324 299.5 c 128,-1,43
 334 250 334 250 361.5 213 c 128,-1,44
 389 176 389 176 433.5 154 c 128,-1,45
 478 132 478 132 537 131 c 0,34,35
EndSplineSet
EndChar
StartChar: circumflex
Encoding: 710 710 156
Width: 1202
Flags: W
LayerCount: 2
Back
Fore
SplineSet
893 1278 m 1,0,-1
 891 1251 l 1,1,-1
 745 1252 l 1,2,-1
 627 1402 l 1,3,-1
 455 1253 l 1,4,-1
 302 1252 l 1,5,-1
 304 1279 l 1,6,-1
 576 1517 l 1,7,-1
 682 1517 l 1,8,-1
 893 1278 l 1,0,-1
EndSplineSet
EndChar
StartChar: caron
Encoding: 711 711 157
Width: 1202
Flags: W
LayerCount: 2
Back
Fore
SplineSet
718 1366 m 1,0,-1
 892 1516 l 1,1,-1
 1053 1518 l 1,2,-1
 1052 1498 l 1,3,-1
 771 1251 l 1,4,-1
 659 1251 l 1,5,-1
 449 1495 l 1,6,-1
 451 1518 l 1,7,-1
 600 1517 l 1,8,-1
 718 1366 l 1,0,-1
EndSplineSet
EndChar
StartChar: breve
Encoding: 728 728 158
Width: 1202
Flags: W
LayerCount: 2
Back
Fore
SplineSet
1016 1458 m 1,0,1
 1010 1395 1010 1395 984.5 1345 c 128,-1,2
 959 1295 959 1295 918 1260.5 c 128,-1,3
 877 1226 877 1226 823.5 1208 c 128,-1,4
 770 1190 770 1190 707 1191 c 0,5,6
 646 1192 646 1192 596.5 1211.5 c 128,-1,7
 547 1231 547 1231 511.5 1265.5 c 128,-1,8
 476 1300 476 1300 457 1349 c 128,-1,9
 438 1398 438 1398 439 1459 c 1,10,-1
 585 1458 l 1,11,12
 584 1426 584 1426 590 1399 c 128,-1,13
 596 1372 596 1372 611 1352 c 128,-1,14
 626 1332 626 1332 649.5 1320.5 c 128,-1,15
 673 1309 673 1309 708 1309 c 256,16,17
 743 1309 743 1309 770.5 1320 c 128,-1,18
 798 1331 798 1331 818.5 1351 c 128,-1,19
 839 1371 839 1371 852 1398 c 128,-1,20
 865 1425 865 1425 871 1457 c 1,21,-1
 1016 1458 l 1,0,1
EndSplineSet
EndChar
StartChar: dotaccent
Encoding: 729 729 159
Width: 1202
Flags: W
LayerCount: 2
Back
Fore
SplineSet
614 1355 m 0,0,1
 615 1405 615 1405 646 1437 c 128,-1,2
 677 1469 677 1469 727 1471 c 0,3,4
 776 1472 776 1472 807.5 1441 c 128,-1,5
 839 1410 839 1410 838 1361 c 256,6,7
 837 1312 837 1312 805.5 1281 c 128,-1,8
 774 1250 774 1250 726 1248 c 0,9,10
 702 1247 702 1247 681.5 1254.5 c 128,-1,11
 661 1262 661 1262 646 1276.5 c 128,-1,12
 631 1291 631 1291 622.5 1311 c 128,-1,13
 614 1331 614 1331 614 1355 c 0,0,1
EndSplineSet
EndChar
StartChar: ring
Encoding: 730 730 160
Width: 1202
Flags: W
LayerCount: 2
Back
Fore
SplineSet
521 1304 m 0,0,1
 522 1347 522 1347 540 1385 c 128,-1,2
 558 1423 558 1423 587 1451.5 c 128,-1,3
 616 1480 616 1480 654.5 1496 c 128,-1,4
 693 1512 693 1512 736 1512 c 0,5,6
 776 1512 776 1512 810 1496.5 c 128,-1,7
 844 1481 844 1481 868 1455 c 128,-1,8
 892 1429 892 1429 905 1394 c 128,-1,9
 918 1359 918 1359 917 1320 c 0,10,11
 915 1277 915 1277 898 1240 c 128,-1,12
 881 1203 881 1203 852.5 1175.5 c 128,-1,13
 824 1148 824 1148 786 1132.5 c 128,-1,14
 748 1117 748 1117 705 1117 c 0,15,16
 665 1117 665 1117 631 1131.5 c 128,-1,17
 597 1146 597 1146 572 1171 c 128,-1,18
 547 1196 547 1196 533.5 1230 c 128,-1,19
 520 1264 520 1264 521 1304 c 0,0,1
619 1307 m 0,20,21
 616 1267 616 1267 640 1237 c 128,-1,22
 664 1207 664 1207 706 1207 c 0,23,24
 728 1207 728 1207 747.5 1216 c 128,-1,25
 767 1225 767 1225 782.5 1240.5 c 128,-1,26
 798 1256 798 1256 807.5 1276 c 128,-1,27
 817 1296 817 1296 820 1317 c 0,28,29
 822 1337 822 1337 817 1355.5 c 128,-1,30
 812 1374 812 1374 801 1388.5 c 128,-1,31
 790 1403 790 1403 773.5 1412 c 128,-1,32
 757 1421 757 1421 736 1421 c 0,33,34
 713 1421 713 1421 692.5 1411.5 c 128,-1,35
 672 1402 672 1402 656.5 1386 c 128,-1,36
 641 1370 641 1370 631 1349.5 c 128,-1,37
 621 1329 621 1329 619 1307 c 0,20,21
EndSplineSet
EndChar
StartChar: ogonek
Encoding: 731 731 161
Width: 1202
Flags: W
LayerCount: 2
Back
Fore
SplineSet
616 -3 m 1,0,1
 584 -20 584 -20 551 -42.5 c 128,-1,2
 518 -65 518 -65 490 -92.5 c 128,-1,3
 462 -120 462 -120 442.5 -153.5 c 128,-1,4
 423 -187 423 -187 419 -226 c 0,5,6
 413 -292 413 -292 476 -293 c 0,7,8
 502 -295 502 -295 527 -287 c 128,-1,9
 552 -279 552 -279 575 -268 c 1,10,-1
 596 -391 l 1,11,12
 558 -413 558 -413 515.5 -423 c 128,-1,13
 473 -433 473 -433 429 -432 c 0,14,15
 348 -431 348 -431 302 -381 c 128,-1,16
 256 -331 256 -331 258 -250 c 0,17,18
 259 -195 259 -195 285 -148 c 128,-1,19
 311 -101 311 -101 350.5 -63 c 128,-1,20
 390 -25 390 -25 437.5 5 c 128,-1,21
 485 35 485 35 530 57 c 1,22,-1
 616 -3 l 1,0,1
EndSplineSet
EndChar
StartChar: tilde
Encoding: 732 732 162
Width: 1202
Flags: W
LayerCount: 2
Back
Fore
SplineSet
939 1491 m 1,0,1
 934 1447 934 1447 917.5 1406.5 c 128,-1,2
 901 1366 901 1366 873.5 1334.5 c 128,-1,3
 846 1303 846 1303 807.5 1284 c 128,-1,4
 769 1265 769 1265 721 1265 c 0,5,6
 683 1265 683 1265 651 1280.5 c 128,-1,7
 619 1296 619 1296 588.5 1315 c 128,-1,8
 558 1334 558 1334 526.5 1349.5 c 128,-1,9
 495 1365 495 1365 458 1364 c 0,10,11
 434 1363 434 1363 414.5 1353.5 c 128,-1,12
 395 1344 395 1344 380.5 1328.5 c 128,-1,13
 366 1313 366 1313 356 1293 c 128,-1,14
 346 1273 346 1273 340 1252 c 1,15,-1
 240 1275 l 1,16,17
 245 1318 245 1318 262 1360 c 128,-1,18
 279 1402 279 1402 306.5 1434.5 c 128,-1,19
 334 1467 334 1467 372.5 1486.5 c 128,-1,20
 411 1506 411 1506 459 1506 c 0,21,22
 496 1506 496 1506 528 1490 c 128,-1,23
 560 1474 560 1474 591 1455.5 c 128,-1,24
 622 1437 622 1437 653.5 1421.5 c 128,-1,25
 685 1406 685 1406 722 1407 c 0,26,27
 772 1409 772 1409 801 1442.5 c 128,-1,28
 830 1476 830 1476 842 1520 c 1,29,-1
 939 1491 l 1,0,1
EndSplineSet
EndChar
StartChar: hungarumlaut
Encoding: 733 733 163
Width: 1202
Flags: W
LayerCount: 2
Back
Fore
SplineSet
886 1519 m 1,0,-1
 1121 1519 l 1,1,-1
 778 1250 l 1,2,-1
 597 1250 l 1,3,-1
 886 1519 l 1,0,-1
574 1519 m 1,4,-1
 790 1519 l 1,5,-1
 505 1250 l 1,6,-1
 344 1250 l 1,7,-1
 574 1519 l 1,4,-1
EndSplineSet
EndChar
StartChar: uni02F3
Encoding: 755 755 164
Width: 1202
Flags: W
LayerCount: 2
Back
Fore
SplineSet
272 -239 m 0,0,1
 273 -207 273 -207 285.5 -179 c 128,-1,2
 298 -151 298 -151 319.5 -130 c 128,-1,3
 341 -109 341 -109 369 -96.5 c 128,-1,4
 397 -84 397 -84 429 -84 c 0,5,6
 459 -84 459 -84 484.5 -95 c 128,-1,7
 510 -106 510 -106 529 -125.5 c 128,-1,8
 548 -145 548 -145 558.5 -171 c 128,-1,9
 569 -197 569 -197 568 -227 c 0,10,11
 567 -259 567 -259 554.5 -286.5 c 128,-1,12
 542 -314 542 -314 521.5 -334.5 c 128,-1,13
 501 -355 501 -355 473 -367 c 128,-1,14
 445 -379 445 -379 414 -379 c 0,15,16
 384 -379 384 -379 357.5 -369 c 128,-1,17
 331 -359 331 -359 311.5 -340 c 128,-1,18
 292 -321 292 -321 281.5 -295 c 128,-1,19
 271 -269 271 -269 272 -239 c 0,0,1
356 -236 m 1,20,21
 360 -259 360 -259 370 -278 c 128,-1,22
 380 -297 380 -297 409 -297 c 0,23,24
 422 -297 422 -297 434.5 -291.5 c 128,-1,25
 447 -286 447 -286 457 -276.5 c 128,-1,26
 467 -267 467 -267 474 -255 c 128,-1,27
 481 -243 481 -243 483 -230 c 0,28,29
 486 -207 486 -207 472.5 -186.5 c 128,-1,30
 459 -166 459 -166 434 -166 c 0,31,32
 418 -166 418 -166 405.5 -172 c 128,-1,33
 393 -178 393 -178 384 -188 c 128,-1,34
 375 -198 375 -198 368 -211 c 128,-1,35
 361 -224 361 -224 356 -236 c 1,20,21
EndSplineSet
EndChar
StartChar: acutecomb
Encoding: 769 769 166
Width: 1083
Flags: W
LayerCount: 2
Back
Fore
SplineSet
-356 1559 m 1,0,-1
 -178 1559 l 1,1,-1
 -420 1212 l 1,2,-1
 -543 1212 l 1,3,-1
 -356 1559 l 1,0,-1
EndSplineSet
EndChar
StartChar: hook
Encoding: 777 777 168
Width: 1083
Flags: W
LayerCount: 2
Back
Fore
SplineSet
-528 1241 m 1,0,-1
 -506 1394 l 1,1,2
 -485 1396 -485 1396 -459.5 1398.5 c 128,-1,3
 -434 1401 -434 1401 -410.5 1409 c 128,-1,4
 -387 1417 -387 1417 -369.5 1432 c 128,-1,5
 -352 1447 -352 1447 -348 1474 c 256,6,7
 -344 1501 -344 1501 -360 1515 c 128,-1,8
 -376 1529 -376 1529 -400 1536 c 128,-1,9
 -424 1543 -424 1543 -450 1544 c 128,-1,10
 -476 1545 -476 1545 -492 1546 c 1,11,-1
 -478 1651 l 1,12,13
 -437 1649 -437 1649 -389 1641 c 128,-1,14
 -341 1633 -341 1633 -300.5 1612.5 c 128,-1,15
 -260 1592 -260 1592 -234 1558 c 128,-1,16
 -208 1524 -208 1524 -210 1470 c 0,17,18
 -212 1433 -212 1433 -226 1406 c 128,-1,19
 -240 1379 -240 1379 -263 1360 c 128,-1,20
 -286 1341 -286 1341 -316 1329.5 c 128,-1,21
 -346 1318 -346 1318 -379 1312 c 1,22,-1
 -390 1240 l 1,23,-1
 -528 1241 l 1,0,-1
EndSplineSet
EndChar
StartChar: uni030F
Encoding: 783 783 169
Width: 1083
Flags: W
LayerCount: 2
Back
Fore
SplineSet
-407 1252 m 1,0,-1
 -586 1252 l 1,1,-1
 -837 1518 l 1,2,-1
 -604 1518 l 1,3,-1
 -407 1252 l 1,0,-1
-155 1252 m 1,4,-1
 -314 1252 l 1,5,-1
 -507 1518 l 1,6,-1
 -292 1518 l 1,7,-1
 -155 1252 l 1,4,-1
EndSplineSet
EndChar
StartChar: dotbelow
Encoding: 803 803 170
Width: 1083
Flags: W
LayerCount: 2
Back
Fore
SplineSet
-852 -238 m 0,0,1
 -851 -189 -851 -189 -820 -156.5 c 128,-1,2
 -789 -124 -789 -124 -739 -122 c 0,3,4
 -715 -121 -715 -121 -694.5 -129 c 128,-1,5
 -674 -137 -674 -137 -659 -152 c 128,-1,6
 -644 -167 -644 -167 -636 -187.5 c 128,-1,7
 -628 -208 -628 -208 -628 -232 c 0,8,9
 -629 -281 -629 -281 -660.5 -312 c 128,-1,10
 -692 -343 -692 -343 -740 -345 c 0,11,12
 -764 -346 -764 -346 -784.5 -338.5 c 128,-1,13
 -805 -331 -805 -331 -820 -316.5 c 128,-1,14
 -835 -302 -835 -302 -843.5 -282 c 128,-1,15
 -852 -262 -852 -262 -852 -238 c 0,0,1
EndSplineSet
EndChar
StartChar: tonos
Encoding: 900 900 171
Width: 1202
Flags: W
LayerCount: 2
Back
Fore
SplineSet
781 1658 m 1,0,-1
 978 1658 l 1,1,-1
 745 1271 l 1,2,-1
 650 1271 l 1,3,-1
 781 1658 l 1,0,-1
EndSplineSet
EndChar
StartChar: dieresistonos
Encoding: 901 901 172
Width: 1202
Flags: W
LayerCount: 2
Back
Fore
SplineSet
802 1727 m 1,0,-1
 1009 1727 l 1,1,-1
 848 1463 l 1,2,-1
 709 1463 l 1,3,-1
 802 1727 l 1,0,-1
398 1357 m 0,4,5
 399 1406 399 1406 429.5 1438.5 c 128,-1,6
 460 1471 460 1471 510 1473 c 0,7,8
 559 1474 559 1474 590.5 1443 c 128,-1,9
 622 1412 622 1412 621 1363 c 256,10,11
 620 1314 620 1314 589 1282.5 c 128,-1,12
 558 1251 558 1251 509 1249 c 0,13,14
 485 1248 485 1248 464.5 1256 c 128,-1,15
 444 1264 444 1264 429 1278.5 c 128,-1,16
 414 1293 414 1293 406 1313 c 128,-1,17
 398 1333 398 1333 398 1357 c 0,4,5
890 1357 m 0,18,19
 891 1406 891 1406 921.5 1438.5 c 128,-1,20
 952 1471 952 1471 1002 1473 c 0,21,22
 1026 1474 1026 1474 1046.5 1466 c 128,-1,23
 1067 1458 1067 1458 1082 1443 c 128,-1,24
 1097 1428 1097 1428 1105 1407.5 c 128,-1,25
 1113 1387 1113 1387 1113 1363 c 0,26,27
 1112 1314 1112 1314 1080.5 1282.5 c 128,-1,28
 1049 1251 1049 1251 1000 1249 c 0,29,30
 976 1248 976 1248 956 1256 c 128,-1,31
 936 1264 936 1264 921 1278.5 c 128,-1,32
 906 1293 906 1293 898 1313 c 128,-1,33
 890 1333 890 1333 890 1357 c 0,18,19
EndSplineSet
EndChar
StartChar: Gamma
Encoding: 915 915 174
Width: 1202
Flags: W
LayerCount: 2
Back
Fore
SplineSet
1162 1304 m 1,0,-1
 479 1304 l 1,1,-1
 253 0 l 1,2,-1
 71 0 l 1,3,-1
 324 1456 l 1,4,-1
 1189 1456 l 1,5,-1
 1162 1304 l 1,0,-1
EndSplineSet
EndChar
StartChar: Theta
Encoding: 920 920 176
Width: 1202
Flags: W
LayerCount: 2
Back
Fore
SplineSet
831 660 m 1,0,-1
 379 660 l 1,1,-1
 406 811 l 1,2,-1
 857 811 l 1,3,-1
 831 660 l 1,0,-1
1097 645 m 2,4,5
 1084 568 1084 568 1060.5 488.5 c 128,-1,6
 1037 409 1037 409 1001.5 334.5 c 128,-1,7
 966 260 966 260 918 194 c 128,-1,8
 870 128 870 128 808.5 80 c 128,-1,9
 747 32 747 32 671.5 5 c 128,-1,10
 596 -22 596 -22 506 -20 c 0,11,12
 420 -18 420 -18 354.5 12.5 c 128,-1,13
 289 43 289 43 242 93 c 128,-1,14
 195 143 195 143 165 209 c 128,-1,15
 135 275 135 275 120 348 c 128,-1,16
 105 421 105 421 103.5 497 c 128,-1,17
 102 573 102 573 112 644 c 2,18,-1
 138 810 l 2,19,20
 151 887 151 887 174.5 966.5 c 128,-1,21
 198 1046 198 1046 233.5 1120.5 c 128,-1,22
 269 1195 269 1195 317.5 1261 c 128,-1,23
 366 1327 366 1327 427.5 1375.5 c 128,-1,24
 489 1424 489 1424 564.5 1451 c 128,-1,25
 640 1478 640 1478 730 1476 c 0,26,27
 817 1474 817 1474 882.5 1443.5 c 128,-1,28
 948 1413 948 1413 995 1363 c 128,-1,29
 1042 1313 1042 1313 1071.5 1247 c 128,-1,30
 1101 1181 1101 1181 1115.5 1107.5 c 128,-1,31
 1130 1034 1130 1034 1131.5 957.5 c 128,-1,32
 1133 881 1133 881 1123 810 c 2,33,-1
 1097 645 l 2,4,5
944 814 m 2,34,35
 950 860 950 860 953.5 914 c 128,-1,36
 957 968 957 968 952.5 1022.5 c 128,-1,37
 948 1077 948 1077 934 1128.5 c 128,-1,38
 920 1180 920 1180 892.5 1220 c 128,-1,39
 865 1260 865 1260 822.5 1285 c 128,-1,40
 780 1310 780 1310 718 1312 c 0,41,42
 653 1314 653 1314 600.5 1292.5 c 128,-1,43
 548 1271 548 1271 506.5 1232.5 c 128,-1,44
 465 1194 465 1194 433.5 1143.5 c 128,-1,45
 402 1093 402 1093 379 1036.5 c 128,-1,46
 356 980 356 980 341 922 c 128,-1,47
 326 864 326 864 317 812 c 2,48,-1
 289 643 l 2,49,50
 283 598 283 598 280 544 c 128,-1,51
 277 490 277 490 282 435 c 128,-1,52
 287 380 287 380 301 328 c 128,-1,53
 315 276 315 276 343 235.5 c 128,-1,54
 371 195 371 195 413.5 169.5 c 128,-1,55
 456 144 456 144 518 142 c 0,56,57
 583 140 583 140 636 161.5 c 128,-1,58
 689 183 689 183 730 221.5 c 128,-1,59
 771 260 771 260 802 311 c 128,-1,60
 833 362 833 362 855.5 418.5 c 128,-1,61
 878 475 878 475 893 533 c 128,-1,62
 908 591 908 591 917 644 c 2,63,-1
 944 814 l 2,34,35
EndSplineSet
EndChar
StartChar: Xi
Encoding: 926 926 178
Width: 1202
Flags: W
LayerCount: 2
Back
Fore
SplineSet
63 151 m 1,0,-1
 970 151 l 1,1,-1
 943 0 l 1,2,-1
 36 0 l 1,3,-1
 63 151 l 1,0,-1
263 830 m 1,4,-1
 996 830 l 1,5,-1
 969 678 l 1,6,-1
 236 678 l 1,7,-1
 263 830 l 1,4,-1
291 1456 m 1,8,-1
 1183 1456 l 1,9,-1
 1156 1304 l 1,10,-1
 264 1304 l 1,11,-1
 291 1456 l 1,8,-1
EndSplineSet
EndChar
StartChar: Pi
Encoding: 928 928 179
Width: 1202
Flags: W
LayerCount: 2
Back
Fore
SplineSet
931 0 m 1,0,-1
 750 0 l 1,1,-1
 976 1304 l 1,2,-1
 460 1304 l 1,3,-1
 233 0 l 1,4,-1
 53 0 l 1,5,-1
 305 1456 l 1,6,-1
 1183 1456 l 1,7,-1
 931 0 l 1,0,-1
EndSplineSet
EndChar
StartChar: Sigma
Encoding: 931 931 180
Width: 1202
Flags: W
LayerCount: 2
Back
Fore
SplineSet
791 717 m 1,0,-1
 261 152 l 1,1,-1
 1025 152 l 1,2,-1
 998 0 l 1,3,-1
 4 0 l 1,4,-1
 31 153 l 1,5,-1
 603 738 l 1,6,-1
 233 1321 l 1,7,-1
 257 1456 l 1,8,-1
 1202 1456 l 1,9,-1
 1175 1304 l 1,10,-1
 447 1304 l 1,11,-1
 794 743 l 1,12,-1
 791 717 l 1,0,-1
EndSplineSet
EndChar
StartChar: Phi
Encoding: 934 934 181
Width: 1202
Flags: W
LayerCount: 2
Back
Fore
SplineSet
794 1248 m 1,0,1
 891 1235 891 1235 961.5 1187 c 128,-1,2
 1032 1139 1032 1139 1076 1068.5 c 128,-1,3
 1120 998 1120 998 1137.5 911 c 128,-1,4
 1155 824 1155 824 1146 733 c 0,5,6
 1135 625 1135 625 1092.5 531 c 128,-1,7
 1050 437 1050 437 982 365.5 c 128,-1,8
 914 294 914 294 822.5 249.5 c 128,-1,9
 731 205 731 205 622 196 c 1,10,-1
 582 0 l 1,11,-1
 402 0 l 1,12,-1
 441 198 l 1,13,14
 343 210 343 210 272.5 258 c 128,-1,15
 202 306 202 306 158 377 c 128,-1,16
 114 448 114 448 97 535.5 c 128,-1,17
 80 623 80 623 89 715 c 0,18,19
 100 823 100 823 142 917 c 128,-1,20
 184 1011 184 1011 252.5 1082 c 128,-1,21
 321 1153 321 1153 412.5 1197.5 c 128,-1,22
 504 1242 504 1242 613 1250 c 1,23,-1
 655 1456 l 1,24,-1
 835 1456 l 1,25,-1
 794 1248 l 1,0,1
267 715 m 0,26,27
 260 656 260 656 263.5 596 c 128,-1,28
 267 536 267 536 288 485 c 128,-1,29
 309 434 309 434 349.5 397 c 128,-1,30
 390 360 390 360 458 348 c 1,31,-1
 595 1101 l 1,32,33
 520 1091 520 1091 462.5 1056 c 128,-1,34
 405 1021 405 1021 364.5 969 c 128,-1,35
 324 917 324 917 300 851.5 c 128,-1,36
 276 786 276 786 267 715 c 0,26,27
966 733 m 0,37,38
 973 791 973 791 969.5 850.5 c 128,-1,39
 966 910 966 910 945.5 960.5 c 128,-1,40
 925 1011 925 1011 884.5 1048 c 128,-1,41
 844 1085 844 1085 778 1098 c 1,42,-1
 641 345 l 1,43,44
 716 355 716 355 773 390.5 c 128,-1,45
 830 426 830 426 870 478.5 c 128,-1,46
 910 531 910 531 933.5 596.5 c 128,-1,47
 957 662 957 662 966 733 c 0,37,38
EndSplineSet
EndChar
StartChar: Psi
Encoding: 936 936 182
Width: 1202
Flags: W
LayerCount: 2
Back
Fore
SplineSet
664 476 m 1,0,1
 733 492 733 492 785 526 c 128,-1,2
 837 560 837 560 874 608 c 128,-1,3
 911 656 911 656 934 715.5 c 128,-1,4
 957 775 957 775 968 842 c 2,5,-1
 1073 1456 l 1,6,-1
 1253 1456 l 1,7,-1
 1149 842 l 2,8,9
 1134 736 1134 736 1094.5 647 c 128,-1,10
 1055 558 1055 558 992 490.5 c 128,-1,11
 929 423 929 423 843 380 c 128,-1,12
 757 337 757 337 648 324 c 1,13,-1
 586 0 l 1,14,-1
 405 0 l 1,15,-1
 467 326 l 1,16,17
 369 342 369 342 302 390.5 c 128,-1,18
 235 439 235 439 196 509 c 128,-1,19
 157 579 157 579 144.5 664.5 c 128,-1,20
 132 750 132 750 143 842 c 1,21,-1
 246 1456 l 1,22,-1
 427 1456 l 1,23,-1
 323 841 l 2,24,25
 316 785 316 785 318 729 c 128,-1,26
 320 673 320 673 337 624 c 128,-1,27
 354 575 354 575 389 537 c 128,-1,28
 424 499 424 499 484 480 c 1,29,-1
 658 1456 l 1,30,-1
 839 1456 l 1,31,-1
 664 476 l 1,0,1
EndSplineSet
EndChar
StartChar: Omega
Encoding: 937 937 183
AltUni2: 002126.ffffffff.0
Width: 1202
Flags: W
LayerCount: 2
Back
Fore
SplineSet
585 192 m 1,0,1
 647 207 647 207 695.5 239 c 128,-1,2
 744 271 744 271 781.5 316 c 128,-1,3
 819 361 819 361 846 415 c 128,-1,4
 873 469 873 469 892 527 c 128,-1,5
 911 585 911 585 923.5 644.5 c 128,-1,6
 936 704 936 704 944 759 c 2,7,-1
 955 841 l 2,8,9
 961 888 961 888 963.5 941.5 c 128,-1,10
 966 995 966 995 961 1048 c 128,-1,11
 956 1101 956 1101 942 1150 c 128,-1,12
 928 1199 928 1199 900 1237.5 c 128,-1,13
 872 1276 872 1276 829 1299.5 c 128,-1,14
 786 1323 786 1323 723 1326 c 0,15,16
 657 1328 657 1328 603.5 1308 c 128,-1,17
 550 1288 550 1288 507 1252.5 c 128,-1,18
 464 1217 464 1217 432 1168.5 c 128,-1,19
 400 1120 400 1120 376.5 1065.5 c 128,-1,20
 353 1011 353 1011 338 953 c 128,-1,21
 323 895 323 895 315 840 c 2,22,-1
 303 758 l 2,23,24
 297 715 297 715 292 661 c 128,-1,25
 287 607 287 607 286.5 550 c 128,-1,26
 286 493 286 493 293 436 c 128,-1,27
 300 379 300 379 319.5 330.5 c 128,-1,28
 339 282 339 282 373.5 245.5 c 128,-1,29
 408 209 408 209 463 193 c 1,30,-1
 433 0 l 1,31,-1
 -7 0 l 1,32,-1
 21 151 l 1,33,-1
 274 154 l 1,34,35
 222 217 222 217 188 289.5 c 128,-1,36
 154 362 154 362 136 439.5 c 128,-1,37
 118 517 118 517 114.5 598 c 128,-1,38
 111 679 111 679 122 759 c 2,39,-1
 134 838 l 2,40,41
 145 916 145 916 169.5 994 c 128,-1,42
 194 1072 194 1072 230.5 1143.5 c 128,-1,43
 267 1215 267 1215 316.5 1276.5 c 128,-1,44
 366 1338 366 1338 428.5 1383.5 c 128,-1,45
 491 1429 491 1429 566.5 1453.5 c 128,-1,46
 642 1478 642 1478 730 1476 c 0,47,48
 815 1474 815 1474 880.5 1445.5 c 128,-1,49
 946 1417 946 1417 994 1370 c 128,-1,50
 1042 1323 1042 1323 1073.5 1261 c 128,-1,51
 1105 1199 1105 1199 1121.5 1129 c 128,-1,52
 1138 1059 1138 1059 1141 984.5 c 128,-1,53
 1144 910 1144 910 1135 838 c 2,54,-1
 1124 760 l 2,55,56
 1110 669 1110 669 1081 581 c 128,-1,57
 1052 493 1052 493 1007 413.5 c 128,-1,58
 962 334 962 334 900.5 266.5 c 128,-1,59
 839 199 839 199 761 148 c 1,60,-1
 1022 151 l 1,61,-1
 995 0 l 1,62,-1
 555 0 l 1,63,-1
 585 192 l 1,0,1
EndSplineSet
EndChar
StartChar: alpha
Encoding: 945 945 184
Width: 1202
Flags: W
LayerCount: 2
Back
Fore
SplineSet
1061 1082 m 1,0,-1
 925 274 l 2,1,2
 923 258 923 258 921.5 237 c 128,-1,3
 920 216 920 216 923.5 196.5 c 128,-1,4
 927 177 927 177 937.5 163 c 128,-1,5
 948 149 948 149 971 148 c 0,6,7
 984 146 984 146 997 148 c 128,-1,8
 1010 150 1010 150 1022 152 c 1,9,-1
 1032 12 l 1,10,11
 1005 -4 1005 -4 977.5 -12 c 128,-1,12
 950 -20 950 -20 918 -19 c 0,13,14
 848 -18 848 -18 803.5 16.5 c 128,-1,15
 759 51 759 51 745 120 c 1,16,17
 679 51 679 51 600 14 c 128,-1,18
 521 -23 521 -23 424 -21 c 0,19,20
 355 -19 355 -19 303 4 c 128,-1,21
 251 27 251 27 214 66 c 128,-1,22
 177 105 177 105 153.5 155.5 c 128,-1,23
 130 206 130 206 118 263 c 128,-1,24
 106 320 106 320 104.5 380 c 128,-1,25
 103 440 103 440 109 497 c 2,26,-1
 111 519 l 2,27,28
 119 584 119 584 136 653 c 128,-1,29
 153 722 153 722 180.5 787.5 c 128,-1,30
 208 853 208 853 246 911 c 128,-1,31
 284 969 284 969 334 1012.5 c 128,-1,32
 384 1056 384 1056 447 1080.5 c 128,-1,33
 510 1105 510 1105 588 1103 c 0,34,35
 676 1101 676 1101 750.5 1065 c 128,-1,36
 825 1029 825 1029 873 954 c 1,37,-1
 948 1082 l 1,38,-1
 1061 1082 l 1,0,-1
291 493 m 2,39,40
 287 457 287 457 285.5 416 c 128,-1,41
 284 375 284 375 288.5 335.5 c 128,-1,42
 293 296 293 296 305 259 c 128,-1,43
 317 222 317 222 338.5 194 c 128,-1,44
 360 166 360 166 393.5 148.5 c 128,-1,45
 427 131 427 131 475 130 c 0,46,47
 518 128 518 128 555.5 139 c 128,-1,48
 593 150 593 150 625.5 169.5 c 128,-1,49
 658 189 658 189 686.5 216.5 c 128,-1,50
 715 244 715 244 740 276 c 1,51,-1
 834 809 l 1,52,53
 803 875 803 875 750 912 c 128,-1,54
 697 949 697 949 624 951 c 0,55,56
 567 953 567 953 522.5 934 c 128,-1,57
 478 915 478 915 443 881.5 c 128,-1,58
 408 848 408 848 383 803.5 c 128,-1,59
 358 759 358 759 340 710 c 128,-1,60
 322 661 322 661 311 610.5 c 128,-1,61
 300 560 300 560 294 515 c 2,62,-1
 291 493 l 2,39,40
EndSplineSet
EndChar
StartChar: beta
Encoding: 946 946 185
Width: 1202
Flags: W
LayerCount: 2
Back
Fore
SplineSet
736 1476 m 0,0,1
 819 1474 819 1474 889 1446 c 128,-1,2
 959 1418 959 1418 1008 1367.5 c 128,-1,3
 1057 1317 1057 1317 1082 1247 c 128,-1,4
 1107 1177 1107 1177 1100 1092 c 0,5,6
 1095 1038 1095 1038 1075 992.5 c 128,-1,7
 1055 947 1055 947 1024.5 909.5 c 128,-1,8
 994 872 994 872 953.5 842 c 128,-1,9
 913 812 913 812 868 788 c 1,10,11
 919 763 919 763 955.5 725 c 128,-1,12
 992 687 992 687 1014.5 640.5 c 128,-1,13
 1037 594 1037 594 1045.5 541 c 128,-1,14
 1054 488 1054 488 1050 433 c 0,15,16
 1042 331 1042 331 1001 246.5 c 128,-1,17
 960 162 960 162 893.5 101.5 c 128,-1,18
 827 41 827 41 738.5 8.5 c 128,-1,19
 650 -24 650 -24 548 -22 c 0,20,21
 471 -20 471 -20 398.5 3 c 128,-1,22
 326 26 326 26 266 76 c 1,23,-1
 179 -384 l 1,24,-1
 -2 -384 l 1,25,-1
 247 1073 l 2,26,27
 260 1161 260 1161 305 1236 c 128,-1,28
 350 1311 350 1311 416 1365 c 128,-1,29
 482 1419 482 1419 564.5 1448.5 c 128,-1,30
 647 1478 647 1478 736 1476 c 0,0,1
632 856 m 2,31,32
 689 857 689 857 738.5 872.5 c 128,-1,33
 788 888 788 888 826 918 c 128,-1,34
 864 948 864 948 888.5 992 c 128,-1,35
 913 1036 913 1036 919 1095 c 0,36,37
 924 1142 924 1142 913 1183.5 c 128,-1,38
 902 1225 902 1225 876.5 1256.5 c 128,-1,39
 851 1288 851 1288 813 1306.5 c 128,-1,40
 775 1325 775 1325 726 1326 c 0,41,42
 670 1327 670 1327 620 1308 c 128,-1,43
 570 1289 570 1289 531 1255 c 128,-1,44
 492 1221 492 1221 465.5 1174.5 c 128,-1,45
 439 1128 439 1128 430 1074 c 2,46,-1
 287 245 l 1,47,48
 330 184 330 184 397.5 156.5 c 128,-1,49
 465 129 465 129 537 128 c 0,50,51
 604 127 604 127 661.5 149.5 c 128,-1,52
 719 172 719 172 762.5 212 c 128,-1,53
 806 252 806 252 834 307.5 c 128,-1,54
 862 363 862 363 870 428 c 0,55,56
 876 477 876 477 868 525 c 128,-1,57
 860 573 860 573 837 612 c 128,-1,58
 814 651 814 651 775.5 676.5 c 128,-1,59
 737 702 737 702 683 705 c 2,60,-1
 533 706 l 1,61,-1
 560 857 l 1,62,-1
 632 856 l 2,31,32
EndSplineSet
EndChar
StartChar: gamma
Encoding: 947 947 186
Width: 1202
Flags: W
LayerCount: 2
Back
Fore
SplineSet
1034 1082 m 1,0,-1
 1228 1082 l 1,1,-1
 598 36 l 1,2,-1
 519 -416 l 1,3,-1
 337 -416 l 1,4,-1
 421 65 l 1,5,-1
 157 1082 l 1,6,-1
 333 1082 l 1,7,-1
 529 289 l 1,8,-1
 534 204 l 1,9,-1
 580 307 l 1,10,-1
 1034 1082 l 1,0,-1
EndSplineSet
EndChar
StartChar: delta
Encoding: 948 948 187
Width: 1202
Flags: W
LayerCount: 2
Back
Fore
SplineSet
371 1261 m 0,0,1
 375 1341 375 1341 411.5 1399 c 128,-1,2
 448 1457 448 1457 505 1494.5 c 128,-1,3
 562 1532 562 1532 632.5 1549.5 c 128,-1,4
 703 1567 703 1567 775 1566 c 0,5,6
 856 1564 856 1564 931 1538 c 128,-1,7
 1006 1512 1006 1512 1078 1477 c 1,8,-1
 1026 1349 l 1,9,10
 964 1375 964 1375 899 1394.5 c 128,-1,11
 834 1414 834 1414 767 1413 c 0,12,13
 732 1413 732 1413 696.5 1404 c 128,-1,14
 661 1395 661 1395 631 1377 c 128,-1,15
 601 1359 601 1359 580 1331.5 c 128,-1,16
 559 1304 559 1304 553 1266 c 0,17,18
 547 1229 547 1229 565 1200.5 c 128,-1,19
 583 1172 583 1172 612 1150 c 128,-1,20
 641 1128 641 1128 675 1112 c 128,-1,21
 709 1096 709 1096 736 1085 c 0,22,23
 827 1047 827 1047 896 993.5 c 128,-1,24
 965 940 965 940 1009.5 871 c 128,-1,25
 1054 802 1054 802 1072 717.5 c 128,-1,26
 1090 633 1090 633 1080 533 c 2,27,-1
 1077 511 l 2,28,29
 1063 400 1063 400 1017.5 302.5 c 128,-1,30
 972 205 972 205 899 132.5 c 128,-1,31
 826 60 826 60 729 18.5 c 128,-1,32
 632 -23 632 -23 515 -20 c 0,33,34
 402 -17 402 -17 319.5 26 c 128,-1,35
 237 69 237 69 185 141 c 128,-1,36
 133 213 133 213 112 307.5 c 128,-1,37
 91 402 91 402 101 506 c 2,38,-1
 103 528 l 2,39,40
 113 613 113 613 147 689 c 128,-1,41
 181 765 181 765 234 825.5 c 128,-1,42
 287 886 287 886 358.5 927.5 c 128,-1,43
 430 969 430 969 515 987 c 1,44,-1
 527 1005 l 1,45,46
 490 1023 490 1023 460 1049.5 c 128,-1,47
 430 1076 430 1076 409.5 1109 c 128,-1,48
 389 1142 389 1142 379 1180.5 c 128,-1,49
 369 1219 369 1219 371 1261 c 0,0,1
283 502 m 2,50,51
 275 436 275 436 282.5 370 c 128,-1,52
 290 304 290 304 318 251.5 c 128,-1,53
 346 199 346 199 396 165 c 128,-1,54
 446 131 446 131 524 129 c 0,55,56
 606 127 606 127 670.5 158.5 c 128,-1,57
 735 190 735 190 781.5 244 c 128,-1,58
 828 298 828 298 856.5 368 c 128,-1,59
 885 438 885 438 896 512 c 2,60,-1
 898 532 l 2,61,62
 905 589 905 589 893.5 652.5 c 128,-1,63
 882 716 882 716 853 770.5 c 128,-1,64
 824 825 824 825 776.5 863.5 c 128,-1,65
 729 902 729 902 663 910 c 0,66,67
 608 917 608 917 560.5 904 c 128,-1,68
 513 891 513 891 473.5 863 c 128,-1,69
 434 835 434 835 402 795.5 c 128,-1,70
 370 756 370 756 346.5 711 c 128,-1,71
 323 666 323 666 307.5 617.5 c 128,-1,72
 292 569 292 569 286 523 c 2,73,-1
 283 502 l 2,50,51
EndSplineSet
EndChar
StartChar: epsilon
Encoding: 949 949 188
Width: 1202
Flags: W
LayerCount: 2
Back
Fore
SplineSet
589 479 m 2,0,1
 540 479 540 479 486 473 c 128,-1,2
 432 467 432 467 385.5 447.5 c 128,-1,3
 339 428 339 428 306 392.5 c 128,-1,4
 273 357 273 357 266 297 c 0,5,6
 262 263 262 263 272.5 237 c 128,-1,7
 283 211 283 211 303.5 192.5 c 128,-1,8
 324 174 324 174 351.5 161.5 c 128,-1,9
 379 149 379 149 409 141.5 c 128,-1,10
 439 134 439 134 469.5 131 c 128,-1,11
 500 128 500 128 525 128 c 0,12,13
 573 127 573 127 626 137 c 128,-1,14
 679 147 679 147 726 169.5 c 128,-1,15
 773 192 773 192 808 229 c 128,-1,16
 843 266 843 266 854 319 c 1,17,-1
 1035 320 l 1,18,19
 1024 225 1024 225 974 159.5 c 128,-1,20
 924 94 924 94 850.5 53.5 c 128,-1,21
 777 13 777 13 690 -4.5 c 128,-1,22
 603 -22 603 -22 519 -20 c 0,23,24
 471 -19 471 -19 419 -12 c 128,-1,25
 367 -5 367 -5 317.5 10 c 128,-1,26
 268 25 268 25 224 49.5 c 128,-1,27
 180 74 180 74 147.5 108.5 c 128,-1,28
 115 143 115 143 97.5 189.5 c 128,-1,29
 80 236 80 236 84 296 c 0,30,31
 87 352 87 352 109 394.5 c 128,-1,32
 131 437 131 437 166 469 c 128,-1,33
 201 501 201 501 246 523 c 128,-1,34
 291 545 291 545 340 561 c 1,35,36
 307 577 307 577 279 598.5 c 128,-1,37
 251 620 251 620 230 647 c 128,-1,38
 209 674 209 674 197.5 707 c 128,-1,39
 186 740 186 740 188 779 c 0,40,41
 190 842 190 842 213 891 c 128,-1,42
 236 940 236 940 273.5 976 c 128,-1,43
 311 1012 311 1012 360 1036.5 c 128,-1,44
 409 1061 409 1061 463 1075.5 c 128,-1,45
 517 1090 517 1090 573.5 1096 c 128,-1,46
 630 1102 630 1102 683 1101 c 0,47,48
 757 1099 757 1099 832 1080.5 c 128,-1,49
 907 1062 907 1062 967 1023 c 128,-1,50
 1027 984 1027 984 1065 924 c 128,-1,51
 1103 864 1103 864 1102 779 c 1,52,-1
 924 780 l 1,53,54
 925 828 925 828 901.5 860 c 128,-1,55
 878 892 878 892 841 912 c 128,-1,56
 804 932 804 932 760.5 941 c 128,-1,57
 717 950 717 950 677 951 c 0,58,59
 633 952 633 952 582 945 c 128,-1,60
 531 938 531 938 486 918.5 c 128,-1,61
 441 899 441 899 407.5 865.5 c 128,-1,62
 374 832 374 832 367 779 c 0,63,64
 360 729 360 729 380.5 699.5 c 128,-1,65
 401 670 401 670 435.5 654 c 128,-1,66
 470 638 470 638 512.5 633 c 128,-1,67
 555 628 555 628 593 627 c 2,68,-1
 841 626 l 1,69,-1
 815 478 l 1,70,-1
 589 479 l 2,0,1
EndSplineSet
EndChar
StartChar: zeta
Encoding: 950 950 189
Width: 1202
Flags: W
LayerCount: 2
Back
Fore
SplineSet
1188 1456 m 1,0,-1
 1166 1328 l 1,1,-1
 704 909 l 2,2,3
 642 855 642 855 579.5 800 c 128,-1,4
 517 745 517 745 464 682.5 c 128,-1,5
 411 620 411 620 373 548.5 c 128,-1,6
 335 477 335 477 324 390 c 0,7,8
 313 310 313 310 341 258 c 128,-1,9
 369 206 369 206 448 184 c 2,10,-1
 653 132 l 2,11,12
 698 121 698 121 739.5 107.5 c 128,-1,13
 781 94 781 94 812.5 70.5 c 128,-1,14
 844 47 844 47 861.5 11.5 c 128,-1,15
 879 -24 879 -24 875 -79 c 0,16,17
 872 -126 872 -126 852 -169.5 c 128,-1,18
 832 -213 832 -213 802 -252 c 128,-1,19
 772 -291 772 -291 736 -324.5 c 128,-1,20
 700 -358 700 -358 665 -384 c 1,21,-1
 573 -295 l 1,22,23
 591 -276 591 -276 611 -254.5 c 128,-1,24
 631 -233 631 -233 648.5 -209.5 c 128,-1,25
 666 -186 666 -186 679 -160 c 128,-1,26
 692 -134 692 -134 696 -106 c 0,27,28
 699 -82 699 -82 688.5 -65.5 c 128,-1,29
 678 -49 678 -49 660 -38 c 128,-1,30
 642 -27 642 -27 620.5 -20.5 c 128,-1,31
 599 -14 599 -14 581 -9 c 2,32,-1
 412 27 l 2,33,34
 340 43 340 43 285.5 73 c 128,-1,35
 231 103 231 103 195.5 147.5 c 128,-1,36
 160 192 160 192 145 251.5 c 128,-1,37
 130 311 130 311 138 387 c 0,38,39
 144 448 144 448 167.5 506 c 128,-1,40
 191 564 191 564 225.5 618.5 c 128,-1,41
 260 673 260 673 303.5 723.5 c 128,-1,42
 347 774 347 774 393.5 820.5 c 128,-1,43
 440 867 440 867 487.5 909 c 128,-1,44
 535 951 535 951 578 988 c 2,45,-1
 930 1304 l 1,46,-1
 235 1304 l 1,47,-1
 262 1456 l 1,48,-1
 1188 1456 l 1,0,-1
EndSplineSet
EndChar
